<?xml version="1.0" encoding="UTF-8" standalone="no"?>
<!-- Created with Inkscape (http://www.inkscape.org/) -->

<svg
   width="523.40503"
   height="552"
   viewBox="0 0 523.40503 552.00001"
   version="1.1"
   id="svg1522"
   inkscape:version="1.1.1 (3bf5ae0d25, 2021-09-20)"
   sodipodi:docname="Carretera.svg"
   inkscape:export-filename="/home/jonathanpc/Documentos/Clase/3A/SO/proyecto-catan-SO/cliente/Media/Images/CarreteraNorteVerde.png"
   inkscape:export-xdpi="96"
   inkscape:export-ydpi="96"
   xmlns:inkscape="http://www.inkscape.org/namespaces/inkscape"
   xmlns:sodipodi="http://sodipodi.sourceforge.net/DTD/sodipodi-0.dtd"
   xmlns="http://www.w3.org/2000/svg"
   xmlns:svg="http://www.w3.org/2000/svg">
  <sodipodi:namedview
     id="namedview1524"
     pagecolor="#ffffff"
     bordercolor="#666666"
     borderopacity="1.0"
     inkscape:pageshadow="2"
     inkscape:pageopacity="0.0"
     inkscape:pagecheckerboard="0"
     inkscape:document-units="px"
     showgrid="true"
     units="px"
     width="4096px"
     height="4096px"
     inkscape:zoom="2"
     inkscape:cx="128.75"
     inkscape:cy="145"
     inkscape:window-width="1366"
     inkscape:window-height="739"
     inkscape:window-x="0"
     inkscape:window-y="0"
     inkscape:window-maximized="1"
     inkscape:current-layer="layer1"
     inkscape:snap-bbox="true"
     inkscape:snap-intersection-paths="false"
     inkscape:object-nodes="true"
     inkscape:snap-smooth-nodes="false"
     inkscape:object-paths="false"
     inkscape:snap-midpoints="true"
     showguides="false"
     inkscape:snap-bbox-midpoints="true"
     inkscape:snap-nodes="false"
     inkscape:snap-center="true">
    <inkscape:grid
       type="axonomgrid"
       id="grid36"
       spacingy="256"
       empspacing="2"
       units="px"
       originy="148"
       originx="40" />
  </sodipodi:namedview>
  <defs
     id="defs1519">
    <clipPath
       clipPathUnits="userSpaceOnUse"
       id="clipPath3924">
      <path
         sodipodi:type="star"
         style="fill:#ff482a;fill-opacity:0.704312;fill-rule:evenodd;stroke:#ec2727;stroke-width:0;stroke-linecap:round;stroke-linejoin:round;stroke-opacity:1"
         id="path3926"
         inkscape:flatsided="true"
         sodipodi:sides="6"
         sodipodi:cx="456.68387"
         sodipodi:cy="488.34238"
         sodipodi:r1="230.39999"
         sodipodi:r2="199.53226"
         sodipodi:arg1="0.52359878"
         sodipodi:arg2="1.0471976"
         inkscape:rounded="0.1"
         inkscape:randomized="0"
         d="m 656.21612,603.54237 c -11.52,19.95323 -176.49225,115.2 -199.53225,115.2 -23.04,0 -188.01225,-95.24677 -199.53225,-115.2 -11.52,-19.95322 -11.52,-210.44677 0,-230.39999 11.52,-19.95323 176.49225,-115.2 199.53225,-115.2 23.04,0 188.01225,95.24678 199.53225,115.2 11.52,19.95323 11.52,210.44677 0,230.39999 z" />
    </clipPath>
    <clipPath
       clipPathUnits="userSpaceOnUse"
       id="clipPath3924-3">
      <path
         sodipodi:type="star"
         style="fill:#ff482a;fill-opacity:0.704312;fill-rule:evenodd;stroke:#ec2727;stroke-width:0;stroke-linecap:round;stroke-linejoin:round;stroke-opacity:1"
         id="path3926-6"
         inkscape:flatsided="true"
         sodipodi:sides="6"
         sodipodi:cx="456.68387"
         sodipodi:cy="488.34238"
         sodipodi:r1="230.39999"
         sodipodi:r2="199.53226"
         sodipodi:arg1="0.52359878"
         sodipodi:arg2="1.0471976"
         inkscape:rounded="0.1"
         inkscape:randomized="0"
         d="m 656.21612,603.54237 c -11.52,19.95323 -176.49225,115.2 -199.53225,115.2 -23.04,0 -188.01225,-95.24677 -199.53225,-115.2 -11.52,-19.95322 -11.52,-210.44677 0,-230.39999 11.52,-19.95323 176.49225,-115.2 199.53225,-115.2 23.04,0 188.01225,95.24678 199.53225,115.2 11.52,19.95323 11.52,210.44677 0,230.39999 z" />
    </clipPath>
    <clipPath
       clipPathUnits="userSpaceOnUse"
       id="clipPath5817">
      <path
         id="path5819"
         style="fill:#7fff2a;stroke:none;stroke-width:5.93201;stroke-linejoin:round"
         d="m 2083.6424,1791.7302 c -18.9823,32.8787 -290.8203,189.8243 -328.7852,189.8243 -37.9648,0 -309.8027,-156.9458 -328.7851,-189.8243 -18.9825,-32.8786 -18.9825,-346.77 0,-379.6485 18.9824,-32.8786 290.8203,-189.8243 328.7851,-189.8243 37.9649,0 309.8029,156.9458 328.7852,189.8243 18.9826,32.8787 18.9826,346.77 0,379.6485 z" />
    </clipPath>
    <clipPath
       clipPathUnits="userSpaceOnUse"
       id="clipPath5817-7">
      <path
         id="path5819-5"
         style="fill:#7fff2a;stroke:none;stroke-width:5.93201;stroke-linejoin:round"
         d="m 2083.6424,1791.7302 c -18.9823,32.8787 -290.8203,189.8243 -328.7852,189.8243 -37.9648,0 -309.8027,-156.9458 -328.7851,-189.8243 -18.9825,-32.8786 -18.9825,-346.77 0,-379.6485 18.9824,-32.8786 290.8203,-189.8243 328.7851,-189.8243 37.9649,0 309.8029,156.9458 328.7852,189.8243 18.9826,32.8787 18.9826,346.77 0,379.6485 z" />
    </clipPath>
    <clipPath
       clipPathUnits="userSpaceOnUse"
       id="clipPath978">
      <path
         id="path980"
         style="fill:#7fff2a;stroke:none;stroke-width:5.93201;stroke-linejoin:round"
         d="m 2078.081,1770.1804 c -18.9823,32.8787 -290.8203,189.8244 -328.7852,189.8244 -37.9648,0 -309.8027,-156.9459 -328.7851,-189.8244 -18.9825,-32.8786 -18.9825,-346.77 0,-379.6485 18.9824,-32.8786 290.8203,-189.8243 328.7851,-189.8243 37.9649,0 309.8029,156.9458 328.7852,189.8243 18.9826,32.8788 18.9826,346.77 0,379.6485 z" />
    </clipPath>
    <clipPath
       clipPathUnits="userSpaceOnUse"
       id="clipPath1120">
      <path
         id="path1122"
         style="fill:#cccccc;stroke:none;stroke-width:2.29183;stroke-linejoin:round"
         d="m 3171.1954,1063.0178 c -7.3338,12.7026 -112.3584,73.3386 -127.0262,73.3386 -14.6677,0 -119.6923,-60.636 -127.0261,-73.3386 -7.3339,-12.7027 -7.3339,-133.97465 0,-146.67725 7.3338,-12.70267 112.3584,-73.33861 127.0261,-73.33861 14.6678,0 119.6924,60.636 127.0262,73.33861 7.3339,12.70267 7.3339,133.97465 0,146.67725 z" />
    </clipPath>
    <clipPath
       clipPathUnits="userSpaceOnUse"
       id="clipPath6120">
      <path
         sodipodi:type="star"
         style="fill:#ffcc00;fill-opacity:0.647541;fill-rule:evenodd;stroke:#5d5d5d;stroke-width:0;stroke-linecap:round;stroke-linejoin:round;stroke-miterlimit:4;stroke-dasharray:none;stroke-opacity:1;paint-order:normal"
         id="path6122"
         inkscape:flatsided="true"
         sodipodi:sides="6"
         sodipodi:cx="335.8732"
         sodipodi:cy="299.88458"
         sodipodi:r1="230.39999"
         sodipodi:r2="199.53226"
         sodipodi:arg1="0.52359878"
         sodipodi:arg2="1.0471976"
         inkscape:rounded="0.1"
         inkscape:randomized="0"
         d="m 535.40545,415.08458 c -11.52,19.95323 -176.49225,115.2 -199.53225,115.2 -23.04,0 -188.01225,-95.24678 -199.53225,-115.2 -11.52,-19.95323 -11.52,-210.44677 0,-230.4 11.52,-19.95322 176.49225,-115.199991 199.53225,-115.199991 23.04,0 188.01225,95.246771 199.53225,115.200001 11.52,19.95322 11.52,210.44677 0,230.39999 z" />
    </clipPath>
    <clipPath
       clipPathUnits="userSpaceOnUse"
       id="clipPath6120-2">
      <path
         sodipodi:type="star"
         style="fill:#ffcc00;fill-opacity:0.647541;fill-rule:evenodd;stroke:#5d5d5d;stroke-width:0;stroke-linecap:round;stroke-linejoin:round;stroke-miterlimit:4;stroke-dasharray:none;stroke-opacity:1;paint-order:normal"
         id="path6122-9"
         inkscape:flatsided="true"
         sodipodi:sides="6"
         sodipodi:cx="335.8732"
         sodipodi:cy="299.88458"
         sodipodi:r1="230.39999"
         sodipodi:r2="199.53226"
         sodipodi:arg1="0.52359878"
         sodipodi:arg2="1.0471976"
         inkscape:rounded="0.1"
         inkscape:randomized="0"
         d="m 535.40545,415.08458 c -11.52,19.95323 -176.49225,115.2 -199.53225,115.2 -23.04,0 -188.01225,-95.24678 -199.53225,-115.2 -11.52,-19.95323 -11.52,-210.44677 0,-230.4 11.52,-19.95322 176.49225,-115.199991 199.53225,-115.199991 23.04,0 188.01225,95.246771 199.53225,115.200001 11.52,19.95322 11.52,210.44677 0,230.39999 z" />
    </clipPath>
    <mask
       maskUnits="userSpaceOnUse"
       id="mask22857-1-5-9">
      <g
         id="g22879-8-0-5"
         transform="translate(3.060661,-59.32276)"
         style="fill:#7fff2a;stroke:none;stroke-opacity:1">
        <path
           style="fill:#7fff2a;fill-opacity:1;stroke:none;stroke-width:1px;stroke-linecap:butt;stroke-linejoin:miter;stroke-opacity:1"
           d="m 1083,634 c 9,153.5 -2.5,189 -2.5,189 l 49,-1 -3.5,-189 z"
           id="path22859-8-9-7" />
        <path
           style="fill:#7fff2a;fill-opacity:1;stroke:none;stroke-width:0.9;stroke-opacity:1"
           id="path22861-2-7-7"
           d="m 1090.1292,632.1662 c 0.025,-0.3079 -0.035,-0.65977 0.1402,-0.93663 0.062,-0.098 0.4479,-0.44045 0.5151,-0.50206 4.5337,-2.00574 8.1565,-4.64249 -11.2087,6.64417 -0.132,0.077 0.2591,-0.16327 0.3953,-0.23281 0.3473,-0.17743 0.9639,-0.37007 1.264,-0.47512 2.1598,-0.51545 4.3543,-0.86498 6.5653,-1.05951 0.8124,-0.0292 1.6242,-0.0315 2.4363,-0.0666 0.1233,0.004 0.2505,-0.0191 0.3701,0.0114 0.2008,0.0513 0.3899,0.14251 0.5776,0.23046 0.9607,0.45008 1.7993,1.07513 2.6477,1.7021 0.7626,0.6019 1.5592,1.15983 2.3414,1.73634 0.5832,0.47792 1.3092,0.46976 2.0021,0.68577 0.9508,0.35854 2.0018,0.33209 3.002,0.26929 1.0475,-0.0552 2.0623,-0.3302 3.0715,-0.59394 0.7402,-0.19343 1.4811,-0.38409 2.2215,-0.5764 1.5975,-0.35327 3.2202,-0.59715 4.7903,-1.06528 0.9431,-0.23554 1.8355,-0.62304 2.703,-1.05554 0.5689,-0.3577 1.1667,-0.63823 1.8208,-0.79501 0.4574,-0.10674 0.9253,-0.10137 1.3912,-0.11422 0.3475,-0.0444 0.7688,0.12198 1.0789,-0.0793 0.2516,-0.1135 0.3725,0.16918 0.4908,0.33755 0.186,0.29631 0.21,0.65564 0.235,0.99646 0,0.40306 0.048,0.82623 -0.018,1.22723 -0.011,0.0692 -0.043,0.13367 -0.064,0.20051 -0.013,0.0817 -0.026,0.16345 -0.039,0.24518 -0.117,0.70351 -0.4015,1.35849 -0.5718,2.04902 -0.1028,0.19656 -0.1425,0.41667 -0.2261,0.6202 -0.041,0.10066 -0.1062,0.19101 -0.1434,0.29326 -0.1265,0.34742 -0.1928,0.73491 -0.2564,1.09765 -0.1168,0.70281 -0.1081,1.40871 -0.071,2.11692 0.011,0.47622 -0.04,0.95512 -0.019,1.43104 8e-4,0.0196 0.075,0.6851 0.079,0.72122 -0.01,0.51623 0.1168,1.01594 0.1771,1.52492 0.095,0.53461 0.1681,1.06932 0.2283,1.61029 0.069,0.41566 -0.016,0.85462 0.054,1.26848 0.026,0.15555 0.086,0.30377 0.1197,0.45796 0.032,0.14772 0.051,0.29795 0.077,0.44692 0.041,0.92201 0.4056,1.75575 0.7022,2.61296 0.1233,0.45889 0.3107,0.92886 0.2973,1.4136 -0.01,0.19505 -0.065,0.38476 -0.094,0.57778 -0.3895,0.76895 -0.9446,1.4325 -1.5192,2.07091 -0.6102,0.80244 -1.1184,1.68372 -1.6346,2.5499 -0.3209,0.69351 -0.7568,1.37173 -0.8817,2.14028 -0.022,0.13858 -0.018,0.28025 -0.026,0.42037 0.034,0.87125 -0.034,1.74215 -0.031,2.61295 0.063,0.67233 -0.052,1.35661 0.035,2.02698 0.018,0.14027 0.054,0.27759 0.082,0.41639 0.083,0.79904 0.4491,1.51624 0.7632,2.243 0.3533,0.61961 0.5907,1.28487 0.819,1.95708 0.1945,0.71575 0.2441,1.45969 0.2614,2.19801 0,0.54411 0.054,1.09333 0.01,1.63696 -0.013,0.15783 -0.081,0.54017 -0.1079,0.69812 -0.2333,0.61566 -0.4677,1.25533 -0.8598,1.78865 -0.2836,0.4291 -0.3663,0.91547 -0.4835,1.40346 -0.089,0.36976 -0.1658,0.58503 -0.2821,0.94475 -0.1848,0.42113 -0.3322,0.85947 -0.5172,1.28031 -0.1574,0.35791 -0.2844,0.58284 -0.3834,0.96798 0,0.34926 -0.2693,0.64977 -0.2693,0.99904 0,0.21443 0.058,0.42495 0.08,0.63827 0.024,0.10858 0.041,0.21898 0.072,0.32575 0.3283,1.1312 -0.066,-0.39849 0.2035,0.62527 0.076,0.2886 0.1229,0.58221 0.1955,0.87191 0.1407,0.61792 0.3858,1.19677 0.6303,1.77863 0.412,0.68877 0.6418,1.33871 0.7451,2.13364 0.054,0.39601 0.1623,0.77857 0.2794,1.15928 0,0 12.8808,-7.14798 12.8808,-7.14798 v 0 c -0.1367,-0.28713 -0.2253,-0.58527 -0.2829,-0.89931 -0.2177,-0.81261 -0.4083,-1.63714 -0.7451,-2.41021 -0.18,-0.52187 -0.4085,-1.02857 -0.5371,-1.56653 -0.09,-0.53052 -0.2727,-1.05708 -0.2472,-1.59693 0.062,-0.42103 -0.026,-0.007 0.1148,-0.33805 0.117,-0.27563 0.1016,-0.59245 0.2237,-0.86647 0.2748,-0.69793 0.4193,-1.44185 0.6956,-2.14049 0.086,-0.26871 0.1947,-0.63426 0.3145,-0.89151 0.2132,-0.45757 0.5243,-0.86629 0.7205,-1.33333 0.2365,-0.75064 0.5851,-1.47313 0.5853,-2.2794 0,-0.82773 -0.03,-1.65503 -0.046,-2.48256 -0.064,-0.85498 -0.1446,-1.70574 -0.4293,-2.52135 -0.2113,-0.75 -0.5006,-1.47015 -0.8642,-2.15985 -0.2961,-0.58478 -0.4856,-1.19849 -0.5743,-1.84974 -0.049,-0.74885 -0.069,-1.49918 -0.042,-2.24962 0.01,-0.7941 -0.064,-1.60798 0.1843,-2.37627 0.2672,-0.69441 0.5352,-1.39081 0.9596,-2.00976 0.2708,-0.42662 0.5374,-0.85598 0.8363,-1.26386 0.4595,-0.62695 0.1839,-0.22955 0.6767,-0.83641 0.093,-0.11495 0.1795,-0.23549 0.2693,-0.35323 0.5661,-0.88439 1.1287,-1.7921 1.2203,-2.86562 0.01,-0.39529 0.027,-0.53237 -0.044,-0.93477 -0.093,-0.5212 -0.3166,-1.09078 -0.5204,-1.57613 -0.1371,-0.34002 -0.1913,-0.42981 -0.2655,-0.78779 -0.1067,-0.51474 -0.1499,-1.04489 -0.2745,-1.55702 -0.081,-0.72164 0.023,-1.4549 -0.091,-2.178 -0.049,-0.60825 -0.1288,-1.21028 -0.1463,-1.82128 -0.1138,-0.42981 -0.2479,-0.85346 -0.2709,-1.30187 -0.046,-0.66161 -0.03,-1.32511 -0.038,-1.98775 0.052,-0.62014 0.093,-1.24947 0.2547,-1.85238 0.2069,-0.65476 0.4943,-1.28196 0.6331,-1.95766 0.2217,-0.72739 0.3767,-1.46841 0.54,-2.21054 0.021,-0.12814 0.055,-0.25484 0.062,-0.38442 0.01,-0.10137 -0.015,-0.20249 -0.023,-0.30376 -0.031,-0.42641 -0.064,-0.85297 -0.076,-1.28044 -0.045,-0.69781 -0.057,-1.13919 -0.4611,-1.73636 -0.2807,-0.46083 -0.5725,-0.9114 -1.0227,-1.22821 -0.1797,-0.10811 -0.2931,-0.20092 -0.5021,-0.23851 -0.2845,-0.0512 -0.5964,0.0506 -0.883,0.003 -0.5264,-0.0167 -1.0545,-0.0148 -1.5807,-0.005 -0.7673,0.0473 -1.5536,0.13912 -2.2526,0.47902 -0.2783,0.15638 -0.5434,0.3357 -0.8232,0.48953 -0.1518,0.0835 -0.3139,0.14679 -0.4683,0.22538 -0.4811,0.24487 -0.9348,0.54675 -1.4607,0.69412 -2.6195,0.937 1.5698,-0.5733 -1.353,0.52445 -1.2546,0.47124 -2.57,0.72818 -3.8701,1.03754 -1.5353,0.30247 -3.072,0.59791 -4.6035,0.91936 -0.8367,0.0737 -1.6467,0.20555 -2.4759,-0.0163 -0.3626,-0.0939 -0.7126,-0.22681 -1.0762,-0.31592 -0.491,-0.12034 -0.033,0.004 -0.4778,-0.058 -0.089,-0.0124 -0.1753,-0.0387 -0.2629,-0.0581 -0.9461,-0.33 -1.7657,-0.92083 -2.6618,-1.35916 -0.4382,-0.26548 -0.8912,-0.5073 -1.3183,-0.79036 -0.812,-0.53821 -1.4936,-1.22627 -2.2169,-1.87118 -0.144,-0.0517 -0.2835,-0.11847 -0.432,-0.15513 -0.3195,-0.0788 -0.532,-0.0573 -0.8567,-0.037 -0.6295,0.0395 -1.2535,0.13066 -1.8777,0.21808 -0.8775,0.12989 -1.0288,0.1412 -1.9379,0.32581 -1.5186,0.30837 -3.0387,0.7331 -4.6029,0.68175 -0.2244,-0.0292 -0.4469,-0.0861 -0.6731,-0.0876 -0.08,-5.2e-4 -0.9324,0.15443 -0.9983,0.19168 -4.3081,2.43499 -8.5914,4.91452 -12.8498,7.4354 -0.1505,0.0891 -0.2524,0.24415 -0.3582,0.38336 -0.1062,0.13968 -0.1832,0.29936 -0.2748,0.44904 -0.3417,0.77269 -0.5105,1.56364 -0.6123,2.39881 0,0 13.3297,-6.79185 13.3297,-6.79185 z" />
        <path
           style="fill:#7fff2a;fill-opacity:1;stroke:none;stroke-width:0.9;stroke-opacity:1"
           id="path22863-6-1-7"
           d="m 1116.1032,691.66157 c 0.3191,0.46353 0.6083,0.95442 0.8733,1.45166 0.2011,0.44381 0.5441,0.78989 0.8227,1.17992 0.2227,0.46541 0.2662,0.97242 0.283,1.48128 0.048,0.75278 0.064,1.50647 0.094,2.26012 0.094,0.99801 0.01,2.00018 0,2.99981 0.058,1.08091 0.081,2.16149 0.039,3.24294 -0.076,0.80035 -0.1007,1.60347 -0.082,2.40707 0.067,0.88223 0.033,1.76743 0.037,2.65106 0.033,0.87432 0.1647,1.7395 0.2275,2.61107 0.01,0.44772 0.1236,0.91878 0.034,1.36479 -0.044,0.21997 -0.1284,0.4302 -0.1833,0.64778 -0.045,0.11606 -0.078,0.23776 -0.1353,0.34818 -0.1035,0.19853 -0.3151,0.44411 -0.4474,0.62108 -0.2294,0.30665 -0.4266,0.6287 -0.6246,0.95592 -0.4528,0.6763 -0.6272,1.45456 -0.6659,2.2568 0.076,1.07842 0.1484,2.15977 0.2999,3.23092 0.3159,1.0304 0.6783,2.04617 0.8336,3.11538 0.093,0.74908 0.064,1.50479 0.1072,2.25686 -0.014,0.11893 -0.012,0.24076 -0.042,0.35677 -0.072,0.28362 -0.2235,0.50866 -0.3691,0.75827 -0.2659,0.45581 -0.5437,0.90445 -0.8145,1.35732 -0.136,0.333 -0.2861,0.62297 -0.3062,0.99244 -0.042,0.77464 0.3089,1.93998 0.4735,2.71565 0.4656,1.27459 0.7762,2.61357 0.9498,3.95944 0.077,0.26547 0.014,0.54866 0.068,0.81628 0.028,0.13839 0.2463,0.74236 0.2876,0.88926 0.1059,0.3769 0.1118,0.50039 0.1679,0.88285 0.1188,0.79243 0.088,1.5935 0.1439,2.3908 0.1904,0.98435 0.049,0.1943 0.2154,1.34059 0.043,0.29884 0.1045,0.59527 0.1375,0.89543 0.094,0.85583 0.084,1.71689 0.065,2.5757 0.031,1.12694 -0.047,2.25207 -0.063,3.37817 -0.052,0.90635 0.071,1.80356 0.1453,2.70531 0.2787,1.16301 0.4787,2.34528 0.5468,3.53999 0.052,0.56352 0.071,1.13199 0.063,1.69794 0,0.25549 -0.012,0.684 -0.089,0.94235 -0.032,0.10629 -0.099,0.19882 -0.148,0.29823 -0.1704,0.25316 -0.1936,0.55476 -0.3926,0.79107 -0.056,0.0666 -0.1431,0.10526 -0.1909,0.17797 -0.5289,0.80528 0.2907,-0.17105 -0.3043,0.50321 -0.4644,0.83659 -1.0141,1.6216 -1.4519,2.47246 -0.2005,0.66273 -0.822,1.14868 -0.9606,1.83257 -0.027,0.13469 -0.023,0.27391 -0.034,0.41087 0,0.46327 -0.049,0.94786 0.029,1.40818 0.036,0.20973 0.1045,0.41247 0.1606,0.61768 0.1696,0.62058 0.2356,0.81614 0.4289,1.44332 0.098,0.29383 0.1987,0.5868 0.2942,0.88147 0.3195,0.98563 0.276,0.96879 0.6721,1.93241 0.1234,0.30015 0.2678,0.59125 0.395,0.88979 0.2821,0.66174 0.345,0.85457 0.588,1.51059 0.435,0.9007 0.6994,1.86701 1.0532,2.79826 0.1786,0.47013 0.3842,0.92956 0.5713,1.39641 0.2367,0.65393 0.3872,1.32714 0.4748,2.01555 0.058,0.45819 0.1091,0.62864 -0.012,1.06605 -0.044,0.15887 -0.1241,0.30537 -0.1862,0.45806 -0.2934,0.48154 -0.6522,0.90445 -1.0474,1.30372 -0.1418,0.14326 -0.2982,0.27256 -0.4307,0.42444 -0.4147,0.47543 -0.4895,0.67423 -0.8125,1.23609 -0.121,0.24351 -0.2616,0.47826 -0.363,0.73053 -0.1638,0.40716 -0.3536,1.17891 -0.4631,1.60414 -0.1843,0.71531 -0.295,1.24547 -0.3456,1.98015 0.012,0.171 0.024,0.342 0.037,0.513 0,0 12.9602,-6.75612 12.9602,-6.75612 v 0 c -0.013,-0.0974 -0.026,-0.19482 -0.039,-0.29222 -7e-4,-1.25935 0.4272,-2.41257 1.1863,-3.41914 0.6717,-0.79135 0.3251,-0.40231 1.0403,-1.1667 0.6058,-0.70964 1.0236,-1.54115 1.2376,-2.44901 0.029,-0.56898 0.069,-0.82081 -0.02,-1.39885 -0.052,-0.34081 -0.2575,-0.93725 -0.3557,-1.25792 -0.3403,-1.1114 -0.091,-0.37093 -0.4815,-1.46979 -0.5024,-1.43232 -1.0584,-2.84312 -1.6792,-4.22848 -0.7833,-1.66813 -1.7587,-3.04922 -1.8086,-4.98145 -0.033,-0.28682 -0.1365,-1.08731 -0.134,-1.41494 0,-0.5681 0.1096,-1.15353 0.3225,-1.6792 0.3717,-0.5935 0.6264,-1.2397 0.9598,-1.85422 0.523,-0.84979 1.0881,-1.67131 1.6643,-2.48576 0.057,-0.11965 0.1091,-0.24206 0.1718,-0.35894 0.046,-0.0846 0.115,-0.15617 0.1522,-0.24472 0.044,-0.10486 0.061,-0.21923 0.089,-0.32939 0.087,-0.33741 0.1812,-0.675 0.1852,-1.0262 -0.03,-1.06537 -0.1761,-2.12529 -0.2231,-3.19037 -0.059,-0.40509 -0.09,-0.81398 -0.1509,-1.21869 -0.1163,-0.76722 -0.343,-1.51973 -0.2704,-2.30789 -0.023,-0.89235 -0.065,-1.78129 -0.076,-2.67382 -0.041,-1.09743 -0.18,-2.18891 -0.2896,-3.28095 -0.2558,-1.63366 -0.3654,-3.28681 -0.063,-4.92503 0.01,-0.29397 0.022,-0.59946 0,-0.89375 -0.047,-0.57832 -0.1707,-1.15165 -0.2665,-1.72268 -0.2179,-0.86524 -0.3378,-1.75212 -0.6105,-2.60303 -0.2754,-0.77649 -0.5412,-1.55562 -0.7784,-2.34478 -0.071,-0.23642 -0.1551,-0.46958 -0.2091,-0.71047 -0.055,-0.24514 -0.078,-0.49634 -0.1169,-0.74451 -0.098,-0.59061 -0.1995,-1.1942 -0.063,-1.79084 0.093,-0.40631 0.3667,-0.75535 0.5364,-1.1278 0.505,-1.02303 1.0362,-2.04455 1.0119,-3.2206 0,-0.84255 -0.1265,-1.61409 -0.3685,-2.42225 -0.1514,-0.54234 -0.2606,-1.09568 -0.4098,-1.63753 -0.1307,-0.47476 -0.3287,-0.93398 -0.3545,-1.43469 -0.1844,-0.98513 -0.2602,-1.91063 0.053,-2.88496 0.2075,-0.66249 0.4847,-1.15365 0.8765,-1.72776 0.4543,-0.73894 0.8354,-1.5003 0.9699,-2.37005 0.1382,-0.82184 0.1,-1.63525 -0.035,-2.45635 -0.143,-0.79419 -0.2207,-1.60319 -0.2221,-2.4099 0,-0.89607 -0.03,-1.79356 0.036,-2.68833 0.018,-0.77578 0,-1.55136 -0.082,-2.3235 -0.045,-1.09431 -0.015,-2.18789 0.041,-3.28172 -0.01,-1.0007 -0.093,-2.00353 6e-4,-3.00275 0.027,-0.82064 0.052,-1.6431 -0.016,-2.4627 -0.119,-0.72769 -0.1897,-1.48624 -0.4964,-2.16268 -0.057,-0.0912 -0.1071,-0.1871 -0.1712,-0.27347 -0.2122,-0.28606 -0.558,-0.45872 -0.6957,-0.80773 -0.2902,-0.45307 -0.5647,-0.91619 -0.6711,-1.45194 0,0 -12.9845,7.39315 -12.9845,7.39315 z" />
        <path
           style="fill:#7fff2a;fill-opacity:1;stroke:none;stroke-width:0.9;stroke-opacity:1"
           id="path22865-8-2-2"
           d="m 1114.9062,780.93059 c 0.4993,0.85885 0.5285,1.86633 0.4959,2.83306 0.013,0.45705 -0.045,0.91219 -0.062,1.36777 -0.016,0.4441 0.018,0.88735 0.01,1.33201 -0.057,0.76176 -0.059,1.5197 -0.049,2.28264 0.019,0.81803 0.025,1.63397 0.065,2.45198 0.082,0.86151 0.5113,1.62161 0.761,2.43749 0.03,0.12753 0.059,0.25505 0.089,0.38257 0,0 12.8168,-6.97719 12.8168,-6.97719 v 0 c -0.046,-0.14378 -0.092,-0.28756 -0.1387,-0.43134 -0.1406,-0.39969 -0.3015,-0.79556 -0.3815,-1.21331 -0.068,-0.35646 -0.034,-0.34538 -0.079,-0.71905 -0.01,-0.0844 -0.03,-0.16739 -0.044,-0.25109 -0.095,-0.77086 -0.058,-1.55516 -0.034,-2.32941 0.012,-0.74549 0.017,-1.4865 -0.029,-2.23132 -0.01,-0.90879 0.06,-1.81662 -0.042,-2.72452 -0.061,-0.57422 -0.091,-1.15883 -0.184,-1.72892 -0.085,-0.52265 -0.2434,-1.03664 -0.246,-1.57206 0,0 -12.9459,7.09069 -12.9459,7.09069 z" />
        <path
           style="fill:#7fff2a;fill-opacity:1;stroke:none;stroke-width:0.9;stroke-opacity:1"
           id="path22867-4-3-8"
           d="m 1114.6297,782.22414 c 1.0401,1.18505 1.4233,2.71772 1.8223,4.20272 0.2761,0.96358 0.258,1.96268 0.3598,2.94904 0.011,0.50429 0.063,1.01704 0.03,1.52182 -0.01,0.0863 -0.026,0.17088 -0.04,0.25631 -0.01,0.10061 -0.012,0.20123 -0.019,0.30184 -0.031,0.61675 0.053,1.2282 0.073,1.84325 0.01,0.20998 -0.01,1.01159 -0.01,1.22056 0.1054,0.58983 -0.031,1.20425 0.054,1.79392 0.032,0.22096 0.1114,0.43246 0.1606,0.65022 0.1378,0.60978 0.134,0.65754 0.226,1.26675 0.03,0.1965 0.026,0.40114 0.09,0.5895 0.036,0.10678 0.6675,1.32819 0.7116,1.41403 0.3847,0.74758 0.8225,1.45683 1.2369,2.18803 0.2175,0.47798 0.8568,1.52755 0.7484,2.07749 -0.011,0.0584 -0.3391,0.5319 -0.3473,0.544 -0.3775,0.34172 -0.6076,0.7827 -0.8562,1.21686 -0.099,0.17249 -0.214,0.33587 -0.3026,0.5138 -0.1046,0.21018 -0.1744,0.43634 -0.2759,0.64809 -0.1063,0.22184 -0.2311,0.43431 -0.3467,0.65147 -0.3717,0.96026 -0.8102,1.9163 -1.0197,2.9307 -0.1088,0.52682 -0.1157,0.8859 -0.1532,1.42146 -0.1115,0.99106 -0.029,1.98595 -0.012,2.97803 0.01,0.53596 -0.01,1.07206 -0.01,1.6081 0,0.2554 -0.018,0.511 -0.01,0.7662 0.01,0.25191 0.049,0.50185 0.069,0.75322 0.07,0.91413 0.1281,1.82973 0.1955,2.74417 0.1789,1.38932 0.3902,2.77081 0.5098,4.16722 0.044,0.53059 0.011,0.28512 0.089,0.73762 0,0 12.9636,-7.28233 12.9636,-7.28233 v 0 c -0.182,-0.0975 -0.083,-0.0228 -0.2487,-0.27755 -0.1563,-0.53556 -0.3451,-1.06594 -0.4655,-1.61126 -0.1643,-0.74424 -0.2164,-1.5019 -0.2071,-2.26293 -0.053,-1.38789 -0.2291,-2.76148 -0.3128,-4.14715 0,-0.52838 -0.019,-1.05704 0,-1.58515 0.031,-0.96942 0.1354,-1.9384 0.222,-2.90382 0.2495,-1.34229 0.5994,-2.66956 1.335,-3.838 0.3559,-0.63538 0.7516,-1.23253 1.1493,-1.84208 0.1911,-0.29292 0.463,-0.67446 0.6059,-0.99674 0.085,-0.19112 0.1358,-0.39541 0.2038,-0.59311 0.076,-0.57831 0.1487,-0.70064 -0.011,-1.28604 -0.05,-0.18283 -0.1451,-0.35043 -0.2288,-0.52045 -0.2986,-0.60682 -0.7081,-1.13916 -1.0665,-1.71018 -0.5552,-0.83546 -1.0706,-1.73953 -1.3412,-2.71474 -0.054,-0.19364 -0.071,-0.39578 -0.1152,-0.59178 -0.039,-0.17286 -0.09,-0.34281 -0.1354,-0.51422 -0.083,-0.43347 -0.1649,-0.79508 -0.2022,-1.23671 -0.016,-0.1907 -0.01,-0.38278 -0.016,-0.57391 -0.029,-0.55862 -0.1271,-1.11387 -0.082,-1.67519 0,-0.29995 0.01,-0.91486 0.033,-1.21337 0.05,-0.65216 0.1786,-1.29713 0.2345,-1.94871 0.039,-0.74427 -0.1244,-1.46198 -0.2347,-2.19497 -0.094,-1.07325 -0.2626,-2.162 -0.7318,-3.14192 -0.4613,-1.07188 -1.2546,-2.49374 -1.1588,-3.68181 0.012,-0.14465 0.108,-0.26943 0.162,-0.40414 0,0 -13.3298,6.79184 -13.3298,6.79184 z" />
        <path
           style="fill:#7fff2a;fill-opacity:1;stroke:none;stroke-width:0.9;stroke-opacity:1"
           id="path22869-9-6-9"
           d="m 1084.2488,807.48225 c -0.2212,1.00299 -0.4777,2.00175 -0.734,2.99793 -0.1673,0.65516 -0.4055,1.29304 -0.6399,1.92767 0,0 13.3361,-6.35512 13.3361,-6.35512 v 0 c 0.1086,-0.5899 0.1536,-1.18712 0.2651,-1.77633 0.2646,-1.06141 0.6947,-2.07171 1.2374,-3.02137 0,0 -13.4647,6.22722 -13.4647,6.22722 z" />
        <path
           style="fill:#7fff2a;fill-opacity:1;stroke:none;stroke-width:0.9;stroke-opacity:1"
           id="path22871-4-9-2"
           d="m 1103.199,635.15623 c -0.03,-0.0881 -0.061,-0.17584 -0.09,-0.26434 -0.135,-0.41593 -0.1766,-0.53545 -0.2709,-0.97029 -0.057,-0.26087 -0.1117,-0.68292 -0.1971,-0.9384 -0.058,-0.17375 -0.1435,-0.33712 -0.2153,-0.50568 -0.263,-0.54465 -0.4637,-1.12914 -0.8693,-1.59161 -0.2103,-0.23979 -0.4507,-0.45159 -0.6683,-0.68473 -0.6121,-0.68305 -1.3783,-1.23407 -2.1697,-1.69337 -0.6169,-0.36524 -1.3208,-0.44326 -2.0196,-0.50474 -0.6164,-0.0286 -1.2333,-0.005 -1.85,-0.0189 -0.5193,0.012 -1.0386,-0.0823 -1.5534,-0.0177 -5.451,0.58149 -1.132,0.19167 -13.5179,7.42641 -0.079,0.0464 -0.3412,0.67412 -0.4074,0.79558 -0.3254,0.31935 -0.2113,0.69258 -0.3737,1.05779 -0.074,0.16635 -0.1853,0.3136 -0.2724,0.47347 -0.3249,0.58219 -0.4066,1.22644 -0.4222,1.88127 0.01,0.1189 0.025,0.50909 0.059,0.63706 0.1413,0.53373 0.6451,1.24239 0.952,1.70577 0.5546,0.83221 0.8981,1.76984 1.0848,2.74738 0.068,0.57622 0.042,0.29073 0.08,0.8564 0,0 12.8873,-6.78275 12.8873,-6.78275 v 0 c -0.122,-0.63169 -0.053,-0.31185 -0.2078,-0.9592 -0.089,-0.31503 -0.2079,-0.75741 -0.323,-1.06228 -0.2602,-0.68958 -0.6202,-1.34579 -0.9788,-1.98711 -0.2396,-0.59524 -0.4479,-1.05155 -0.3156,-1.69672 0.1273,-0.49649 0.3492,-0.94529 0.6007,-1.39086 0.051,-0.10454 0.1069,-0.20698 0.1536,-0.31361 0.04,-0.092 0.1571,-0.44565 0.2373,-0.54708 0.1027,-0.12994 0.3927,-0.27309 0.4581,-0.45249 0.1756,-0.14729 0.149,-0.15609 0.3711,-0.22063 0.08,-0.0233 0.317,-0.0931 0.2448,-0.0515 -4.1546,2.39632 -8.3244,4.76634 -12.5025,7.12153 -0.078,0.0437 0.122,-0.13133 0.1943,-0.1834 0.072,-0.0521 0.157,-0.0842 0.2355,-0.12631 0.082,-0.0263 0.1636,-0.0526 0.2455,-0.0789 0.053,-0.0392 0.098,-0.097 0.1605,-0.11764 0.068,-0.0223 0.1431,-0.003 0.2146,-0.005 0.2532,-0.007 0.5064,-0.0169 0.7595,-0.0259 0.6141,-0.0201 1.2282,-0.0127 1.8423,-0.0289 0.5889,-0.0246 1.1849,-0.0607 1.7708,0.0162 0.7631,0.17019 1.3842,0.56013 1.9124,1.13791 0.5079,0.51788 0.9782,1.07909 1.2744,1.74841 0.2495,0.82077 0.464,1.54661 0.18,2.39522 0,0 13.3063,-6.77991 13.3063,-6.77991 z" />
        <path
           style="fill:#7fff2a;fill-opacity:1;stroke:none;stroke-width:0.9;stroke-opacity:1"
           id="path22873-9-7-4"
           d="m 1094.043,633.17049 c -0.5712,-0.30924 -1.1443,-0.58771 -1.7739,-0.75398 -0.483,-0.10118 -0.9823,-0.21893 -1.4761,-0.13637 -0.054,0.0287 -0.047,0.18626 0.03,0.12278 0.033,-0.0271 0.066,-0.25406 0.067,-0.26142 0.01,-0.0622 0.026,-0.12383 0.026,-0.18664 0.032,-4.96652 -9.0726,4.06286 -13.4586,6.39322 -0.067,0.0359 0.055,0.14315 0.072,0.21775 0.015,0.0662 0.015,0.1348 0.022,0.2022 0.04,0.5953 0.068,1.19005 0.1976,1.77372 0.1812,0.59819 0.551,1.11839 0.9179,1.61721 0.324,0.49079 0.7488,0.90575 1.0654,1.39803 0.2786,0.58302 0.4863,1.19596 0.6205,1.82763 0.1558,0.52293 0.3378,1.03652 0.4836,1.56258 0.171,0.44957 0.2478,0.9191 0.2637,1.39728 0.04,0.42872 0,0.8492 -0.069,1.27144 -0.2299,0.59856 -0.1873,1.1565 -0.1985,1.78321 0.085,0.4282 0.084,0.87789 0.1764,1.30434 0.09,0.41619 0.2652,0.80599 0.4551,1.18347 0.4451,0.55403 0.8223,1.15365 1.1181,1.79932 0.2464,0.63796 0.2308,1.33381 0.2107,2.0063 -0.063,0.29625 0,0.70287 -0.046,0.99411 -0.012,0.0818 -0.056,0.15554 -0.082,0.2341 -0.07,0.21444 -0.1027,0.33719 -0.1643,0.55468 -0.1436,0.50605 -0.1729,1.03646 -0.1659,1.56017 -0.035,0.68055 0.1272,1.34227 0.1888,2.01521 0.1093,0.41254 0.065,0.85269 0.1409,1.26845 0.069,0.37637 0.2355,0.73838 0.3657,1.09615 0.2596,0.49785 0.5483,0.98151 0.7913,1.48778 0.1314,0.35504 0.1384,0.74439 0.1143,1.11802 -0.015,0.32685 -0.023,0.66788 -0.1596,0.97309 -0.1453,0.32536 -0.4142,0.63017 -0.615,0.9217 -0.231,0.32679 -0.5014,0.63365 -0.7205,0.96861 -0.2168,0.33149 -0.3828,0.69494 -0.5991,1.02859 -0.063,0.25972 -0.2552,0.45638 -0.3546,0.69755 -0.051,0.12407 -0.066,0.26059 -0.1127,0.38645 -0.2576,0.69649 -0.032,-0.0412 -0.328,0.62592 -0.054,0.12126 -0.083,0.25215 -0.1239,0.37823 -0.2678,0.69692 -0.4395,1.42292 -0.4826,2.1676 -0.036,0.62572 -0.057,1.25786 0.031,1.8792 0.1608,0.77943 0.604,1.45857 0.9737,2.15298 0.3319,0.87823 0.6168,1.77683 0.8138,2.69706 0.058,0.61483 0.3924,1.14018 0.5839,1.71213 0.096,0.28778 0.1146,0.44188 0.1687,0.73489 0.041,0.39103 0.1047,0.7949 0.083,1.18994 -0.01,0.14169 -0.067,0.38335 -0.096,0.51794 -0.2331,0.57647 -0.5705,1.08798 -0.95,1.57748 -0.1471,0.1465 -0.1724,0.35915 -0.2781,0.52744 -0.04,0.0631 -0.1136,0.10067 -0.1505,0.16546 -0.1198,0.21043 -0.1418,0.50921 -0.1764,0.74317 -0.2075,0.62188 -0.114,1.10167 0.012,1.72861 0.1094,0.67544 0.5369,1.21977 0.7754,1.8433 0.2325,0.48865 0.277,1.0181 0.3038,1.54914 -0.014,0.48411 0.038,0.97499 0.178,1.43939 0.115,0.3611 0.3284,0.61211 0.574,0.89288 0,0 12.5895,-7.89836 12.5895,-7.89836 v 0 c -0.032,0.20309 -0.053,-0.005 -0.081,-0.0637 -0.059,-0.40904 -0.1221,-0.81548 -0.1628,-1.2273 -0.1023,-0.64604 -0.3048,-1.2674 -0.5372,-1.87767 -0.2016,-0.48707 -0.5201,-0.9425 -0.5834,-1.47199 0.031,-0.44322 0.2462,-0.84258 0.379,-1.26342 0.086,-0.13795 0.2196,-0.26626 0.2953,-0.40696 0.037,-0.0684 0.046,-0.14907 0.08,-0.21871 0.072,-0.1471 0.1983,-0.26411 0.2567,-0.4197 0.3244,-0.67339 0.5724,-1.37441 0.6437,-2.12509 0.048,-0.74975 -0.049,-1.48171 -0.2918,-2.19531 -0.1498,-0.4206 -0.289,-0.84746 -0.4462,-1.2651 -0.084,-0.22436 -0.1987,-0.43688 -0.2813,-0.66193 -0.05,-0.13725 -0.09,-0.27836 -0.1343,-0.41754 -0.2746,-0.99329 -0.5084,-1.99864 -0.8812,-2.96094 -0.22,-0.58138 -0.514,-1.15799 -0.5728,-1.78175 0.016,-0.54265 0.025,-1.08606 0.096,-1.62522 0.1264,-0.60843 0.2959,-1.20344 0.5839,-1.75798 0.3409,-0.61887 0.5623,-1.29929 0.9838,-1.87518 0.4028,-0.68067 0.9037,-1.29804 1.2461,-2.01575 0.072,-0.14624 0.1532,-0.28824 0.2158,-0.43873 0.2874,-0.69184 0.3335,-1.4483 0.3921,-2.1856 9e-4,-0.64418 -0.087,-1.27616 -0.3912,-1.85442 -0.264,-0.43304 -0.5649,-0.84545 -0.7865,-1.30261 -0.2776,-0.58058 -0.3906,-1.21848 -0.4379,-1.85853 -0.027,-0.6646 0.086,-1.31775 0.117,-1.98099 0.053,-0.4423 0.1216,-0.87889 0.2063,-1.31646 0.097,-0.67851 0.1135,-1.36093 0.012,-2.04077 -0.087,-0.9055 -0.072,-1.85222 -0.4114,-2.70632 -0.3799,-0.5705 -0.8427,-1.09299 -1.1369,-1.71397 -0.032,-0.061 -0.196,-0.36426 -0.2201,-0.43973 -0.135,-0.42261 -0.1421,-0.89148 -0.065,-1.32326 0.08,-0.60275 0.2841,-1.1746 0.3262,-1.78403 0.042,-0.53205 0.014,-1.05974 -0.055,-1.58899 -0.1005,-0.53293 -0.2454,-1.04902 -0.422,-1.56153 -0.143,-0.53064 -0.3254,-1.04529 -0.5149,-1.56081 -0.2402,-0.70916 -0.5428,-1.40109 -0.8704,-2.07375 -0.1213,-0.24749 -0.2186,-0.50774 -0.3596,-0.74455 -0.1811,-0.30413 -0.4643,-0.5533 -0.6741,-0.83614 -0.2246,-0.35187 -0.4754,-0.68917 -0.5944,-1.09611 -0.066,-0.49267 -0.045,-0.98515 0.064,-1.47178 0.017,-0.0584 0.018,-0.12366 0.051,-0.17521 0.023,-0.0363 0.1432,-0.0929 0.105,-0.0738 -10.0489,5.04394 -13.372,2.84248 -13.3849,6.98303 0.05,0.77849 0.3298,1.36386 0.9372,1.86787 0.2288,0.1011 0.3207,0.16417 0.571,0.1895 0.3476,0.0352 0.7081,-0.0564 1.0569,-0.0144 0.4411,0.017 0.9247,0.0227 1.2726,0.33196 0,0 12.5722,-8.04983 12.5722,-8.04983 z" />
        <path
           style="fill:#7fff2a;fill-opacity:1;stroke:none;stroke-width:0.9;stroke-opacity:1"
           id="path22875-8-8-6"
           d="m 1105.6592,690.63516 c -0.2308,-0.0779 -0.4725,-0.1289 -0.6924,-0.23372 -1.1168,-0.53235 -2.0192,-1.59062 -2.9675,-2.37554 -0.5897,-0.51152 -1.1727,-1.02821 -1.8332,-1.44706 -0.4433,-0.26398 -0.9667,-0.4282 -1.4857,-0.39906 -0.477,0.0163 -0.9337,-0.19305 -1.4067,-0.27979 -5.3268,-0.9249 -12.4601,2.48801 -14.2199,7.63628 -0.045,0.35802 -0.2942,0.62366 -0.4132,0.95066 -0.074,0.20286 -0.082,0.28788 -0.1229,0.49838 -0.192,0.39478 -0.2218,0.84217 -0.2038,1.27423 0.011,0.49449 0.025,0.98755 0.038,1.48235 0.059,0.601 0.2438,1.17462 0.4039,1.75423 0.037,0.43924 0.2345,0.82772 0.3728,1.23862 0.086,0.25465 0.1538,0.51497 0.2382,0.77007 0.1781,0.61322 0.2254,1.25039 0.2603,1.88459 0.07,0.68755 -0.019,1.37948 0.033,2.06601 0.034,0.5717 0.2876,1.09366 0.4092,1.64969 0.096,0.53686 0.063,1.08316 0.064,1.62516 0.029,0.51252 0.01,0.88864 -0.196,1.35968 -0.031,0.0674 -0.068,0.13201 -0.092,0.20206 -0.3068,0.89335 0.1455,-0.27749 -0.1847,0.66536 -0.035,0.10112 -0.091,0.19442 -0.1266,0.29543 -0.047,0.13213 -0.1401,0.50916 -0.1754,0.647 -0.094,0.22042 -0.063,0.46342 -0.116,0.69095 -0.017,0.0723 -0.258,0.72503 -0.2748,0.7766 -0.051,0.15563 -0.1879,0.65077 -0.234,0.81516 -0.063,0.33155 -0.1924,0.69021 -0.1795,1.03347 0.014,0.38266 0.1571,0.88215 0.2539,1.2535 0.1727,0.6777 0.6415,1.15999 1.0373,1.70846 0.1869,0.25907 0.4328,0.65373 0.6057,0.92546 0.4129,0.60639 0.7295,1.26842 0.891,1.98368 0.058,0.62 0.15,1.3077 0.01,1.91987 -0.048,0.1767 -0.041,0.36509 -0.088,0.54179 -0.019,0.0721 -0.063,0.13604 -0.085,0.20745 -0.075,0.24353 -0.1054,0.50901 -0.1454,0.75981 -0.092,0.48065 -0.2723,0.93699 -0.3769,1.41243 -0.035,0.11034 -0.07,0.22078 -0.1055,0.33102 -0.039,0.11991 -0.071,0.24194 -0.1168,0.35943 -0.055,0.14178 -0.2316,0.47203 -0.2697,0.62306 -0.062,0.24627 -0.067,0.50361 -0.1043,0.75479 -0.012,0.12342 -0.01,0.24876 -0.035,0.37025 -0.02,0.0984 -0.073,0.18749 -0.098,0.28469 -0.1285,0.501 -0.2128,1.0141 -0.3121,1.52199 -0.062,0.58875 -0.1448,1.179 -0.029,1.76706 0.077,0.39142 0.1634,0.57838 0.3003,0.94452 0.2685,0.67861 0.7749,1.2062 1.185,1.7975 0.2893,0.54036 0.3091,1.15016 0.3517,1.74699 0.026,0.68622 0,1.37295 -0.025,2.05882 -0.01,0.28854 -0.03,0.57856 -0.029,0.86739 4e-4,0.0967 0.027,0.19444 0.012,0.28998 -0.011,0.0718 -0.063,0.13129 -0.09,0.19875 -0.032,0.0786 -0.057,0.15933 -0.086,0.23899 -0.1784,0.57607 -0.1342,1.19319 -0.1922,1.7884 -0.043,0.33803 -0.1453,0.67507 -0.2709,0.99189 -0.038,0.0967 -0.097,0.1845 -0.1354,0.28118 -0.078,0.19599 -0.1328,0.40042 -0.2056,0.59833 -0.1705,0.32099 -0.129,0.69593 -0.214,1.03479 -0.059,0.23405 -0.2065,0.43898 -0.2694,0.67193 -0.036,0.13468 -0.046,0.27515 -0.07,0.41272 -0.067,0.77893 -0.2146,1.58817 -0.036,2.36493 0.044,0.19205 0.1203,0.37535 0.1804,0.56303 0.2599,0.71785 0.4626,1.45159 0.6825,2.181 0.1761,0.24178 0.2321,0.55422 0.3762,0.81029 0.071,0.12559 0.1599,0.23979 0.2398,0.35968 0,0 12.7042,-7.64555 12.7042,-7.64555 v 0 c -0.021,10e-4 -0.05,0.0201 -0.063,0.004 -0.1524,-0.19217 -0.2211,-0.46423 -0.3342,-0.67884 -0.27,-0.64336 -0.6095,-1.25685 -0.8189,-1.92246 -0.083,-0.78871 0.014,-1.58172 0.2722,-2.33301 0.1445,-0.37457 0.2168,-0.74341 0.3305,-1.12631 0.096,-0.32377 0.2677,-0.62122 0.3466,-0.95093 0.2148,-0.70098 0.3627,-1.41276 0.4583,-2.14091 0.05,-0.38913 0.094,-0.78483 0.1909,-1.16613 0.022,-0.0874 0.058,-0.17124 0.078,-0.25913 0.02,-0.0873 0.029,-0.17685 0.043,-0.26527 0.061,-0.61293 0.037,-1.23269 0.02,-1.84789 -0.018,-0.7116 -0.04,-1.42212 -0.087,-2.13305 -0.066,-0.81848 -0.248,-1.6167 -0.6613,-2.33603 -0.068,-0.13048 -0.1261,-0.2669 -0.2047,-0.39144 -0.2598,-0.41215 -0.6504,-0.74024 -0.8657,-1.18315 -0.032,-0.0831 -0.072,-0.16315 -0.094,-0.24924 -0.143,-0.56005 0.101,-1.17215 0.1769,-1.72325 0.1547,-0.73518 0.3963,-1.45025 0.5078,-2.19466 0.1881,-0.65408 -0.036,0.0676 0.2161,-0.57682 0.1739,-0.44482 0.2455,-0.92804 0.4441,-1.36511 0.209,-0.52883 0.3095,-1.08646 0.3997,-1.64688 0.097,-0.53962 0.1884,-1.07384 0.1722,-1.62586 -0.059,-0.75869 -0.1194,-1.51408 -0.316,-2.25329 -0.1172,-0.43651 -0.2431,-0.88327 -0.4712,-1.27873 -0.2256,-0.39111 -0.5695,-0.70785 -0.8116,-1.08753 -0.5088,-0.66914 -0.9473,-1.38909 -1.1808,-2.20342 -0.022,-0.20503 -0.054,-0.37932 -0.023,-0.58588 0.014,-0.0961 0.056,-0.18632 0.076,-0.28131 0.058,-0.2693 0.086,-0.54644 0.1621,-0.81262 0.2035,-0.78193 0.46,-1.54949 0.7162,-2.31494 0.1964,-0.64216 0.4212,-1.27382 0.617,-1.91515 0.055,-0.55415 -8e-4,-1.10331 -8e-4,-1.6592 -0.025,-0.62525 -0.1058,-1.24781 -0.209,-1.86466 -0.1034,-0.48936 -0.2978,-0.95579 -0.3238,-1.46048 -0.043,-0.68342 -0.05,-1.36686 -0.073,-2.051 -0.067,-0.7429 -0.2346,-1.41483 -0.4964,-2.1146 -0.068,-0.25721 -0.1508,-0.5103 -0.2122,-0.76905 -0.1006,-0.42456 -0.085,-0.87034 -0.2379,-1.28369 -0.1215,-0.46554 -0.2294,-0.93514 -0.2039,-1.41988 0.012,-0.46175 0.012,-0.92376 0.1015,-1.37912 0.1027,-0.32308 0.2469,-0.62579 0.3592,-0.94486 0.1018,-0.14605 0.2168,-0.28294 0.3167,-0.43004 0.078,-0.11469 0.1492,-0.27118 0.2651,-0.35885 0.051,-0.0385 0.1163,-0.0527 0.1745,-0.0791 4.9642,-0.84406 0.5498,-0.11941 -12.3088,7.17551 -0.1436,0.0815 0.2013,-0.26807 0.3351,-0.36469 0.152,-0.10968 0.2512,-0.12478 0.4241,-0.17697 0.4767,0.009 0.9445,0.0505 1.3742,0.28157 0.087,0.0222 0.1717,0.0563 0.2608,0.0666 0.3271,0.0377 0.6647,-0.0881 0.9921,-0.032 0.4489,0.097 -0.071,-0.0277 0.4795,0.15648 0.099,0.0331 0.2036,0.0475 0.3024,0.0809 0.4633,0.15658 0.8878,0.405 1.2973,0.66795 0.9792,0.63483 2.2256,1.39466 2.9174,2.34506 0.1194,0.16405 0.188,0.35963 0.282,0.53945 0,0 12.5547,-7.94076 12.5547,-7.94076 z" />
        <path
           style="fill:#7fff2a;fill-opacity:1;stroke:none;stroke-width:0.9;stroke-opacity:1"
           id="path22877-6-2-9"
           d="m 1098.4335,743.2212 c -5.1536,0.83335 -0.4227,0.038 -13.185,7.45764 -0.2243,0.13043 -0.3821,0.71711 -0.4361,0.951 -0.012,0.0895 -0.036,0.17826 -0.035,0.26851 0,0.11788 0.033,0.23364 0.042,0.35122 0.033,0.45808 0.049,0.91487 0.038,1.37451 -0.068,0.49035 0.093,0.97891 0.059,1.46886 -0.01,0.11837 -0.1322,0.63808 -0.1571,0.74681 -0.041,0.5884 -0.1877,1.16017 -0.2618,1.74408 -0.024,0.19078 -0.029,0.38448 -0.067,0.57303 -0.039,0.1938 -0.1083,0.38021 -0.1625,0.57032 -0.063,0.21864 -0.1303,0.4359 -0.1879,0.65591 -0.061,0.23214 -0.1041,0.46871 -0.1673,0.70021 -0.1829,0.6701 -0.4266,1.31521 -0.5328,2.00574 -0.037,0.23884 -0.049,0.48078 -0.074,0.72116 -0.083,0.96704 -0.2792,1.94488 -0.01,2.90116 0.084,0.29685 0.2168,0.57774 0.324,0.86706 0.1035,0.27917 0.2053,0.55894 0.3079,0.83841 0.4974,1.09481 0.9949,2.19261 1.2619,3.36901 0.01,0.081 0.08,0.68427 0.073,0.77052 -0.045,0.57719 -0.5797,1.14176 -0.953,1.52994 -0.1446,0.14277 -0.2837,0.29136 -0.4338,0.42832 -0.1505,0.13737 -0.317,0.25657 -0.4675,0.39404 -0.473,0.43203 -0.4666,0.4741 -0.8998,0.96858 -0.6792,0.7753 -0.2767,0.25454 -0.8752,1.09549 -0.1147,0.19243 -0.2484,0.37471 -0.344,0.57729 -0.099,0.2088 -0.1608,0.43293 -0.2358,0.65128 -0.2918,0.84932 -0.4536,1.73302 -0.5415,2.62501 -0.024,0.71335 0,1.43148 0.1741,2.12793 0.068,0.27389 0.1662,0.53933 0.2515,0.80829 0.091,0.28639 0.1847,0.57182 0.277,0.85773 0.097,0.30737 0.1944,0.61475 0.2916,0.92212 0.3169,0.86344 0.4561,1.76652 0.6092,2.66719 0.051,0.29761 0.2293,1.193 0.2711,1.49781 0.033,0.23889 0.047,0.47996 0.071,0.71994 0.078,1.31708 0.1109,2.63525 0.1632,3.95341 0.01,1.10917 0.1208,2.21396 0.087,3.3243 -0.024,0.77996 -0.056,0.86408 -0.1618,1.61487 -0.1914,1.06935 -0.6087,2.09803 -1.2484,2.98071 -0.1217,0.16795 -0.2632,0.32061 -0.3949,0.48092 -0.6297,0.76512 -0.1503,0.1457 -0.7121,0.97902 -0.081,0.11976 -0.6414,0.89893 -0.713,1.01019 -0.1638,0.25453 -0.5762,0.98865 -0.7202,1.24197 -0.7321,1.34736 -0.9164,2.89959 -1.0132,4.40823 0.07,0.69745 0.028,0.52297 0.1839,1.17666 0.038,0.15808 0.058,0.3227 0.1233,0.47177 0.091,0.21044 0.2284,0.39805 0.3415,0.59766 0.1641,0.28955 0.6126,1.09001 0.7733,1.37664 0.5442,0.95037 0.9718,1.95246 1.0996,3.04414 0.01,0.54554 0.1593,1.08334 0.1141,1.6308 -0.015,0.1794 -0.1365,0.65982 -0.1781,0.83419 -0.019,0.14701 -0.025,0.29613 -0.057,0.44104 -0.028,0.12824 -0.083,0.24903 -0.119,0.3751 -0.1285,0.44705 -0.255,0.89028 -0.4114,1.32904 -0.1955,0.56178 -0.3431,1.15381 -0.3781,1.75025 -0.024,0.41624 0.024,0.65747 0.075,1.06649 0.2403,0.72947 0.4985,1.46762 1.0953,1.98868 0.4633,0.4045 0.6317,0.40956 1.2086,0.63411 0.8136,0.21936 1.6721,0.43327 2.5238,0.35046 0.5493,-0.0534 0.9578,-0.18384 1.4872,-0.32368 1.0759,-0.30749 2.1131,-0.72622 3.1703,-1.08966 0.992,-0.32556 2.0346,-0.60215 3.09,-0.51637 0.3449,0.028 0.6827,0.11315 1.0241,0.16972 0.9048,0.24126 1.8153,0.51808 2.6765,0.89118 0.6174,0.26744 1.2705,0.64374 1.8695,0.96037 0.1953,0.0865 0.3844,0.18845 0.5858,0.25953 0.7612,0.26871 1.8594,0.50002 2.6689,0.53592 0.2293,0.0102 0.4591,-0.005 0.6887,-0.007 1.5285,-0.11307 2.983,-0.61869 4.3915,-1.194 1.4389,-0.55197 2.804,-1.27163 4.2449,-1.81653 1.4842,-0.64796 2.8668,-0.74057 4.4504,-0.74591 5.4277,-0.1119 6.594,-3.28727 13.7418,-7.40808 0.2683,-0.15466 0.5082,-0.42573 0.7299,-0.63895 0.2222,-0.31477 0.1138,-0.16223 0.3252,-0.45774 0,0 -13.6703,5.72829 -13.6703,5.72829 v 0 c -0.2256,0.18085 -0.1064,0.0995 -0.3576,0.24389 -3.7118,2.48993 -18.132,10.11676 11.5688,-6.54907 0.1248,-0.0701 -0.2017,0.20873 -0.3261,0.27975 -0.1482,0.0847 -0.3196,0.12014 -0.4794,0.18021 -1.0538,0.26195 -2.1351,0.38099 -3.22,0.43343 -0.2834,0.0137 -0.5692,-0.0219 -0.8509,0.0111 -0.2469,0.0289 -0.4836,0.11575 -0.7254,0.17362 -0.7414,0.2691 -1.5041,0.51384 -2.2235,0.83924 -0.2278,0.10306 -0.4425,0.23338 -0.6687,0.34003 -0.4498,0.21206 -0.9181,0.38309 -1.366,0.59941 -1.336,0.52542 -2.6216,1.21458 -4.0479,1.47479 -0.3273,0.0518 -0.832,0.14374 -1.1678,0.15047 -0.8076,0.0162 -1.6185,-0.14784 -2.3921,-0.36076 -1.0407,-0.35664 -2.044,-0.81496 -3.0851,-1.17005 -0.316,-0.10777 -0.6399,-0.19078 -0.9588,-0.28967 -0.3335,-0.10342 -0.6655,-0.21149 -0.9982,-0.31723 -0.319,-0.11366 -0.6398,-0.22221 -0.9569,-0.34099 -0.2805,-0.10508 -0.5495,-0.2419 -0.8356,-0.33051 -0.7093,-0.21966 -1.4449,-0.14515 -2.1643,-0.0294 -0.7462,0.17932 -1.4744,0.44475 -2.179,0.74962 -0.2127,0.092 -0.4153,0.20659 -0.6291,0.29588 -0.2186,0.0913 -0.4447,0.16353 -0.6671,0.2453 -1.1561,0.40801 -2.102,0.80643 -3.3583,0.56238 -0.8613,-0.16506 -1.1562,-0.25818 -1.2732,-1.22018 0.01,-0.84467 0.3321,-1.57771 0.6205,-2.35893 0.2192,-0.7656 0.3132,-1.54886 0.398,-2.33877 0.018,-0.50836 3e-4,-1.00943 -0.01,-1.51748 -0.01,-0.48767 0.03,-0.97622 -0.1523,-1.44219 -0.1152,-0.31924 -0.2138,-0.60943 -0.3531,-0.92121 -0.3492,-0.78153 -0.8594,-1.47726 -1.2885,-2.21483 -0.2234,-0.46727 -0.4094,-0.79527 -0.5389,-1.29741 -0.05,-0.19181 -0.052,-0.39305 -0.092,-0.58709 -0.082,-0.39855 -0.2553,-0.77893 -0.2471,-1.19485 0,-1.42151 0.3712,-2.46066 1.1531,-3.64856 0.7495,-1.09869 1.5837,-2.13895 2.2928,-3.26505 0.6445,-1.26587 1.2223,-2.5908 1.1682,-4.04317 -0.01,-0.84101 -0.025,-1.68287 -0.011,-2.52386 0.031,-1.82037 0.017,-0.004 0.076,-1.77308 0.01,-0.25345 0,-0.50715 0.01,-0.76073 0.028,-1.37793 0.036,-2.77071 -0.2563,-4.12519 -0.1003,-0.51091 -0.1786,-1.02635 -0.2942,-1.53401 -0.2597,-1.14048 -0.7565,-2.21623 -0.9769,-3.36873 -0.3262,-1.43748 -0.6122,-2.912 -0.3578,-4.38605 0.032,-0.155 0.1962,-0.96071 0.2467,-1.12179 0.2365,-0.75571 0.6415,-1.43368 1.1468,-2.03863 0.3104,-0.35034 0.5428,-0.62143 0.8748,-0.95785 0.6342,-0.64253 1.3342,-1.22229 1.7984,-2.01307 0.1131,-0.21013 0.2408,-0.41305 0.3394,-0.63039 0.4217,-0.92977 0.499,-1.94202 0.1627,-2.90783 -0.055,-0.17281 -0.097,-0.35019 -0.165,-0.51843 -0.3885,-0.96565 -1.201,-1.71259 -1.5437,-2.70475 -0.08,-0.24918 -0.1839,-0.49207 -0.2414,-0.74754 -0.23,-1.02276 -0.041,-2.28379 0.093,-3.31234 0.3114,-1.33 0.651,-2.65395 1.0608,-3.95747 0.2931,-1.05772 0.5765,-2.11273 0.708,-3.20484 0.052,-0.80452 0.074,-1.61332 0.1005,-2.41784 0,-0.31759 0.01,-0.89726 0.1819,-1.17432 0.037,-0.0594 0.1879,-0.16186 0.2517,-0.20779 0.1596,-0.079 0.3206,-0.13734 0.488,-0.19771 0.071,-0.0254 0.2759,-0.11476 0.211,-0.0774 -12.6915,7.30765 -15.6637,10.9106 -12.4782,7.07906 0,0 11.8073,-9.17303 11.8073,-9.17303 z" />
      </g>
    </mask>
  </defs>
  <g
     inkscape:label="Layer 1"
     inkscape:groupmode="layer"
     id="layer1">
    <g
       inkscape:label="Image"
       id="g441"
       transform="rotate(60,372.55374,84.000005)"
       inkscape:transform-center-x="115.18138"
       inkscape:transform-center-y="-189.49999"
       inkscape:export-filename="/home/jonathanpc/Documentos/Clase/3A/SO/proyecto-catan-SO/cliente/Media/Images/CarreteraOesteMorado.png"
       inkscape:export-xdpi="96"
       inkscape:export-ydpi="96">
      <g
         id="g2104" />
      <g
         id="g23865-6-2-5"
         transform="matrix(1.0200227,-0.00756431,0.00756836,1.0194772,-881.24588,-398.16933)"
         inkscape:transform-center-x="221.70251"
         inkscape:transform-center-y="5">
        <rect
           style="fill:#b7c8be;fill-opacity:1;stroke:none;stroke-width:0.9;stroke-opacity:1"
           id="rect22681-7-8-1"
           width="112.5"
           height="252.5"
           x="1054.5"
           y="546.5"
           mask="url(#mask22857-1-5-9)"
           transform="matrix(1.2026153,0,0,1.0449021,-220.29669,-28.487306)" />
        <g
           id="g21301-2-7-8-9"
           transform="translate(8.01022,-57.6604)"
           style="fill:#6f916f;fill-opacity:1;stroke:none;stroke-opacity:1">
          <path
             style="fill:#6f916f;fill-opacity:1;stroke:none;stroke-width:1px;stroke-linecap:butt;stroke-linejoin:miter;stroke-opacity:1"
             d="m 1083,634 c 9,153.5 -2.5,189 -2.5,189 l 49,-1 -3.5,-189 z"
             id="path20948-0-7-8-1" />
          <path
             style="fill:#6f916f;fill-opacity:1;stroke:none;stroke-width:0.9;stroke-opacity:1"
             id="path21189-3-9-2-0"
             d="m 1090.1292,632.1662 c 0.025,-0.3079 -0.035,-0.65977 0.1402,-0.93663 0.062,-0.098 0.4479,-0.44045 0.5151,-0.50206 4.5337,-2.00574 8.1565,-4.64249 -11.2087,6.64417 -0.132,0.077 0.2591,-0.16327 0.3953,-0.23281 0.3473,-0.17743 0.9639,-0.37007 1.264,-0.47512 2.1598,-0.51545 4.3543,-0.86498 6.5653,-1.05951 0.8124,-0.0292 1.6242,-0.0315 2.4363,-0.0666 0.1233,0.004 0.2505,-0.0191 0.3701,0.0114 0.2008,0.0513 0.3899,0.14251 0.5776,0.23046 0.9607,0.45008 1.7993,1.07513 2.6477,1.7021 0.7626,0.6019 1.5592,1.15983 2.3414,1.73634 0.5832,0.47792 1.3092,0.46976 2.0021,0.68577 0.9508,0.35854 2.0018,0.33209 3.002,0.26929 1.0475,-0.0552 2.0623,-0.3302 3.0715,-0.59394 0.7402,-0.19343 1.4811,-0.38409 2.2215,-0.5764 1.5975,-0.35327 3.2202,-0.59715 4.7903,-1.06528 0.9431,-0.23554 1.8355,-0.62304 2.703,-1.05554 0.5689,-0.3577 1.1667,-0.63823 1.8208,-0.79501 0.4574,-0.10674 0.9253,-0.10137 1.3912,-0.11422 0.3475,-0.0444 0.7688,0.12198 1.0789,-0.0793 0.2516,-0.1135 0.3725,0.16918 0.4908,0.33755 0.186,0.29631 0.21,0.65564 0.235,0.99646 0,0.40306 0.048,0.82623 -0.018,1.22723 -0.011,0.0692 -0.043,0.13367 -0.064,0.20051 -0.013,0.0817 -0.026,0.16345 -0.039,0.24518 -0.117,0.70351 -0.4015,1.35849 -0.5718,2.04902 -0.1028,0.19656 -0.1425,0.41667 -0.2261,0.6202 -0.041,0.10066 -0.1062,0.19101 -0.1434,0.29326 -0.1265,0.34742 -0.1928,0.73491 -0.2564,1.09765 -0.1168,0.70281 -0.1081,1.40871 -0.071,2.11692 0.011,0.47622 -0.04,0.95512 -0.019,1.43104 8e-4,0.0196 0.075,0.6851 0.079,0.72122 -0.01,0.51623 0.1168,1.01594 0.1771,1.52492 0.095,0.53461 0.1681,1.06932 0.2283,1.61029 0.069,0.41566 -0.016,0.85462 0.054,1.26848 0.026,0.15555 0.086,0.30377 0.1197,0.45796 0.032,0.14772 0.051,0.29795 0.077,0.44692 0.041,0.92201 0.4056,1.75575 0.7022,2.61296 0.1233,0.45889 0.3107,0.92886 0.2973,1.4136 -0.01,0.19505 -0.065,0.38476 -0.094,0.57778 -0.3895,0.76895 -0.9446,1.4325 -1.5192,2.07091 -0.6102,0.80244 -1.1184,1.68372 -1.6346,2.5499 -0.3209,0.69351 -0.7568,1.37173 -0.8817,2.14028 -0.022,0.13858 -0.018,0.28025 -0.026,0.42037 0.034,0.87125 -0.034,1.74215 -0.031,2.61295 0.063,0.67233 -0.052,1.35661 0.035,2.02698 0.018,0.14027 0.054,0.27759 0.082,0.41639 0.083,0.79904 0.4491,1.51624 0.7632,2.243 0.3533,0.61961 0.5907,1.28487 0.819,1.95708 0.1945,0.71575 0.2441,1.45969 0.2614,2.19801 0,0.54411 0.054,1.09333 0.01,1.63696 -0.013,0.15783 -0.081,0.54017 -0.1079,0.69812 -0.2333,0.61566 -0.4677,1.25533 -0.8598,1.78865 -0.2836,0.4291 -0.3663,0.91547 -0.4835,1.40346 -0.089,0.36976 -0.1658,0.58503 -0.2821,0.94475 -0.1848,0.42113 -0.3322,0.85947 -0.5172,1.28031 -0.1574,0.35791 -0.2844,0.58284 -0.3834,0.96798 0,0.34926 -0.2693,0.64977 -0.2693,0.99904 0,0.21443 0.058,0.42495 0.08,0.63827 0.024,0.10858 0.041,0.21898 0.072,0.32575 0.3283,1.1312 -0.066,-0.39849 0.2035,0.62527 0.076,0.2886 0.1229,0.58221 0.1955,0.87191 0.1407,0.61792 0.3858,1.19677 0.6303,1.77863 0.412,0.68877 0.6418,1.33871 0.7451,2.13364 0.054,0.39601 0.1623,0.77857 0.2794,1.15928 0,0 12.8808,-7.14798 12.8808,-7.14798 v 0 c -0.1367,-0.28713 -0.2253,-0.58527 -0.2829,-0.89931 -0.2177,-0.81261 -0.4083,-1.63714 -0.7451,-2.41021 -0.18,-0.52187 -0.4085,-1.02857 -0.5371,-1.56653 -0.09,-0.53052 -0.2727,-1.05708 -0.2472,-1.59693 0.062,-0.42103 -0.026,-0.007 0.1148,-0.33805 0.117,-0.27563 0.1016,-0.59245 0.2237,-0.86647 0.2748,-0.69793 0.4193,-1.44185 0.6956,-2.14049 0.086,-0.26871 0.1947,-0.63426 0.3145,-0.89151 0.2132,-0.45757 0.5243,-0.86629 0.7205,-1.33333 0.2365,-0.75064 0.5851,-1.47313 0.5853,-2.2794 0,-0.82773 -0.03,-1.65503 -0.046,-2.48256 -0.064,-0.85498 -0.1446,-1.70574 -0.4293,-2.52135 -0.2113,-0.75 -0.5006,-1.47015 -0.8642,-2.15985 -0.2961,-0.58478 -0.4856,-1.19849 -0.5743,-1.84974 -0.049,-0.74885 -0.069,-1.49918 -0.042,-2.24962 0.01,-0.7941 -0.064,-1.60798 0.1843,-2.37627 0.2672,-0.69441 0.5352,-1.39081 0.9596,-2.00976 0.2708,-0.42662 0.5374,-0.85598 0.8363,-1.26386 0.4595,-0.62695 0.1839,-0.22955 0.6767,-0.83641 0.093,-0.11495 0.1795,-0.23549 0.2693,-0.35323 0.5661,-0.88439 1.1287,-1.7921 1.2203,-2.86562 0.01,-0.39529 0.027,-0.53237 -0.044,-0.93477 -0.093,-0.5212 -0.3166,-1.09078 -0.5204,-1.57613 -0.1371,-0.34002 -0.1913,-0.42981 -0.2655,-0.78779 -0.1067,-0.51474 -0.1499,-1.04489 -0.2745,-1.55702 -0.081,-0.72164 0.023,-1.4549 -0.091,-2.178 -0.049,-0.60825 -0.1288,-1.21028 -0.1463,-1.82128 -0.1138,-0.42981 -0.2479,-0.85346 -0.2709,-1.30187 -0.046,-0.66161 -0.03,-1.32511 -0.038,-1.98775 0.052,-0.62014 0.093,-1.24947 0.2547,-1.85238 0.2069,-0.65476 0.4943,-1.28196 0.6331,-1.95766 0.2217,-0.72739 0.3767,-1.46841 0.54,-2.21054 0.021,-0.12814 0.055,-0.25484 0.062,-0.38442 0.01,-0.10137 -0.015,-0.20249 -0.023,-0.30376 -0.031,-0.42641 -0.064,-0.85297 -0.076,-1.28044 -0.045,-0.69781 -0.057,-1.13919 -0.4611,-1.73636 -0.2807,-0.46083 -0.5725,-0.9114 -1.0227,-1.22821 -0.1797,-0.10811 -0.2931,-0.20092 -0.5021,-0.23851 -0.2845,-0.0512 -0.5964,0.0506 -0.883,0.003 -0.5264,-0.0167 -1.0545,-0.0148 -1.5807,-0.005 -0.7673,0.0473 -1.5536,0.13912 -2.2526,0.47902 -0.2783,0.15638 -0.5434,0.3357 -0.8232,0.48953 -0.1518,0.0835 -0.3139,0.14679 -0.4683,0.22538 -0.4811,0.24487 -0.9348,0.54675 -1.4607,0.69412 -2.6195,0.937 1.5698,-0.5733 -1.353,0.52445 -1.2546,0.47124 -2.57,0.72818 -3.8701,1.03754 -1.5353,0.30247 -3.072,0.59791 -4.6035,0.91936 -0.8367,0.0737 -1.6467,0.20555 -2.4759,-0.0163 -0.3626,-0.0939 -0.7126,-0.22681 -1.0762,-0.31592 -0.491,-0.12034 -0.033,0.004 -0.4778,-0.058 -0.089,-0.0124 -0.1753,-0.0387 -0.2629,-0.0581 -0.9461,-0.33 -1.7657,-0.92083 -2.6618,-1.35916 -0.4382,-0.26548 -0.8912,-0.5073 -1.3183,-0.79036 -0.812,-0.53821 -1.4936,-1.22627 -2.2169,-1.87118 -0.144,-0.0517 -0.2835,-0.11847 -0.432,-0.15513 -0.3195,-0.0788 -0.532,-0.0573 -0.8567,-0.037 -0.6295,0.0395 -1.2535,0.13066 -1.8777,0.21808 -0.8775,0.12989 -1.0288,0.1412 -1.9379,0.32581 -1.5186,0.30837 -3.0387,0.7331 -4.6029,0.68175 -0.2244,-0.0292 -0.4469,-0.0861 -0.6731,-0.0876 -0.08,-5.2e-4 -0.9324,0.15443 -0.9983,0.19168 -4.3081,2.43499 -8.5914,4.91452 -12.8498,7.4354 -0.1505,0.0891 -0.2524,0.24415 -0.3582,0.38336 -0.1062,0.13968 -0.1832,0.29936 -0.2748,0.44904 -0.3417,0.77269 -0.5105,1.56364 -0.6123,2.39881 0,0 13.3297,-6.79185 13.3297,-6.79185 z" />
          <path
             style="fill:#6f916f;fill-opacity:1;stroke:none;stroke-width:0.9;stroke-opacity:1"
             id="path21191-0-0-8-8"
             d="m 1116.1032,691.66157 c 0.3191,0.46353 0.6083,0.95442 0.8733,1.45166 0.2011,0.44381 0.5441,0.78989 0.8227,1.17992 0.2227,0.46541 0.2662,0.97242 0.283,1.48128 0.048,0.75278 0.064,1.50647 0.094,2.26012 0.094,0.99801 0.01,2.00018 0,2.99981 0.058,1.08091 0.081,2.16149 0.039,3.24294 -0.076,0.80035 -0.1007,1.60347 -0.082,2.40707 0.067,0.88223 0.033,1.76743 0.037,2.65106 0.033,0.87432 0.1647,1.7395 0.2275,2.61107 0.01,0.44772 0.1236,0.91878 0.034,1.36479 -0.044,0.21997 -0.1284,0.4302 -0.1833,0.64778 -0.045,0.11606 -0.078,0.23776 -0.1353,0.34818 -0.1035,0.19853 -0.3151,0.44411 -0.4474,0.62108 -0.2294,0.30665 -0.4266,0.6287 -0.6246,0.95592 -0.4528,0.6763 -0.6272,1.45456 -0.6659,2.2568 0.076,1.07842 0.1484,2.15977 0.2999,3.23092 0.3159,1.0304 0.6783,2.04617 0.8336,3.11538 0.093,0.74908 0.064,1.50479 0.1072,2.25686 -0.014,0.11893 -0.012,0.24076 -0.042,0.35677 -0.072,0.28362 -0.2235,0.50866 -0.3691,0.75827 -0.2659,0.45581 -0.5437,0.90445 -0.8145,1.35732 -0.136,0.333 -0.2861,0.62297 -0.3062,0.99244 -0.042,0.77464 0.3089,1.93998 0.4735,2.71565 0.4656,1.27459 0.7762,2.61357 0.9498,3.95944 0.077,0.26547 0.014,0.54866 0.068,0.81628 0.028,0.13839 0.2463,0.74236 0.2876,0.88926 0.1059,0.3769 0.1118,0.50039 0.1679,0.88285 0.1188,0.79243 0.088,1.5935 0.1439,2.3908 0.1904,0.98435 0.049,0.1943 0.2154,1.34059 0.043,0.29884 0.1045,0.59527 0.1375,0.89543 0.094,0.85583 0.084,1.71689 0.065,2.5757 0.031,1.12694 -0.047,2.25207 -0.063,3.37817 -0.052,0.90635 0.071,1.80356 0.1453,2.70531 0.2787,1.16301 0.4787,2.34528 0.5468,3.53999 0.052,0.56352 0.071,1.13199 0.063,1.69794 0,0.25549 -0.012,0.684 -0.089,0.94235 -0.032,0.10629 -0.099,0.19882 -0.148,0.29823 -0.1704,0.25316 -0.1936,0.55476 -0.3926,0.79107 -0.056,0.0666 -0.1431,0.10526 -0.1909,0.17797 -0.5289,0.80528 0.2907,-0.17105 -0.3043,0.50321 -0.4644,0.83659 -1.0141,1.6216 -1.4519,2.47246 -0.2005,0.66273 -0.822,1.14868 -0.9606,1.83257 -0.027,0.13469 -0.023,0.27391 -0.034,0.41087 0,0.46327 -0.049,0.94786 0.029,1.40818 0.036,0.20973 0.1045,0.41247 0.1606,0.61768 0.1696,0.62058 0.2356,0.81614 0.4289,1.44332 0.098,0.29383 0.1987,0.5868 0.2942,0.88147 0.3195,0.98563 0.276,0.96879 0.6721,1.93241 0.1234,0.30015 0.2678,0.59125 0.395,0.88979 0.2821,0.66174 0.345,0.85457 0.588,1.51059 0.435,0.9007 0.6994,1.86701 1.0532,2.79826 0.1786,0.47013 0.3842,0.92956 0.5713,1.39641 0.2367,0.65393 0.3872,1.32714 0.4748,2.01555 0.058,0.45819 0.1091,0.62864 -0.012,1.06605 -0.044,0.15887 -0.1241,0.30537 -0.1862,0.45806 -0.2934,0.48154 -0.6522,0.90445 -1.0474,1.30372 -0.1418,0.14326 -0.2982,0.27256 -0.4307,0.42444 -0.4147,0.47543 -0.4895,0.67423 -0.8125,1.23609 -0.121,0.24351 -0.2616,0.47826 -0.363,0.73053 -0.1638,0.40716 -0.3536,1.17891 -0.4631,1.60414 -0.1843,0.71531 -0.295,1.24547 -0.3456,1.98015 0.012,0.171 0.024,0.342 0.037,0.513 0,0 12.9602,-6.75612 12.9602,-6.75612 v 0 c -0.013,-0.0974 -0.026,-0.19482 -0.039,-0.29222 -7e-4,-1.25935 0.4272,-2.41257 1.1863,-3.41914 0.6717,-0.79135 0.3251,-0.40231 1.0403,-1.1667 0.6058,-0.70964 1.0236,-1.54115 1.2376,-2.44901 0.029,-0.56898 0.069,-0.82081 -0.02,-1.39885 -0.052,-0.34081 -0.2575,-0.93725 -0.3557,-1.25792 -0.3403,-1.1114 -0.091,-0.37093 -0.4815,-1.46979 -0.5024,-1.43232 -1.0584,-2.84312 -1.6792,-4.22848 -0.7833,-1.66813 -1.7587,-3.04922 -1.8086,-4.98145 -0.033,-0.28682 -0.1365,-1.08731 -0.134,-1.41494 0,-0.5681 0.1096,-1.15353 0.3225,-1.6792 0.3717,-0.5935 0.6264,-1.2397 0.9598,-1.85422 0.523,-0.84979 1.0881,-1.67131 1.6643,-2.48576 0.057,-0.11965 0.1091,-0.24206 0.1718,-0.35894 0.046,-0.0846 0.115,-0.15617 0.1522,-0.24472 0.044,-0.10486 0.061,-0.21923 0.089,-0.32939 0.087,-0.33741 0.1812,-0.675 0.1852,-1.0262 -0.03,-1.06537 -0.1761,-2.12529 -0.2231,-3.19037 -0.059,-0.40509 -0.09,-0.81398 -0.1509,-1.21869 -0.1163,-0.76722 -0.343,-1.51973 -0.2704,-2.30789 -0.023,-0.89235 -0.065,-1.78129 -0.076,-2.67382 -0.041,-1.09743 -0.18,-2.18891 -0.2896,-3.28095 -0.2558,-1.63366 -0.3654,-3.28681 -0.063,-4.92503 0.01,-0.29397 0.022,-0.59946 0,-0.89375 -0.047,-0.57832 -0.1707,-1.15165 -0.2665,-1.72268 -0.2179,-0.86524 -0.3378,-1.75212 -0.6105,-2.60303 -0.2754,-0.77649 -0.5412,-1.55562 -0.7784,-2.34478 -0.071,-0.23642 -0.1551,-0.46958 -0.2091,-0.71047 -0.055,-0.24514 -0.078,-0.49634 -0.1169,-0.74451 -0.098,-0.59061 -0.1995,-1.1942 -0.063,-1.79084 0.093,-0.40631 0.3667,-0.75535 0.5364,-1.1278 0.505,-1.02303 1.0362,-2.04455 1.0119,-3.2206 0,-0.84255 -0.1265,-1.61409 -0.3685,-2.42225 -0.1514,-0.54234 -0.2606,-1.09568 -0.4098,-1.63753 -0.1307,-0.47476 -0.3287,-0.93398 -0.3545,-1.43469 -0.1844,-0.98513 -0.2602,-1.91063 0.053,-2.88496 0.2075,-0.66249 0.4847,-1.15365 0.8765,-1.72776 0.4543,-0.73894 0.8354,-1.5003 0.9699,-2.37005 0.1382,-0.82184 0.1,-1.63525 -0.035,-2.45635 -0.143,-0.79419 -0.2207,-1.60319 -0.2221,-2.4099 0,-0.89607 -0.03,-1.79356 0.036,-2.68833 0.018,-0.77578 0,-1.55136 -0.082,-2.3235 -0.045,-1.09431 -0.015,-2.18789 0.041,-3.28172 -0.01,-1.0007 -0.093,-2.00353 6e-4,-3.00275 0.027,-0.82064 0.052,-1.6431 -0.016,-2.4627 -0.119,-0.72769 -0.1897,-1.48624 -0.4964,-2.16268 -0.057,-0.0912 -0.1071,-0.1871 -0.1712,-0.27347 -0.2122,-0.28606 -0.558,-0.45872 -0.6957,-0.80773 -0.2902,-0.45307 -0.5647,-0.91619 -0.6711,-1.45194 0,0 -12.9845,7.39315 -12.9845,7.39315 z" />
          <path
             style="fill:#6f916f;fill-opacity:1;stroke:none;stroke-width:0.9;stroke-opacity:1"
             id="path21197-1-7-6-9"
             d="m 1114.9062,780.93059 c 0.4993,0.85885 0.5285,1.86633 0.4959,2.83306 0.013,0.45705 -0.045,0.91219 -0.062,1.36777 -0.016,0.4441 0.018,0.88735 0.01,1.33201 -0.057,0.76176 -0.059,1.5197 -0.049,2.28264 0.019,0.81803 0.025,1.63397 0.065,2.45198 0.082,0.86151 0.5113,1.62161 0.761,2.43749 0.03,0.12753 0.059,0.25505 0.089,0.38257 0,0 12.8168,-6.97719 12.8168,-6.97719 v 0 c -0.046,-0.14378 -0.092,-0.28756 -0.1387,-0.43134 -0.1406,-0.39969 -0.3015,-0.79556 -0.3815,-1.21331 -0.068,-0.35646 -0.034,-0.34538 -0.079,-0.71905 -0.01,-0.0844 -0.03,-0.16739 -0.044,-0.25109 -0.095,-0.77086 -0.058,-1.55516 -0.034,-2.32941 0.012,-0.74549 0.017,-1.4865 -0.029,-2.23132 -0.01,-0.90879 0.06,-1.81662 -0.042,-2.72452 -0.061,-0.57422 -0.091,-1.15883 -0.184,-1.72892 -0.085,-0.52265 -0.2434,-1.03664 -0.246,-1.57206 0,0 -12.9459,7.09069 -12.9459,7.09069 z" />
          <path
             style="fill:#6f916f;fill-opacity:1;stroke:none;stroke-width:0.9;stroke-opacity:1"
             id="path21199-3-4-2-3"
             d="m 1114.6297,782.22414 c 1.0401,1.18505 1.4233,2.71772 1.8223,4.20272 0.2761,0.96358 0.258,1.96268 0.3598,2.94904 0.011,0.50429 0.063,1.01704 0.03,1.52182 -0.01,0.0863 -0.026,0.17088 -0.04,0.25631 -0.01,0.10061 -0.012,0.20123 -0.019,0.30184 -0.031,0.61675 0.053,1.2282 0.073,1.84325 0.01,0.20998 -0.01,1.01159 -0.01,1.22056 0.1054,0.58983 -0.031,1.20425 0.054,1.79392 0.032,0.22096 0.1114,0.43246 0.1606,0.65022 0.1378,0.60978 0.134,0.65754 0.226,1.26675 0.03,0.1965 0.026,0.40114 0.09,0.5895 0.036,0.10678 0.6675,1.32819 0.7116,1.41403 0.3847,0.74758 0.8225,1.45683 1.2369,2.18803 0.2175,0.47798 0.8568,1.52755 0.7484,2.07749 -0.011,0.0584 -0.3391,0.5319 -0.3473,0.544 -0.3775,0.34172 -0.6076,0.7827 -0.8562,1.21686 -0.099,0.17249 -0.214,0.33587 -0.3026,0.5138 -0.1046,0.21018 -0.1744,0.43634 -0.2759,0.64809 -0.1063,0.22184 -0.2311,0.43431 -0.3467,0.65147 -0.3717,0.96026 -0.8102,1.9163 -1.0197,2.9307 -0.1088,0.52682 -0.1157,0.8859 -0.1532,1.42146 -0.1115,0.99106 -0.029,1.98595 -0.012,2.97803 0.01,0.53596 -0.01,1.07206 -0.01,1.6081 0,0.2554 -0.018,0.511 -0.01,0.7662 0.01,0.25191 0.049,0.50185 0.069,0.75322 0.07,0.91413 0.1281,1.82973 0.1955,2.74417 0.1789,1.38932 0.3902,2.77081 0.5098,4.16722 0.044,0.53059 0.011,0.28512 0.089,0.73762 0,0 12.9636,-7.28233 12.9636,-7.28233 v 0 c -0.182,-0.0975 -0.083,-0.0228 -0.2487,-0.27755 -0.1563,-0.53556 -0.3451,-1.06594 -0.4655,-1.61126 -0.1643,-0.74424 -0.2164,-1.5019 -0.2071,-2.26293 -0.053,-1.38789 -0.2291,-2.76148 -0.3128,-4.14715 0,-0.52838 -0.019,-1.05704 0,-1.58515 0.031,-0.96942 0.1354,-1.9384 0.222,-2.90382 0.2495,-1.34229 0.5994,-2.66956 1.335,-3.838 0.3559,-0.63538 0.7516,-1.23253 1.1493,-1.84208 0.1911,-0.29292 0.463,-0.67446 0.6059,-0.99674 0.085,-0.19112 0.1358,-0.39541 0.2038,-0.59311 0.076,-0.57831 0.1487,-0.70064 -0.011,-1.28604 -0.05,-0.18283 -0.1451,-0.35043 -0.2288,-0.52045 -0.2986,-0.60682 -0.7081,-1.13916 -1.0665,-1.71018 -0.5552,-0.83546 -1.0706,-1.73953 -1.3412,-2.71474 -0.054,-0.19364 -0.071,-0.39578 -0.1152,-0.59178 -0.039,-0.17286 -0.09,-0.34281 -0.1354,-0.51422 -0.083,-0.43347 -0.1649,-0.79508 -0.2022,-1.23671 -0.016,-0.1907 -0.01,-0.38278 -0.016,-0.57391 -0.029,-0.55862 -0.1271,-1.11387 -0.082,-1.67519 0,-0.29995 0.01,-0.91486 0.033,-1.21337 0.05,-0.65216 0.1786,-1.29713 0.2345,-1.94871 0.039,-0.74427 -0.1244,-1.46198 -0.2347,-2.19497 -0.094,-1.07325 -0.2626,-2.162 -0.7318,-3.14192 -0.4613,-1.07188 -1.2546,-2.49374 -1.1588,-3.68181 0.012,-0.14465 0.108,-0.26943 0.162,-0.40414 0,0 -13.3298,6.79184 -13.3298,6.79184 z" />
          <path
             style="fill:#6f916f;fill-opacity:1;stroke:none;stroke-width:0.9;stroke-opacity:1"
             id="path21201-6-3-6-3"
             d="m 1084.2488,807.48225 c -0.2212,1.00299 -0.4777,2.00175 -0.734,2.99793 -0.1673,0.65516 -0.4055,1.29304 -0.6399,1.92767 0,0 13.3361,-6.35512 13.3361,-6.35512 v 0 c 0.1086,-0.5899 0.1536,-1.18712 0.2651,-1.77633 0.2646,-1.06141 0.6947,-2.07171 1.2374,-3.02137 0,0 -13.4647,6.22722 -13.4647,6.22722 z" />
          <path
             style="fill:#6f916f;fill-opacity:1;stroke:none;stroke-width:0.9;stroke-opacity:1"
             id="path21203-5-6-2-4"
             d="m 1103.199,635.15623 c -0.03,-0.0881 -0.061,-0.17584 -0.09,-0.26434 -0.135,-0.41593 -0.1766,-0.53545 -0.2709,-0.97029 -0.057,-0.26087 -0.1117,-0.68292 -0.1971,-0.9384 -0.058,-0.17375 -0.1435,-0.33712 -0.2153,-0.50568 -0.263,-0.54465 -0.4637,-1.12914 -0.8693,-1.59161 -0.2103,-0.23979 -0.4507,-0.45159 -0.6683,-0.68473 -0.6121,-0.68305 -1.3783,-1.23407 -2.1697,-1.69337 -0.6169,-0.36524 -1.3208,-0.44326 -2.0196,-0.50474 -0.6164,-0.0286 -1.2333,-0.005 -1.85,-0.0189 -0.5193,0.012 -1.0386,-0.0823 -1.5534,-0.0177 -5.451,0.58149 -1.132,0.19167 -13.5179,7.42641 -0.079,0.0464 -0.3412,0.67412 -0.4074,0.79558 -0.3254,0.31935 -0.2113,0.69258 -0.3737,1.05779 -0.074,0.16635 -0.1853,0.3136 -0.2724,0.47347 -0.3249,0.58219 -0.4066,1.22644 -0.4222,1.88127 0.01,0.1189 0.025,0.50909 0.059,0.63706 0.1413,0.53373 0.6451,1.24239 0.952,1.70577 0.5546,0.83221 0.8981,1.76984 1.0848,2.74738 0.068,0.57622 0.042,0.29073 0.08,0.8564 0,0 12.8873,-6.78275 12.8873,-6.78275 v 0 c -0.122,-0.63169 -0.053,-0.31185 -0.2078,-0.9592 -0.089,-0.31503 -0.2079,-0.75741 -0.323,-1.06228 -0.2602,-0.68958 -0.6202,-1.34579 -0.9788,-1.98711 -0.2396,-0.59524 -0.4479,-1.05155 -0.3156,-1.69672 0.1273,-0.49649 0.3492,-0.94529 0.6007,-1.39086 0.051,-0.10454 0.1069,-0.20698 0.1536,-0.31361 0.04,-0.092 0.1571,-0.44565 0.2373,-0.54708 0.1027,-0.12994 0.3927,-0.27309 0.4581,-0.45249 0.1756,-0.14729 0.149,-0.15609 0.3711,-0.22063 0.08,-0.0233 0.317,-0.0931 0.2448,-0.0515 -4.1546,2.39632 -8.3244,4.76634 -12.5025,7.12153 -0.078,0.0437 0.122,-0.13133 0.1943,-0.1834 0.072,-0.0521 0.157,-0.0842 0.2355,-0.12631 0.082,-0.0263 0.1636,-0.0526 0.2455,-0.0789 0.053,-0.0392 0.098,-0.097 0.1605,-0.11764 0.068,-0.0223 0.1431,-0.003 0.2146,-0.005 0.2532,-0.007 0.5064,-0.0169 0.7595,-0.0259 0.6141,-0.0201 1.2282,-0.0127 1.8423,-0.0289 0.5889,-0.0246 1.1849,-0.0607 1.7708,0.0162 0.7631,0.17019 1.3842,0.56013 1.9124,1.13791 0.5079,0.51788 0.9782,1.07909 1.2744,1.74841 0.2495,0.82077 0.464,1.54661 0.18,2.39522 0,0 13.3063,-6.77991 13.3063,-6.77991 z" />
          <path
             style="fill:#6f916f;fill-opacity:1;stroke:none;stroke-width:0.9;stroke-opacity:1"
             id="path21205-2-1-8-7"
             d="m 1094.043,633.17049 c -0.5712,-0.30924 -1.1443,-0.58771 -1.7739,-0.75398 -0.483,-0.10118 -0.9823,-0.21893 -1.4761,-0.13637 -0.054,0.0287 -0.047,0.18626 0.03,0.12278 0.033,-0.0271 0.066,-0.25406 0.067,-0.26142 0.01,-0.0622 0.026,-0.12383 0.026,-0.18664 0.032,-4.96652 -9.0726,4.06286 -13.4586,6.39322 -0.067,0.0359 0.055,0.14315 0.072,0.21775 0.015,0.0662 0.015,0.1348 0.022,0.2022 0.04,0.5953 0.068,1.19005 0.1976,1.77372 0.1812,0.59819 0.551,1.11839 0.9179,1.61721 0.324,0.49079 0.7488,0.90575 1.0654,1.39803 0.2786,0.58302 0.4863,1.19596 0.6205,1.82763 0.1558,0.52293 0.3378,1.03652 0.4836,1.56258 0.171,0.44957 0.2478,0.9191 0.2637,1.39728 0.04,0.42872 0,0.8492 -0.069,1.27144 -0.2299,0.59856 -0.1873,1.1565 -0.1985,1.78321 0.085,0.4282 0.084,0.87789 0.1764,1.30434 0.09,0.41619 0.2652,0.80599 0.4551,1.18347 0.4451,0.55403 0.8223,1.15365 1.1181,1.79932 0.2464,0.63796 0.2308,1.33381 0.2107,2.0063 -0.063,0.29625 0,0.70287 -0.046,0.99411 -0.012,0.0818 -0.056,0.15554 -0.082,0.2341 -0.07,0.21444 -0.1027,0.33719 -0.1643,0.55468 -0.1436,0.50605 -0.1729,1.03646 -0.1659,1.56017 -0.035,0.68055 0.1272,1.34227 0.1888,2.01521 0.1093,0.41254 0.065,0.85269 0.1409,1.26845 0.069,0.37637 0.2355,0.73838 0.3657,1.09615 0.2596,0.49785 0.5483,0.98151 0.7913,1.48778 0.1314,0.35504 0.1384,0.74439 0.1143,1.11802 -0.015,0.32685 -0.023,0.66788 -0.1596,0.97309 -0.1453,0.32536 -0.4142,0.63017 -0.615,0.9217 -0.231,0.32679 -0.5014,0.63365 -0.7205,0.96861 -0.2168,0.33149 -0.3828,0.69494 -0.5991,1.02859 -0.063,0.25972 -0.2552,0.45638 -0.3546,0.69755 -0.051,0.12407 -0.066,0.26059 -0.1127,0.38645 -0.2576,0.69649 -0.032,-0.0412 -0.328,0.62592 -0.054,0.12126 -0.083,0.25215 -0.1239,0.37823 -0.2678,0.69692 -0.4395,1.42292 -0.4826,2.1676 -0.036,0.62572 -0.057,1.25786 0.031,1.8792 0.1608,0.77943 0.604,1.45857 0.9737,2.15298 0.3319,0.87823 0.6168,1.77683 0.8138,2.69706 0.058,0.61483 0.3924,1.14018 0.5839,1.71213 0.096,0.28778 0.1146,0.44188 0.1687,0.73489 0.041,0.39103 0.1047,0.7949 0.083,1.18994 -0.01,0.14169 -0.067,0.38335 -0.096,0.51794 -0.2331,0.57647 -0.5705,1.08798 -0.95,1.57748 -0.1471,0.1465 -0.1724,0.35915 -0.2781,0.52744 -0.04,0.0631 -0.1136,0.10067 -0.1505,0.16546 -0.1198,0.21043 -0.1418,0.50921 -0.1764,0.74317 -0.2075,0.62188 -0.114,1.10167 0.012,1.72861 0.1094,0.67544 0.5369,1.21977 0.7754,1.8433 0.2325,0.48865 0.277,1.0181 0.3038,1.54914 -0.014,0.48411 0.038,0.97499 0.178,1.43939 0.115,0.3611 0.3284,0.61211 0.574,0.89288 0,0 12.5895,-7.89836 12.5895,-7.89836 v 0 c -0.032,0.20309 -0.053,-0.005 -0.081,-0.0637 -0.059,-0.40904 -0.1221,-0.81548 -0.1628,-1.2273 -0.1023,-0.64604 -0.3048,-1.2674 -0.5372,-1.87767 -0.2016,-0.48707 -0.5201,-0.9425 -0.5834,-1.47199 0.031,-0.44322 0.2462,-0.84258 0.379,-1.26342 0.086,-0.13795 0.2196,-0.26626 0.2953,-0.40696 0.037,-0.0684 0.046,-0.14907 0.08,-0.21871 0.072,-0.1471 0.1983,-0.26411 0.2567,-0.4197 0.3244,-0.67339 0.5724,-1.37441 0.6437,-2.12509 0.048,-0.74975 -0.049,-1.48171 -0.2918,-2.19531 -0.1498,-0.4206 -0.289,-0.84746 -0.4462,-1.2651 -0.084,-0.22436 -0.1987,-0.43688 -0.2813,-0.66193 -0.05,-0.13725 -0.09,-0.27836 -0.1343,-0.41754 -0.2746,-0.99329 -0.5084,-1.99864 -0.8812,-2.96094 -0.22,-0.58138 -0.514,-1.15799 -0.5728,-1.78175 0.016,-0.54265 0.025,-1.08606 0.096,-1.62522 0.1264,-0.60843 0.2959,-1.20344 0.5839,-1.75798 0.3409,-0.61887 0.5623,-1.29929 0.9838,-1.87518 0.4028,-0.68067 0.9037,-1.29804 1.2461,-2.01575 0.072,-0.14624 0.1532,-0.28824 0.2158,-0.43873 0.2874,-0.69184 0.3335,-1.4483 0.3921,-2.1856 9e-4,-0.64418 -0.087,-1.27616 -0.3912,-1.85442 -0.264,-0.43304 -0.5649,-0.84545 -0.7865,-1.30261 -0.2776,-0.58058 -0.3906,-1.21848 -0.4379,-1.85853 -0.027,-0.6646 0.086,-1.31775 0.117,-1.98099 0.053,-0.4423 0.1216,-0.87889 0.2063,-1.31646 0.097,-0.67851 0.1135,-1.36093 0.012,-2.04077 -0.087,-0.9055 -0.072,-1.85222 -0.4114,-2.70632 -0.3799,-0.5705 -0.8427,-1.09299 -1.1369,-1.71397 -0.032,-0.061 -0.196,-0.36426 -0.2201,-0.43973 -0.135,-0.42261 -0.1421,-0.89148 -0.065,-1.32326 0.08,-0.60275 0.2841,-1.1746 0.3262,-1.78403 0.042,-0.53205 0.014,-1.05974 -0.055,-1.58899 -0.1005,-0.53293 -0.2454,-1.04902 -0.422,-1.56153 -0.143,-0.53064 -0.3254,-1.04529 -0.5149,-1.56081 -0.2402,-0.70916 -0.5428,-1.40109 -0.8704,-2.07375 -0.1213,-0.24749 -0.2186,-0.50774 -0.3596,-0.74455 -0.1811,-0.30413 -0.4643,-0.5533 -0.6741,-0.83614 -0.2246,-0.35187 -0.4754,-0.68917 -0.5944,-1.09611 -0.066,-0.49267 -0.045,-0.98515 0.064,-1.47178 0.017,-0.0584 0.018,-0.12366 0.051,-0.17521 0.023,-0.0363 0.1432,-0.0929 0.105,-0.0738 -10.0489,5.04394 -13.372,2.84248 -13.3849,6.98303 0.05,0.77849 0.3298,1.36386 0.9372,1.86787 0.2288,0.1011 0.3207,0.16417 0.571,0.1895 0.3476,0.0352 0.7081,-0.0564 1.0569,-0.0144 0.4411,0.017 0.9247,0.0227 1.2726,0.33196 0,0 12.5722,-8.04983 12.5722,-8.04983 z" />
          <path
             style="fill:#6f916f;fill-opacity:1;stroke:none;stroke-width:0.9;stroke-opacity:1"
             id="path21207-6-5-3-8"
             d="m 1105.6592,690.63516 c -0.2308,-0.0779 -0.4725,-0.1289 -0.6924,-0.23372 -1.1168,-0.53235 -2.0192,-1.59062 -2.9675,-2.37554 -0.5897,-0.51152 -1.1727,-1.02821 -1.8332,-1.44706 -0.4433,-0.26398 -0.9667,-0.4282 -1.4857,-0.39906 -0.477,0.0163 -0.9337,-0.19305 -1.4067,-0.27979 -5.3268,-0.9249 -12.4601,2.48801 -14.2199,7.63628 -0.045,0.35802 -0.2942,0.62366 -0.4132,0.95066 -0.074,0.20286 -0.082,0.28788 -0.1229,0.49838 -0.192,0.39478 -0.2218,0.84217 -0.2038,1.27423 0.011,0.49449 0.025,0.98755 0.038,1.48235 0.059,0.601 0.2438,1.17462 0.4039,1.75423 0.037,0.43924 0.2345,0.82772 0.3728,1.23862 0.086,0.25465 0.1538,0.51497 0.2382,0.77007 0.1781,0.61322 0.2254,1.25039 0.2603,1.88459 0.07,0.68755 -0.019,1.37948 0.033,2.06601 0.034,0.5717 0.2876,1.09366 0.4092,1.64969 0.096,0.53686 0.063,1.08316 0.064,1.62516 0.029,0.51252 0.01,0.88864 -0.196,1.35968 -0.031,0.0674 -0.068,0.13201 -0.092,0.20206 -0.3068,0.89335 0.1455,-0.27749 -0.1847,0.66536 -0.035,0.10112 -0.091,0.19442 -0.1266,0.29543 -0.047,0.13213 -0.1401,0.50916 -0.1754,0.647 -0.094,0.22042 -0.063,0.46342 -0.116,0.69095 -0.017,0.0723 -0.258,0.72503 -0.2748,0.7766 -0.051,0.15563 -0.1879,0.65077 -0.234,0.81516 -0.063,0.33155 -0.1924,0.69021 -0.1795,1.03347 0.014,0.38266 0.1571,0.88215 0.2539,1.2535 0.1727,0.6777 0.6415,1.15999 1.0373,1.70846 0.1869,0.25907 0.4328,0.65373 0.6057,0.92546 0.4129,0.60639 0.7295,1.26842 0.891,1.98368 0.058,0.62 0.15,1.3077 0.01,1.91987 -0.048,0.1767 -0.041,0.36509 -0.088,0.54179 -0.019,0.0721 -0.063,0.13604 -0.085,0.20745 -0.075,0.24353 -0.1054,0.50901 -0.1454,0.75981 -0.092,0.48065 -0.2723,0.93699 -0.3769,1.41243 -0.035,0.11034 -0.07,0.22078 -0.1055,0.33102 -0.039,0.11991 -0.071,0.24194 -0.1168,0.35943 -0.055,0.14178 -0.2316,0.47203 -0.2697,0.62306 -0.062,0.24627 -0.067,0.50361 -0.1043,0.75479 -0.012,0.12342 -0.01,0.24876 -0.035,0.37025 -0.02,0.0984 -0.073,0.18749 -0.098,0.28469 -0.1285,0.501 -0.2128,1.0141 -0.3121,1.52199 -0.062,0.58875 -0.1448,1.179 -0.029,1.76706 0.077,0.39142 0.1634,0.57838 0.3003,0.94452 0.2685,0.67861 0.7749,1.2062 1.185,1.7975 0.2893,0.54036 0.3091,1.15016 0.3517,1.74699 0.026,0.68622 0,1.37295 -0.025,2.05882 -0.01,0.28854 -0.03,0.57856 -0.029,0.86739 4e-4,0.0967 0.027,0.19444 0.012,0.28998 -0.011,0.0718 -0.063,0.13129 -0.09,0.19875 -0.032,0.0786 -0.057,0.15933 -0.086,0.23899 -0.1784,0.57607 -0.1342,1.19319 -0.1922,1.7884 -0.043,0.33803 -0.1453,0.67507 -0.2709,0.99189 -0.038,0.0967 -0.097,0.1845 -0.1354,0.28118 -0.078,0.19599 -0.1328,0.40042 -0.2056,0.59833 -0.1705,0.32099 -0.129,0.69593 -0.214,1.03479 -0.059,0.23405 -0.2065,0.43898 -0.2694,0.67193 -0.036,0.13468 -0.046,0.27515 -0.07,0.41272 -0.067,0.77893 -0.2146,1.58817 -0.036,2.36493 0.044,0.19205 0.1203,0.37535 0.1804,0.56303 0.2599,0.71785 0.4626,1.45159 0.6825,2.181 0.1761,0.24178 0.2321,0.55422 0.3762,0.81029 0.071,0.12559 0.1599,0.23979 0.2398,0.35968 0,0 12.7042,-7.64555 12.7042,-7.64555 v 0 c -0.021,10e-4 -0.05,0.0201 -0.063,0.004 -0.1524,-0.19217 -0.2211,-0.46423 -0.3342,-0.67884 -0.27,-0.64336 -0.6095,-1.25685 -0.8189,-1.92246 -0.083,-0.78871 0.014,-1.58172 0.2722,-2.33301 0.1445,-0.37457 0.2168,-0.74341 0.3305,-1.12631 0.096,-0.32377 0.2677,-0.62122 0.3466,-0.95093 0.2148,-0.70098 0.3627,-1.41276 0.4583,-2.14091 0.05,-0.38913 0.094,-0.78483 0.1909,-1.16613 0.022,-0.0874 0.058,-0.17124 0.078,-0.25913 0.02,-0.0873 0.029,-0.17685 0.043,-0.26527 0.061,-0.61293 0.037,-1.23269 0.02,-1.84789 -0.018,-0.7116 -0.04,-1.42212 -0.087,-2.13305 -0.066,-0.81848 -0.248,-1.6167 -0.6613,-2.33603 -0.068,-0.13048 -0.1261,-0.2669 -0.2047,-0.39144 -0.2598,-0.41215 -0.6504,-0.74024 -0.8657,-1.18315 -0.032,-0.0831 -0.072,-0.16315 -0.094,-0.24924 -0.143,-0.56005 0.101,-1.17215 0.1769,-1.72325 0.1547,-0.73518 0.3963,-1.45025 0.5078,-2.19466 0.1881,-0.65408 -0.036,0.0676 0.2161,-0.57682 0.1739,-0.44482 0.2455,-0.92804 0.4441,-1.36511 0.209,-0.52883 0.3095,-1.08646 0.3997,-1.64688 0.097,-0.53962 0.1884,-1.07384 0.1722,-1.62586 -0.059,-0.75869 -0.1194,-1.51408 -0.316,-2.25329 -0.1172,-0.43651 -0.2431,-0.88327 -0.4712,-1.27873 -0.2256,-0.39111 -0.5695,-0.70785 -0.8116,-1.08753 -0.5088,-0.66914 -0.9473,-1.38909 -1.1808,-2.20342 -0.022,-0.20503 -0.054,-0.37932 -0.023,-0.58588 0.014,-0.0961 0.056,-0.18632 0.076,-0.28131 0.058,-0.2693 0.086,-0.54644 0.1621,-0.81262 0.2035,-0.78193 0.46,-1.54949 0.7162,-2.31494 0.1964,-0.64216 0.4212,-1.27382 0.617,-1.91515 0.055,-0.55415 -8e-4,-1.10331 -8e-4,-1.6592 -0.025,-0.62525 -0.1058,-1.24781 -0.209,-1.86466 -0.1034,-0.48936 -0.2978,-0.95579 -0.3238,-1.46048 -0.043,-0.68342 -0.05,-1.36686 -0.073,-2.051 -0.067,-0.7429 -0.2346,-1.41483 -0.4964,-2.1146 -0.068,-0.25721 -0.1508,-0.5103 -0.2122,-0.76905 -0.1006,-0.42456 -0.085,-0.87034 -0.2379,-1.28369 -0.1215,-0.46554 -0.2294,-0.93514 -0.2039,-1.41988 0.012,-0.46175 0.012,-0.92376 0.1015,-1.37912 0.1027,-0.32308 0.2469,-0.62579 0.3592,-0.94486 0.1018,-0.14605 0.2168,-0.28294 0.3167,-0.43004 0.078,-0.11469 0.1492,-0.27118 0.2651,-0.35885 0.051,-0.0385 0.1163,-0.0527 0.1745,-0.0791 4.9642,-0.84406 0.5498,-0.11941 -12.3088,7.17551 -0.1436,0.0815 0.2013,-0.26807 0.3351,-0.36469 0.152,-0.10968 0.2512,-0.12478 0.4241,-0.17697 0.4767,0.009 0.9445,0.0505 1.3742,0.28157 0.087,0.0222 0.1717,0.0563 0.2608,0.0666 0.3271,0.0377 0.6647,-0.0881 0.9921,-0.032 0.4489,0.097 -0.071,-0.0277 0.4795,0.15648 0.099,0.0331 0.2036,0.0475 0.3024,0.0809 0.4633,0.15658 0.8878,0.405 1.2973,0.66795 0.9792,0.63483 2.2256,1.39466 2.9174,2.34506 0.1194,0.16405 0.188,0.35963 0.282,0.53945 0,0 12.5547,-7.94076 12.5547,-7.94076 z" />
          <path
             style="fill:#6f916f;fill-opacity:1;stroke:none;stroke-width:0.9;stroke-opacity:1"
             id="path21209-3-3-6-3"
             d="m 1098.4335,743.2212 c -5.1536,0.83335 -0.4227,0.038 -13.185,7.45764 -0.2243,0.13043 -0.3821,0.71711 -0.4361,0.951 -0.012,0.0895 -0.036,0.17826 -0.035,0.26851 0,0.11788 0.033,0.23364 0.042,0.35122 0.033,0.45808 0.049,0.91487 0.038,1.37451 -0.068,0.49035 0.093,0.97891 0.059,1.46886 -0.01,0.11837 -0.1322,0.63808 -0.1571,0.74681 -0.041,0.5884 -0.1877,1.16017 -0.2618,1.74408 -0.024,0.19078 -0.029,0.38448 -0.067,0.57303 -0.039,0.1938 -0.1083,0.38021 -0.1625,0.57032 -0.063,0.21864 -0.1303,0.4359 -0.1879,0.65591 -0.061,0.23214 -0.1041,0.46871 -0.1673,0.70021 -0.1829,0.6701 -0.4266,1.31521 -0.5328,2.00574 -0.037,0.23884 -0.049,0.48078 -0.074,0.72116 -0.083,0.96704 -0.2792,1.94488 -0.01,2.90116 0.084,0.29685 0.2168,0.57774 0.324,0.86706 0.1035,0.27917 0.2053,0.55894 0.3079,0.83841 0.4974,1.09481 0.9949,2.19261 1.2619,3.36901 0.01,0.081 0.08,0.68427 0.073,0.77052 -0.045,0.57719 -0.5797,1.14176 -0.953,1.52994 -0.1446,0.14277 -0.2837,0.29136 -0.4338,0.42832 -0.1505,0.13737 -0.317,0.25657 -0.4675,0.39404 -0.473,0.43203 -0.4666,0.4741 -0.8998,0.96858 -0.6792,0.7753 -0.2767,0.25454 -0.8752,1.09549 -0.1147,0.19243 -0.2484,0.37471 -0.344,0.57729 -0.099,0.2088 -0.1608,0.43293 -0.2358,0.65128 -0.2918,0.84932 -0.4536,1.73302 -0.5415,2.62501 -0.024,0.71335 0,1.43148 0.1741,2.12793 0.068,0.27389 0.1662,0.53933 0.2515,0.80829 0.091,0.28639 0.1847,0.57182 0.277,0.85773 0.097,0.30737 0.1944,0.61475 0.2916,0.92212 0.3169,0.86344 0.4561,1.76652 0.6092,2.66719 0.051,0.29761 0.2293,1.193 0.2711,1.49781 0.033,0.23889 0.047,0.47996 0.071,0.71994 0.078,1.31708 0.1109,2.63525 0.1632,3.95341 0.01,1.10917 0.1208,2.21396 0.087,3.3243 -0.024,0.77996 -0.056,0.86408 -0.1618,1.61487 -0.1914,1.06935 -0.6087,2.09803 -1.2484,2.98071 -0.1217,0.16795 -0.2632,0.32061 -0.3949,0.48092 -0.6297,0.76512 -0.1503,0.1457 -0.7121,0.97902 -0.081,0.11976 -0.6414,0.89893 -0.713,1.01019 -0.1638,0.25453 -0.5762,0.98865 -0.7202,1.24197 -0.7321,1.34736 -0.9164,2.89959 -1.0132,4.40823 0.07,0.69745 0.028,0.52297 0.1839,1.17666 0.038,0.15808 0.058,0.3227 0.1233,0.47177 0.091,0.21044 0.2284,0.39805 0.3415,0.59766 0.1641,0.28955 0.6126,1.09001 0.7733,1.37664 0.5442,0.95037 0.9718,1.95246 1.0996,3.04414 0.01,0.54554 0.1593,1.08334 0.1141,1.6308 -0.015,0.1794 -0.1365,0.65982 -0.1781,0.83419 -0.019,0.14701 -0.025,0.29613 -0.057,0.44104 -0.028,0.12824 -0.083,0.24903 -0.119,0.3751 -0.1285,0.44705 -0.255,0.89028 -0.4114,1.32904 -0.1955,0.56178 -0.3431,1.15381 -0.3781,1.75025 -0.024,0.41624 0.024,0.65747 0.075,1.06649 0.2403,0.72947 0.4985,1.46762 1.0953,1.98868 0.4633,0.4045 0.6317,0.40956 1.2086,0.63411 0.8136,0.21936 1.6721,0.43327 2.5238,0.35046 0.5493,-0.0534 0.9578,-0.18384 1.4872,-0.32368 1.0759,-0.30749 2.1131,-0.72622 3.1703,-1.08966 0.992,-0.32556 2.0346,-0.60215 3.09,-0.51637 0.3449,0.028 0.6827,0.11315 1.0241,0.16972 0.9048,0.24126 1.8153,0.51808 2.6765,0.89118 0.6174,0.26744 1.2705,0.64374 1.8695,0.96037 0.1953,0.0865 0.3844,0.18845 0.5858,0.25953 0.7612,0.26871 1.8594,0.50002 2.6689,0.53592 0.2293,0.0102 0.4591,-0.005 0.6887,-0.007 1.5285,-0.11307 2.983,-0.61869 4.3915,-1.194 1.4389,-0.55197 2.804,-1.27163 4.2449,-1.81653 1.4842,-0.64796 2.8668,-0.74057 4.4504,-0.74591 5.4277,-0.1119 6.594,-3.28727 13.7418,-7.40808 0.2683,-0.15466 0.5082,-0.42573 0.7299,-0.63895 0.2222,-0.31477 0.1138,-0.16223 0.3252,-0.45774 0,0 -13.6703,5.72829 -13.6703,5.72829 v 0 c -0.2256,0.18085 -0.1064,0.0995 -0.3576,0.24389 -3.7118,2.48993 -18.132,10.11676 11.5688,-6.54907 0.1248,-0.0701 -0.2017,0.20873 -0.3261,0.27975 -0.1482,0.0847 -0.3196,0.12014 -0.4794,0.18021 -1.0538,0.26195 -2.1351,0.38099 -3.22,0.43343 -0.2834,0.0137 -0.5692,-0.0219 -0.8509,0.0111 -0.2469,0.0289 -0.4836,0.11575 -0.7254,0.17362 -0.7414,0.2691 -1.5041,0.51384 -2.2235,0.83924 -0.2278,0.10306 -0.4425,0.23338 -0.6687,0.34003 -0.4498,0.21206 -0.9181,0.38309 -1.366,0.59941 -1.336,0.52542 -2.6216,1.21458 -4.0479,1.47479 -0.3273,0.0518 -0.832,0.14374 -1.1678,0.15047 -0.8076,0.0162 -1.6185,-0.14784 -2.3921,-0.36076 -1.0407,-0.35664 -2.044,-0.81496 -3.0851,-1.17005 -0.316,-0.10777 -0.6399,-0.19078 -0.9588,-0.28967 -0.3335,-0.10342 -0.6655,-0.21149 -0.9982,-0.31723 -0.319,-0.11366 -0.6398,-0.22221 -0.9569,-0.34099 -0.2805,-0.10508 -0.5495,-0.2419 -0.8356,-0.33051 -0.7093,-0.21966 -1.4449,-0.14515 -2.1643,-0.0294 -0.7462,0.17932 -1.4744,0.44475 -2.179,0.74962 -0.2127,0.092 -0.4153,0.20659 -0.6291,0.29588 -0.2186,0.0913 -0.4447,0.16353 -0.6671,0.2453 -1.1561,0.40801 -2.102,0.80643 -3.3583,0.56238 -0.8613,-0.16506 -1.1562,-0.25818 -1.2732,-1.22018 0.01,-0.84467 0.3321,-1.57771 0.6205,-2.35893 0.2192,-0.7656 0.3132,-1.54886 0.398,-2.33877 0.018,-0.50836 3e-4,-1.00943 -0.01,-1.51748 -0.01,-0.48767 0.03,-0.97622 -0.1523,-1.44219 -0.1152,-0.31924 -0.2138,-0.60943 -0.3531,-0.92121 -0.3492,-0.78153 -0.8594,-1.47726 -1.2885,-2.21483 -0.2234,-0.46727 -0.4094,-0.79527 -0.5389,-1.29741 -0.05,-0.19181 -0.052,-0.39305 -0.092,-0.58709 -0.082,-0.39855 -0.2553,-0.77893 -0.2471,-1.19485 0,-1.42151 0.3712,-2.46066 1.1531,-3.64856 0.7495,-1.09869 1.5837,-2.13895 2.2928,-3.26505 0.6445,-1.26587 1.2223,-2.5908 1.1682,-4.04317 -0.01,-0.84101 -0.025,-1.68287 -0.011,-2.52386 0.031,-1.82037 0.017,-0.004 0.076,-1.77308 0.01,-0.25345 0,-0.50715 0.01,-0.76073 0.028,-1.37793 0.036,-2.77071 -0.2563,-4.12519 -0.1003,-0.51091 -0.1786,-1.02635 -0.2942,-1.53401 -0.2597,-1.14048 -0.7565,-2.21623 -0.9769,-3.36873 -0.3262,-1.43748 -0.6122,-2.912 -0.3578,-4.38605 0.032,-0.155 0.1962,-0.96071 0.2467,-1.12179 0.2365,-0.75571 0.6415,-1.43368 1.1468,-2.03863 0.3104,-0.35034 0.5428,-0.62143 0.8748,-0.95785 0.6342,-0.64253 1.3342,-1.22229 1.7984,-2.01307 0.1131,-0.21013 0.2408,-0.41305 0.3394,-0.63039 0.4217,-0.92977 0.499,-1.94202 0.1627,-2.90783 -0.055,-0.17281 -0.097,-0.35019 -0.165,-0.51843 -0.3885,-0.96565 -1.201,-1.71259 -1.5437,-2.70475 -0.08,-0.24918 -0.1839,-0.49207 -0.2414,-0.74754 -0.23,-1.02276 -0.041,-2.28379 0.093,-3.31234 0.3114,-1.33 0.651,-2.65395 1.0608,-3.95747 0.2931,-1.05772 0.5765,-2.11273 0.708,-3.20484 0.052,-0.80452 0.074,-1.61332 0.1005,-2.41784 0,-0.31759 0.01,-0.89726 0.1819,-1.17432 0.037,-0.0594 0.1879,-0.16186 0.2517,-0.20779 0.1596,-0.079 0.3206,-0.13734 0.488,-0.19771 0.071,-0.0254 0.2759,-0.11476 0.211,-0.0774 -12.6915,7.30765 -15.6637,10.9106 -12.4782,7.07906 0,0 11.8073,-9.17303 11.8073,-9.17303 z" />
        </g>
      </g>
    </g>
  </g>
</svg>
