<?xml version="1.0" encoding="UTF-8" standalone="no"?>
<!-- Created with Inkscape (http://www.inkscape.org/) -->

<svg
   width="132"
   height="132"
   viewBox="0 0 132 132"
   version="1.1"
   id="svg1522"
   inkscape:version="1.1.1 (3bf5ae0d25, 2021-09-20)"
   sodipodi:docname="Ciudad.svg"
   inkscape:export-filename="/home/jonathanpc/Documentos/Clase/3A/SO/proyecto-catan-SO/cliente/Media/Images/Ciudad.png"
   inkscape:export-xdpi="96"
   inkscape:export-ydpi="96"
   xmlns:inkscape="http://www.inkscape.org/namespaces/inkscape"
   xmlns:sodipodi="http://sodipodi.sourceforge.net/DTD/sodipodi-0.dtd"
   xmlns="http://www.w3.org/2000/svg"
   xmlns:svg="http://www.w3.org/2000/svg">
  <sodipodi:namedview
     id="namedview1524"
     pagecolor="#ffffff"
     bordercolor="#666666"
     borderopacity="1.0"
     inkscape:pageshadow="2"
     inkscape:pageopacity="0.0"
     inkscape:pagecheckerboard="0"
     inkscape:document-units="px"
     showgrid="true"
     units="px"
     width="132px"
     height="4096px"
     inkscape:zoom="3.0549223"
     inkscape:cx="77.579715"
     inkscape:cy="60.230665"
     inkscape:window-width="1366"
     inkscape:window-height="739"
     inkscape:window-x="0"
     inkscape:window-y="0"
     inkscape:window-maximized="1"
     inkscape:current-layer="layer1"
     inkscape:snap-bbox="true"
     inkscape:snap-intersection-paths="false"
     inkscape:object-nodes="true"
     inkscape:snap-smooth-nodes="false"
     inkscape:object-paths="false"
     inkscape:snap-midpoints="true"
     showguides="false">
    <inkscape:grid
       type="axonomgrid"
       id="grid36"
       spacingy="256"
       empspacing="2"
       units="px"
       originy="128" />
  </sodipodi:namedview>
  <defs
     id="defs1519">
    <clipPath
       clipPathUnits="userSpaceOnUse"
       id="clipPath3924">
      <path
         sodipodi:type="star"
         style="fill:#ff482a;fill-opacity:0.704312;fill-rule:evenodd;stroke:#ec2727;stroke-width:0;stroke-linecap:round;stroke-linejoin:round;stroke-opacity:1"
         id="path3926"
         inkscape:flatsided="true"
         sodipodi:sides="6"
         sodipodi:cx="456.68387"
         sodipodi:cy="488.34238"
         sodipodi:r1="230.39999"
         sodipodi:r2="199.53226"
         sodipodi:arg1="0.52359878"
         sodipodi:arg2="1.0471976"
         inkscape:rounded="0.1"
         inkscape:randomized="0"
         d="m 656.21612,603.54237 c -11.52,19.95323 -176.49225,115.2 -199.53225,115.2 -23.04,0 -188.01225,-95.24677 -199.53225,-115.2 -11.52,-19.95322 -11.52,-210.44677 0,-230.39999 11.52,-19.95323 176.49225,-115.2 199.53225,-115.2 23.04,0 188.01225,95.24678 199.53225,115.2 11.52,19.95323 11.52,210.44677 0,230.39999 z" />
    </clipPath>
    <clipPath
       clipPathUnits="userSpaceOnUse"
       id="clipPath3924-3">
      <path
         sodipodi:type="star"
         style="fill:#ff482a;fill-opacity:0.704312;fill-rule:evenodd;stroke:#ec2727;stroke-width:0;stroke-linecap:round;stroke-linejoin:round;stroke-opacity:1"
         id="path3926-6"
         inkscape:flatsided="true"
         sodipodi:sides="6"
         sodipodi:cx="456.68387"
         sodipodi:cy="488.34238"
         sodipodi:r1="230.39999"
         sodipodi:r2="199.53226"
         sodipodi:arg1="0.52359878"
         sodipodi:arg2="1.0471976"
         inkscape:rounded="0.1"
         inkscape:randomized="0"
         d="m 656.21612,603.54237 c -11.52,19.95323 -176.49225,115.2 -199.53225,115.2 -23.04,0 -188.01225,-95.24677 -199.53225,-115.2 -11.52,-19.95322 -11.52,-210.44677 0,-230.39999 11.52,-19.95323 176.49225,-115.2 199.53225,-115.2 23.04,0 188.01225,95.24678 199.53225,115.2 11.52,19.95323 11.52,210.44677 0,230.39999 z" />
    </clipPath>
    <clipPath
       clipPathUnits="userSpaceOnUse"
       id="clipPath5817">
      <path
         id="path5819"
         style="fill:#7fff2a;stroke:none;stroke-width:5.93201;stroke-linejoin:round"
         d="m 2083.6424,1791.7302 c -18.9823,32.8787 -290.8203,189.8243 -328.7852,189.8243 -37.9648,0 -309.8027,-156.9458 -328.7851,-189.8243 -18.9825,-32.8786 -18.9825,-346.77 0,-379.6485 18.9824,-32.8786 290.8203,-189.8243 328.7851,-189.8243 37.9649,0 309.8029,156.9458 328.7852,189.8243 18.9826,32.8787 18.9826,346.77 0,379.6485 z" />
    </clipPath>
    <clipPath
       clipPathUnits="userSpaceOnUse"
       id="clipPath5817-7">
      <path
         id="path5819-5"
         style="fill:#7fff2a;stroke:none;stroke-width:5.93201;stroke-linejoin:round"
         d="m 2083.6424,1791.7302 c -18.9823,32.8787 -290.8203,189.8243 -328.7852,189.8243 -37.9648,0 -309.8027,-156.9458 -328.7851,-189.8243 -18.9825,-32.8786 -18.9825,-346.77 0,-379.6485 18.9824,-32.8786 290.8203,-189.8243 328.7851,-189.8243 37.9649,0 309.8029,156.9458 328.7852,189.8243 18.9826,32.8787 18.9826,346.77 0,379.6485 z" />
    </clipPath>
    <clipPath
       clipPathUnits="userSpaceOnUse"
       id="clipPath978">
      <path
         id="path980"
         style="fill:#7fff2a;stroke:none;stroke-width:5.93201;stroke-linejoin:round"
         d="m 2078.081,1770.1804 c -18.9823,32.8787 -290.8203,189.8244 -328.7852,189.8244 -37.9648,0 -309.8027,-156.9459 -328.7851,-189.8244 -18.9825,-32.8786 -18.9825,-346.77 0,-379.6485 18.9824,-32.8786 290.8203,-189.8243 328.7851,-189.8243 37.9649,0 309.8029,156.9458 328.7852,189.8243 18.9826,32.8788 18.9826,346.77 0,379.6485 z" />
    </clipPath>
    <clipPath
       clipPathUnits="userSpaceOnUse"
       id="clipPath1120">
      <path
         id="path1122"
         style="fill:#cccccc;stroke:none;stroke-width:2.29183;stroke-linejoin:round"
         d="m 3171.1954,1063.0178 c -7.3338,12.7026 -112.3584,73.3386 -127.0262,73.3386 -14.6677,0 -119.6923,-60.636 -127.0261,-73.3386 -7.3339,-12.7027 -7.3339,-133.97465 0,-146.67725 7.3338,-12.70267 112.3584,-73.33861 127.0261,-73.33861 14.6678,0 119.6924,60.636 127.0262,73.33861 7.3339,12.70267 7.3339,133.97465 0,146.67725 z" />
    </clipPath>
    <clipPath
       clipPathUnits="userSpaceOnUse"
       id="clipPath6120">
      <path
         sodipodi:type="star"
         style="fill:#ffcc00;fill-opacity:0.647541;fill-rule:evenodd;stroke:#5d5d5d;stroke-width:0;stroke-linecap:round;stroke-linejoin:round;stroke-miterlimit:4;stroke-dasharray:none;stroke-opacity:1;paint-order:normal"
         id="path6122"
         inkscape:flatsided="true"
         sodipodi:sides="6"
         sodipodi:cx="335.8732"
         sodipodi:cy="299.88458"
         sodipodi:r1="230.39999"
         sodipodi:r2="199.53226"
         sodipodi:arg1="0.52359878"
         sodipodi:arg2="1.0471976"
         inkscape:rounded="0.1"
         inkscape:randomized="0"
         d="m 535.40545,415.08458 c -11.52,19.95323 -176.49225,115.2 -199.53225,115.2 -23.04,0 -188.01225,-95.24678 -199.53225,-115.2 -11.52,-19.95323 -11.52,-210.44677 0,-230.4 11.52,-19.95322 176.49225,-115.199991 199.53225,-115.199991 23.04,0 188.01225,95.246771 199.53225,115.200001 11.52,19.95322 11.52,210.44677 0,230.39999 z" />
    </clipPath>
    <clipPath
       clipPathUnits="userSpaceOnUse"
       id="clipPath6120-2">
      <path
         sodipodi:type="star"
         style="fill:#ffcc00;fill-opacity:0.647541;fill-rule:evenodd;stroke:#5d5d5d;stroke-width:0;stroke-linecap:round;stroke-linejoin:round;stroke-miterlimit:4;stroke-dasharray:none;stroke-opacity:1;paint-order:normal"
         id="path6122-9"
         inkscape:flatsided="true"
         sodipodi:sides="6"
         sodipodi:cx="335.8732"
         sodipodi:cy="299.88458"
         sodipodi:r1="230.39999"
         sodipodi:r2="199.53226"
         sodipodi:arg1="0.52359878"
         sodipodi:arg2="1.0471976"
         inkscape:rounded="0.1"
         inkscape:randomized="0"
         d="m 535.40545,415.08458 c -11.52,19.95323 -176.49225,115.2 -199.53225,115.2 -23.04,0 -188.01225,-95.24678 -199.53225,-115.2 -11.52,-19.95323 -11.52,-210.44677 0,-230.4 11.52,-19.95322 176.49225,-115.199991 199.53225,-115.199991 23.04,0 188.01225,95.246771 199.53225,115.200001 11.52,19.95322 11.52,210.44677 0,230.39999 z" />
    </clipPath>
  </defs>
  <g
     inkscape:label="Layer 1"
     inkscape:groupmode="layer"
     id="layer1">
    <g
       id="g2104"
       transform="translate(-221.7025)" />
    <circle
       style="fill:#f2f2f2;fill-opacity:1;fill-rule:evenodd;stroke:#000000;stroke-width:3.77953;stroke-linecap:round;stroke-linejoin:round"
       id="path1202-3"
       cx="66.000015"
       cy="66"
       r="64" />
    <path
       style="fill:#000000;stroke-width:0.144835;stroke:#000000"
       d="m 32.97934,102.86919 c -0.78669,-0.39904 -0.88146,-1.43728 -0.18145,-1.98791 0.29817,-0.23454 0.58787,-0.28738 1.57564,-0.28738 h 1.21029 l 0.0375,-23.821421 0.0375,-23.821415 0.32976,-0.329896 0.32976,-0.329887 5.49986,-0.0412 5.49987,-0.0412 V 46.77598 41.34305 l 0.3555,-0.355502 c 0.34486,-0.344864 0.41858,-0.355503 2.4622,-0.355503 h 2.10669 V 37.88963 c 0,-1.546934 0.0656,-2.915028 0.15053,-3.138369 0.28202,-0.741769 0.42152,-0.772044 3.57896,-0.777014 l 2.93292,-0.0047 0.002,-1.99149 c 0.003,-2.179494 0.11122,-2.592331 0.7666,-2.906588 0.50807,-0.24361 1.28558,-0.0153 1.526,0.448222 0.0968,0.186615 0.18238,1.174801 0.20347,2.349733 l 0.0365,2.027698 3.00053,0.07247 c 2.62551,0.06331 3.03282,0.104693 3.2588,0.33068 0.22598,0.22597 0.26731,0.63329 0.33067,3.258795 l 0.0725,3.000538 1.26731,0.04186 1.2673,0.04176 v -2.981358 c 0,-2.972258 0.002,-2.982415 0.35552,-3.33684 l 0.35551,-0.355513 12.13654,0.0047 c 13.096,0.0047 12.47472,-0.03279 12.78261,0.777005 0.10254,0.269698 0.15054,10.829007 0.15054,33.11931 v 32.723381 h 1.22304 c 1.0779,0 1.27035,0.0408 1.62214,0.3433 0.51618,0.44401 0.55187,1.24842 0.0764,1.72381 l -0.32264,0.32266 -32.83741,0.0346 c -26.28737,0.0277 -32.9096,-0.004 -33.19947,-0.14907 z m 11.00749,-5.251001 c 0,-2.96628 0.001,-2.97685 0.3555,-3.33122 l 0.35551,-0.35552 h 3.76423 3.76422 l 0.40637,0.3493 0.40637,0.34925 0.0445,2.98195 0.0445,2.981951 h 2.8884 2.88842 V 77.637479 54.681067 H 48.47672 38.04858 V 77.637479 100.5939 h 2.96912 2.96913 z m -1.01099,-8.06949 c -0.19758,-0.10188 -0.44103,-0.34691 -0.541,-0.54449 -0.25283,-0.49969 -0.23587,-2.23252 0.0268,-2.74051 0.25426,-0.49168 0.95292,-0.77789 1.44356,-0.59135 0.62162,0.23635 0.80579,0.68956 0.80579,1.98292 0,1.03028 -0.0439,1.23997 -0.32588,1.55551 -0.40439,0.45258 -0.93859,0.58067 -1.40929,0.33792 z m 5.07952,0.0246 c -0.61238,-0.24485 -0.7278,-0.55253 -0.73271,-1.95321 -0.004,-1.18284 0.028,-1.34383 0.32127,-1.6078 0.46554,-0.41905 0.76175,-0.49104 1.27881,-0.31079 0.56817,0.19806 0.85751,0.84029 0.85751,1.9033 0,1.04506 -0.23374,1.65551 -0.73268,1.91353 -0.46967,0.24287 -0.51585,0.24543 -0.9922,0.055 z m 4.91411,-0.0246 c -0.19758,-0.10188 -0.44103,-0.34691 -0.541,-0.54449 -0.25282,-0.49969 -0.23587,-2.23252 0.0269,-2.74051 0.25426,-0.49168 0.95292,-0.77789 1.44355,-0.59135 0.62162,0.23635 0.80579,0.68956 0.80579,1.98292 0,1.03028 -0.0439,1.23997 -0.32588,1.55551 -0.40439,0.45258 -0.93858,0.58067 -1.40929,0.33792 z m -10.25218,-8.50701 c -0.62314,-0.58055 -0.64602,-2.75271 -0.0358,-3.40222 0.45887,-0.48844 1.19044,-0.49219 1.67406,-0.009 0.32531,0.3253 0.3555,0.46734 0.3555,1.67217 0,1.20485 -0.0302,1.34688 -0.3555,1.6722 -0.44492,0.44492 -1.19911,0.47549 -1.63821,0.0663 z m 4.95626,-0.0664 c -0.32531,-0.32529 -0.35551,-0.46734 -0.35551,-1.67218 0,-1.20484 0.0302,-1.34688 0.35551,-1.67218 0.46041,-0.46042 1.09686,-0.46274 1.6279,-0.006 0.38932,0.33487 0.40638,0.40429 0.40638,1.65393 0,1.18116 -0.0332,1.3397 -0.35113,1.67815 -0.46808,0.49825 -1.19527,0.50614 -1.68315,0.0183 z m 5.03737,0.0664 c -0.62314,-0.58055 -0.64602,-2.75271 -0.0358,-3.40222 0.45888,-0.48844 1.19043,-0.49219 1.67405,-0.009 0.3253,0.3253 0.3555,0.46734 0.3555,1.67217 0,1.20485 -0.0301,1.34688 -0.3555,1.6722 -0.44493,0.44492 -1.1991,0.47549 -1.63821,0.0663 z m -9.54177,-8.06854 c -0.61081,-0.11597 -0.84368,-0.57334 -0.89579,-1.75939 -0.0268,-0.60925 0.0215,-1.29011 0.1073,-1.51302 0.19827,-0.51522 1.00395,-0.8824 1.51221,-0.68915 0.63434,0.24117 0.81814,0.6877 0.81814,1.98761 0,1.03213 -0.0434,1.23857 -0.32588,1.54927 -0.3521,0.38729 -0.72568,0.51777 -1.21598,0.42468 z m 5.0179,-2.8e-4 c -0.11948,-0.0436 -0.36389,-0.21282 -0.54313,-0.37588 -0.29261,-0.26623 -0.32588,-0.43181 -0.32588,-1.62194 0,-1.19106 0.033,-1.35518 0.32588,-1.61878 0.46554,-0.41904 0.76175,-0.49103 1.27881,-0.31078 0.56817,0.19806 0.85751,0.84028 0.85751,1.90329 0,1.12844 -0.23399,1.6834 -0.81154,1.92471 -0.26547,0.11093 -0.50106,0.19654 -0.52353,0.19024 -0.0225,-0.007 -0.13863,-0.0472 -0.25812,-0.0909 z m 4.92441,-0.0266 c -0.53084,-0.14191 -0.86853,-0.925 -0.8688,-2.0147 -1.2e-4,-0.51981 0.0914,-1.08953 0.21263,-1.32403 0.25426,-0.49169 0.95292,-0.77789 1.44356,-0.59134 0.62162,0.23633 0.80578,0.68955 0.80578,1.98292 0,1.03212 -0.0434,1.23856 -0.32588,1.54925 -0.37744,0.4152 -0.75696,0.53435 -1.26729,0.3979 z m -10.31383,-8.46904 c -0.36929,-0.28058 -0.54883,-0.8793 -0.54883,-1.83026 0,-1.42521 0.37098,-2.014365 1.2739,-2.023077 0.31797,-0.0038 0.59597,0.114077 0.8328,0.350897 0.32531,0.32531 0.35551,0.46735 0.35551,1.67218 0,1.20487 -0.0302,1.3469 -0.35551,1.6722 -0.39669,0.39669 -1.14398,0.47251 -1.55787,0.15806 z m 4.87592,-0.15806 c -0.32531,-0.3253 -0.35551,-0.46733 -0.35551,-1.67221 0,-1.20482 0.0302,-1.34686 0.35551,-1.67217 0.48788,-0.487888 1.21507,-0.480008 1.68315,0.0183 0.31694,0.33736 0.35113,0.4984 0.35113,1.65394 0,1.15553 -0.0342,1.31657 -0.35113,1.65394 -0.46808,0.49825 -1.19527,0.50614 -1.68315,0.0183 z m 5.00153,-0.009 c -0.61018,-0.6495 -0.5873,-2.82166 0.0359,-3.40221 0.4391,-0.409089 1.19328,-0.378522 1.6382,0.0664 0.3253,0.32531 0.35551,0.46734 0.35551,1.67218 0,1.20486 -0.0302,1.34689 -0.35551,1.6722 -0.48362,0.48362 -1.21518,0.47988 -1.67405,-0.008 z m -2.02583,34.14694 10e-6,-2.06391 h -2.10012 -2.10011 v 2.07694 2.076941 l 2.10011,-0.013 2.10011,-0.013 v -2.063921 z m 31.57408,-13.2887 V 69.743989 H 71.79518 61.36705 v 15.42497 15.424971 h 10.42813 10.42815 z m -16.10724,12.62046 c -0.13627,-0.10352 -0.3155,-0.3664 -0.3983,-0.58415 -0.0996,-0.26203 -0.15052,-4.33736 -0.15052,-12.0504 0,-12.82151 -0.0235,-12.47101 0.85751,-12.77814 0.51706,-0.18026 0.81327,-0.10826 1.27881,0.31079 l 0.32587,0.29333 v 12.14751 12.14751 l -0.3555,0.35551 c -0.39669,0.39668 -1.14399,0.4725 -1.55787,0.15804 z m 4.87592,-0.15804 -0.35551,-0.35551 v -12.14751 -12.14751 l 0.36566,-0.34352 c 0.46863,-0.44024 1.27974,-0.4433 1.71662,-0.007 l 0.30751,0.30747 0.042,11.7639 c 0.0232,6.47013 0.003,11.97597 -0.0429,12.23516 -0.18278,1.0139 -1.32407,1.40339 -2.03347,0.69401 z m 5.11772,0.15804 c -0.13627,-0.10352 -0.31549,-0.3664 -0.39829,-0.58415 -0.22809,-0.59993 -0.20661,-23.70368 0.0225,-24.20653 0.21637,-0.47488 0.89333,-0.83983 1.31877,-0.71096 0.17525,0.0531 0.46529,0.23076 0.64453,0.39481 l 0.32587,0.29826 v 12.1214 c 0,12.04358 -0.003,12.12383 -0.30019,12.50301 -0.22889,0.29098 -0.42666,0.38052 -0.8328,0.37701 -0.29294,-0.004 -0.64412,-0.0893 -0.78039,-0.19285 z m 17.80938,-29.31275 0.0366,-32.044843 H 83.52722 73.09874 v 15.428939 15.428964 l 2.0639,-0.0403 2.06392,-0.0403 0.0422,-0.3621 c 0.0932,-0.79894 0.61641,-1.30351 1.35166,-1.30351 0.4601,0 1.14073,0.77112 1.14073,1.29238 v 0.44565 h 1.21259 1.21259 l 0.0887,-0.5549 c 0.0988,-0.61757 0.40865,-0.96796 0.98274,-1.1112 0.43874,-0.10948 1.19857,0.22355 1.33779,0.58632 0.0494,0.12895 0.09,7.87643 0.09,17.21663 0,9.3402 0.0443,17.026541 0.0986,17.080761 0.0542,0.0542 2.12356,0.0814 4.59852,0.0605 l 4.49994,-0.0382 z m -6.27103,25.82349 c -0.3253,-0.32531 -0.35549,-0.46733 -0.35549,-1.67219 0,-1.20485 0.0301,-1.34687 0.35549,-1.67219 0.23684,-0.23682 0.51484,-0.35396 0.83281,-0.35089 0.94467,0.01 1.27388,0.56146 1.27388,2.13725 0,1.01682 -0.0403,1.19057 -0.35516,1.53029 -0.47597,0.51357 -1.25337,0.52589 -1.75153,0.0277 z m 0.29626,-8.07505 c -0.55137,-0.31621 -0.64255,-0.58936 -0.64255,-1.92516 0,-1.41461 0.11265,-1.69876 0.77303,-1.94983 0.52629,-0.2001 1.04047,-0.0552 1.39258,0.39244 0.23507,0.29883 0.28737,0.58789 0.28737,1.58804 0,1.15831 -0.0223,1.24502 -0.42336,1.64609 -0.44453,0.44454 -0.90219,0.52651 -1.38707,0.24842 z m -0.29626,-8.58102 c -0.3253,-0.3253 -0.35549,-0.46733 -0.35549,-1.67219 0,-1.20485 0.0301,-1.34688 0.35549,-1.67218 0.59763,-0.59763 1.53071,-0.44217 1.93821,0.32294 0.24167,0.45376 0.21306,2.29129 -0.0434,2.78723 -0.36378,0.70346 -1.30874,0.82028 -1.8948,0.2342 z m 0.29626,-8.06908 c -0.55338,-0.32876 -0.64255,-0.59674 -0.64255,-1.93114 0,-0.80235 0.0679,-1.39188 0.17644,-1.53333 0.51287,-0.668 1.47154,-0.6821 1.98511,-0.0291 0.23892,0.30374 0.29143,0.58738 0.29143,1.57399 0,1.0418 -0.0437,1.25326 -0.32587,1.57382 -0.37942,0.43117 -1.07013,0.59209 -1.48456,0.34587 z m -10.2899,-8.58699 c -0.32531,-0.32531 -0.35552,-0.467345 -0.35552,-1.672192 0,-1.204857 0.0301,-1.346882 0.35552,-1.672196 0.34986,-0.349852 0.94459,-0.458882 1.44846,-0.26553 0.41978,0.161083 0.65824,0.863064 0.65824,1.937726 0,1.074661 -0.23846,1.776642 -0.65824,1.937732 -0.50387,0.19334 -1.0986,0.0843 -1.44846,-0.26554 z m 5.13568,0.16985 c -0.42017,-0.32259 -0.56679,-0.799082 -0.56679,-1.842042 0,-1.478901 0.34802,-2.014489 1.3145,-2.023097 0.35817,-0.0028 0.61498,0.09877 0.8328,0.330605 0.27824,0.296183 0.31492,0.497348 0.31492,1.727528 0,1.331603 -0.0166,1.405376 -0.38163,1.692476 -0.42187,0.33184 -1.1582,0.38756 -1.5138,0.11453 z m 4.85796,-0.16985 c -0.3253,-0.32531 -0.35549,-0.467345 -0.35549,-1.672192 0,-1.204857 0.0301,-1.346882 0.35549,-1.672196 0.59763,-0.597619 1.53071,-0.442148 1.93821,0.322951 0.24167,0.453752 0.21306,2.291301 -0.0434,2.787247 -0.36378,0.70346 -1.30874,0.82025 -1.8948,0.23419 z m -9.69738,-8.0691 c -0.55239,-0.328157 -0.64245,-0.59812 -0.64716,-1.940032 -0.004,-1.122066 0.0381,-1.358135 0.28907,-1.627644 0.57519,-0.617404 1.49167,-0.533575 1.95867,0.17915 0.35927,0.548315 0.25332,2.709534 -0.15274,3.115512 -0.36527,0.365187 -1.06924,0.497934 -1.44784,0.273014 z m 4.99967,-0.0171 c -0.58422,-0.295607 -0.74196,-0.773226 -0.6961,-2.107663 0.0385,-1.119034 0.0712,-1.233024 0.44786,-1.556977 0.46985,-0.404154 0.81552,-0.436658 1.40453,-0.132066 0.50788,0.262639 0.68551,0.81993 0.64717,2.030391 -0.0369,1.164378 -0.15536,1.480535 -0.65071,1.736683 -0.50481,0.261052 -0.68616,0.26571 -1.15275,0.02967 z m 4.99397,0.0171 c -0.55338,-0.328743 -0.64255,-0.59674 -0.64255,-1.93114 0,-1.353638 0.0941,-1.625311 0.66924,-1.931613 0.51005,-0.271663 0.90851,-0.197008 1.36038,0.254863 0.40169,0.401688 0.42336,0.486567 0.42336,1.657541 0,1.073584 -0.0423,1.282346 -0.32587,1.604485 -0.37942,0.431159 -1.07013,0.592081 -1.48456,0.345864 z m -10.2899,-8.587002 c -0.32425,-0.324246 -0.35552,-0.468964 -0.35552,-1.646069 0,-1.551308 0.26547,-2.053814 1.08494,-2.053814 0.68396,0 0.92298,0.120944 1.16538,0.589691 0.25646,0.495939 0.28508,2.33348 0.0434,2.78725 -0.40751,0.765109 -1.34058,0.920561 -1.9382,0.322942 z m 4.99678,-0.01361 c -0.28063,-0.298724 -0.35763,-0.560797 -0.40356,-1.373849 -0.0313,-0.552594 -0.0161,-1.166787 0.0336,-1.364881 0.23065,-0.918984 1.46218,-1.279899 2.08935,-0.612302 0.27824,0.296163 0.31491,0.497337 0.31491,1.727498 0,1.331613 -0.0166,1.405389 -0.38162,1.692491 -0.53228,0.418678 -1.2216,0.389934 -1.6527,-0.06898 z m 4.99686,0.01361 c -0.3253,-0.325313 -0.35549,-0.467348 -0.35549,-1.672186 0,-1.204847 0.0301,-1.346882 0.35549,-1.672195 0.58608,-0.586064 1.53103,-0.469266 1.8948,0.234189 0.25647,0.495939 0.28508,2.33348 0.0434,2.78725 -0.40749,0.765109 -1.34057,0.920561 -1.93819,0.322942 z m -17.04695,10.819862 0.037,-12.057544 H 60.20919 49.78024 V 47.656 52.218306 h 5.19245 c 3.24615,0 5.35562,0.05688 5.62779,0.151777 0.45794,0.159637 0.72627,0.547521 0.79674,1.151744 l 0.0422,0.362098 2.09331,0.04044 c 1.73835,0.03354 2.14025,0.08268 2.3702,0.289682 0.41761,0.375988 0.54273,0.830825 0.36713,1.334542 -0.2546,0.730375 -0.72725,0.870038 -2.94456,0.870038 h -1.96644 l 0.0401,2.063896 0.0402,2.063896 2.09522,0.04044 c 1.88657,0.03628 2.12693,0.07021 2.41373,0.33962 0.65213,0.61265 0.54587,1.53289 -0.22289,1.93044 -0.32874,0.17001 -0.90788,0.2242 -2.39601,0.2242 h -1.96247 v 2.00355 c 0,1.10195 0.0443,2.04791 0.0986,2.10214 0.0542,0.0542 2.12357,0.0814 4.59854,0.0604 l 4.49993,-0.0382 z M 54.84947,49.654371 c -0.88168,-0.322299 -1.14963,-1.368274 -0.5135,-2.004407 l 0.35549,-0.355502 5.47411,0.0047 c 5.95475,0.0047 5.84268,-0.0102 6.13648,0.832573 0.20757,0.595446 -0.12674,1.246517 -0.752,1.464492 -0.47289,0.164853 -10.26317,0.218145 -10.70058,0.05821 z m 10.7178,-11.122452 v -2.100123 h -5.43132 -5.43132 v 2.003567 c 0,1.101949 0.0434,2.047001 0.0966,2.100103 0.0531,0.0531 2.49717,0.09657 5.4313,0.09657 h 5.33477 z"
       id="path4381" />
  </g>
</svg>
