<?xml version="1.0" encoding="UTF-8" standalone="no"?>
<!-- Created with Inkscape (http://www.inkscape.org/) -->

<svg
   width="132"
   height="132"
   viewBox="0 0 132 132"
   version="1.1"
   id="svg1522"
   inkscape:version="1.1.1 (3bf5ae0d25, 2021-09-20)"
   sodipodi:docname="Poblado.svg"
   inkscape:export-filename="/home/jonathanpc/Documentos/Clase/3A/SO/proyecto-catan-SO/cliente/Media/Images/Poblado.png"
   inkscape:export-xdpi="96"
   inkscape:export-ydpi="96"
   xmlns:inkscape="http://www.inkscape.org/namespaces/inkscape"
   xmlns:sodipodi="http://sodipodi.sourceforge.net/DTD/sodipodi-0.dtd"
   xmlns="http://www.w3.org/2000/svg"
   xmlns:svg="http://www.w3.org/2000/svg">
  <sodipodi:namedview
     id="namedview1524"
     pagecolor="#ffffff"
     bordercolor="#666666"
     borderopacity="1.0"
     inkscape:pageshadow="2"
     inkscape:pageopacity="0.0"
     inkscape:pagecheckerboard="0"
     inkscape:document-units="px"
     showgrid="true"
     units="px"
     width="132px"
     height="4096px"
     inkscape:zoom="3.0549223"
     inkscape:cx="62.522048"
     inkscape:cy="65.795453"
     inkscape:window-width="1366"
     inkscape:window-height="739"
     inkscape:window-x="0"
     inkscape:window-y="0"
     inkscape:window-maximized="1"
     inkscape:current-layer="g441"
     inkscape:snap-bbox="true"
     inkscape:snap-intersection-paths="false"
     inkscape:object-nodes="true"
     inkscape:snap-smooth-nodes="false"
     inkscape:object-paths="false"
     inkscape:snap-midpoints="true"
     showguides="false">
    <inkscape:grid
       type="axonomgrid"
       id="grid36"
       spacingy="256"
       empspacing="2"
       units="px"
       originy="128" />
  </sodipodi:namedview>
  <defs
     id="defs1519">
    <clipPath
       clipPathUnits="userSpaceOnUse"
       id="clipPath3924">
      <path
         sodipodi:type="star"
         style="fill:#ff482a;fill-opacity:0.704312;fill-rule:evenodd;stroke:#ec2727;stroke-width:0;stroke-linecap:round;stroke-linejoin:round;stroke-opacity:1"
         id="path3926"
         inkscape:flatsided="true"
         sodipodi:sides="6"
         sodipodi:cx="456.68387"
         sodipodi:cy="488.34238"
         sodipodi:r1="230.39999"
         sodipodi:r2="199.53226"
         sodipodi:arg1="0.52359878"
         sodipodi:arg2="1.0471976"
         inkscape:rounded="0.1"
         inkscape:randomized="0"
         d="m 656.21612,603.54237 c -11.52,19.95323 -176.49225,115.2 -199.53225,115.2 -23.04,0 -188.01225,-95.24677 -199.53225,-115.2 -11.52,-19.95322 -11.52,-210.44677 0,-230.39999 11.52,-19.95323 176.49225,-115.2 199.53225,-115.2 23.04,0 188.01225,95.24678 199.53225,115.2 11.52,19.95323 11.52,210.44677 0,230.39999 z" />
    </clipPath>
    <clipPath
       clipPathUnits="userSpaceOnUse"
       id="clipPath3924-3">
      <path
         sodipodi:type="star"
         style="fill:#ff482a;fill-opacity:0.704312;fill-rule:evenodd;stroke:#ec2727;stroke-width:0;stroke-linecap:round;stroke-linejoin:round;stroke-opacity:1"
         id="path3926-6"
         inkscape:flatsided="true"
         sodipodi:sides="6"
         sodipodi:cx="456.68387"
         sodipodi:cy="488.34238"
         sodipodi:r1="230.39999"
         sodipodi:r2="199.53226"
         sodipodi:arg1="0.52359878"
         sodipodi:arg2="1.0471976"
         inkscape:rounded="0.1"
         inkscape:randomized="0"
         d="m 656.21612,603.54237 c -11.52,19.95323 -176.49225,115.2 -199.53225,115.2 -23.04,0 -188.01225,-95.24677 -199.53225,-115.2 -11.52,-19.95322 -11.52,-210.44677 0,-230.39999 11.52,-19.95323 176.49225,-115.2 199.53225,-115.2 23.04,0 188.01225,95.24678 199.53225,115.2 11.52,19.95323 11.52,210.44677 0,230.39999 z" />
    </clipPath>
    <clipPath
       clipPathUnits="userSpaceOnUse"
       id="clipPath5817">
      <path
         id="path5819"
         style="fill:#7fff2a;stroke:none;stroke-width:5.93201;stroke-linejoin:round"
         d="m 2083.6424,1791.7302 c -18.9823,32.8787 -290.8203,189.8243 -328.7852,189.8243 -37.9648,0 -309.8027,-156.9458 -328.7851,-189.8243 -18.9825,-32.8786 -18.9825,-346.77 0,-379.6485 18.9824,-32.8786 290.8203,-189.8243 328.7851,-189.8243 37.9649,0 309.8029,156.9458 328.7852,189.8243 18.9826,32.8787 18.9826,346.77 0,379.6485 z" />
    </clipPath>
    <clipPath
       clipPathUnits="userSpaceOnUse"
       id="clipPath5817-7">
      <path
         id="path5819-5"
         style="fill:#7fff2a;stroke:none;stroke-width:5.93201;stroke-linejoin:round"
         d="m 2083.6424,1791.7302 c -18.9823,32.8787 -290.8203,189.8243 -328.7852,189.8243 -37.9648,0 -309.8027,-156.9458 -328.7851,-189.8243 -18.9825,-32.8786 -18.9825,-346.77 0,-379.6485 18.9824,-32.8786 290.8203,-189.8243 328.7851,-189.8243 37.9649,0 309.8029,156.9458 328.7852,189.8243 18.9826,32.8787 18.9826,346.77 0,379.6485 z" />
    </clipPath>
    <clipPath
       clipPathUnits="userSpaceOnUse"
       id="clipPath978">
      <path
         id="path980"
         style="fill:#7fff2a;stroke:none;stroke-width:5.93201;stroke-linejoin:round"
         d="m 2078.081,1770.1804 c -18.9823,32.8787 -290.8203,189.8244 -328.7852,189.8244 -37.9648,0 -309.8027,-156.9459 -328.7851,-189.8244 -18.9825,-32.8786 -18.9825,-346.77 0,-379.6485 18.9824,-32.8786 290.8203,-189.8243 328.7851,-189.8243 37.9649,0 309.8029,156.9458 328.7852,189.8243 18.9826,32.8788 18.9826,346.77 0,379.6485 z" />
    </clipPath>
    <clipPath
       clipPathUnits="userSpaceOnUse"
       id="clipPath1120">
      <path
         id="path1122"
         style="fill:#cccccc;stroke:none;stroke-width:2.29183;stroke-linejoin:round"
         d="m 3171.1954,1063.0178 c -7.3338,12.7026 -112.3584,73.3386 -127.0262,73.3386 -14.6677,0 -119.6923,-60.636 -127.0261,-73.3386 -7.3339,-12.7027 -7.3339,-133.97465 0,-146.67725 7.3338,-12.70267 112.3584,-73.33861 127.0261,-73.33861 14.6678,0 119.6924,60.636 127.0262,73.33861 7.3339,12.70267 7.3339,133.97465 0,146.67725 z" />
    </clipPath>
    <clipPath
       clipPathUnits="userSpaceOnUse"
       id="clipPath6120">
      <path
         sodipodi:type="star"
         style="fill:#ffcc00;fill-opacity:0.647541;fill-rule:evenodd;stroke:#5d5d5d;stroke-width:0;stroke-linecap:round;stroke-linejoin:round;stroke-miterlimit:4;stroke-dasharray:none;stroke-opacity:1;paint-order:normal"
         id="path6122"
         inkscape:flatsided="true"
         sodipodi:sides="6"
         sodipodi:cx="335.8732"
         sodipodi:cy="299.88458"
         sodipodi:r1="230.39999"
         sodipodi:r2="199.53226"
         sodipodi:arg1="0.52359878"
         sodipodi:arg2="1.0471976"
         inkscape:rounded="0.1"
         inkscape:randomized="0"
         d="m 535.40545,415.08458 c -11.52,19.95323 -176.49225,115.2 -199.53225,115.2 -23.04,0 -188.01225,-95.24678 -199.53225,-115.2 -11.52,-19.95323 -11.52,-210.44677 0,-230.4 11.52,-19.95322 176.49225,-115.199991 199.53225,-115.199991 23.04,0 188.01225,95.246771 199.53225,115.200001 11.52,19.95322 11.52,210.44677 0,230.39999 z" />
    </clipPath>
    <clipPath
       clipPathUnits="userSpaceOnUse"
       id="clipPath6120-2">
      <path
         sodipodi:type="star"
         style="fill:#ffcc00;fill-opacity:0.647541;fill-rule:evenodd;stroke:#5d5d5d;stroke-width:0;stroke-linecap:round;stroke-linejoin:round;stroke-miterlimit:4;stroke-dasharray:none;stroke-opacity:1;paint-order:normal"
         id="path6122-9"
         inkscape:flatsided="true"
         sodipodi:sides="6"
         sodipodi:cx="335.8732"
         sodipodi:cy="299.88458"
         sodipodi:r1="230.39999"
         sodipodi:r2="199.53226"
         sodipodi:arg1="0.52359878"
         sodipodi:arg2="1.0471976"
         inkscape:rounded="0.1"
         inkscape:randomized="0"
         d="m 535.40545,415.08458 c -11.52,19.95323 -176.49225,115.2 -199.53225,115.2 -23.04,0 -188.01225,-95.24678 -199.53225,-115.2 -11.52,-19.95323 -11.52,-210.44677 0,-230.4 11.52,-19.95322 176.49225,-115.199991 199.53225,-115.199991 23.04,0 188.01225,95.246771 199.53225,115.200001 11.52,19.95322 11.52,210.44677 0,230.39999 z" />
    </clipPath>
  </defs>
  <g
     inkscape:label="Layer 1"
     inkscape:groupmode="layer"
     id="layer1">
    <g
       inkscape:label="Image"
       id="g441"
       transform="translate(-221.7025)">
      <g
         id="g2104" />
      <circle
         style="fill:#ffffff;fill-opacity:1;fill-rule:evenodd;stroke:#000000;stroke-width:3.77953;stroke-linecap:round;stroke-linejoin:round"
         id="path1202"
         cx="287.70251"
         cy="66"
         r="64" />
      <path
         id="path53"
         style="fill:#000000;stroke:#000000;stroke-width:0.142063"
         d="m 251.96002,83.734086 c -0.33432,-0.16187 -0.61997,-0.68253 -0.61997,-1.13002 0,-0.1586 0.18687,-0.47523 0.41526,-0.70362 l 0.41526,-0.41527 h 35.53758 35.53758 l 0.41526,0.41527 c 0.60685,0.60684 0.48628,1.50826 -0.24637,1.84207 -0.47197,0.21505 -71.01026,0.20672 -71.4546,-0.009 z m -0.20471,-4.79511 c -0.44406,-0.44406 -0.50965,-0.78486 -0.25753,-1.33818 0.23817,-0.52272 0.7122,-0.66164 2.25787,-0.66164 h 1.4078 l 0.0417,-4.11608 c 0.0409,-4.04062 0.0475,-4.12189 0.35833,-4.43255 0.24538,-0.24521 0.52522,-0.32973 1.24306,-0.37544 l 0.92638,-0.0589 v -1.97234 -1.97233 h -1.14296 c -1.0241,0 -1.17923,-0.0363 -1.49166,-0.3487 -0.23941,-0.23941 -0.3487,-0.50695 -0.3487,-0.85362 0,-0.53001 0.53312,-1.08275 8.39935,-8.70828 l 1.79343,-1.73856 h 0.99771 0.9977 l 0.0501,-1.78813 c 0.0492,-1.75608 0.0573,-1.79427 0.44872,-2.13094 0.3838,-0.33009 0.47931,-0.34281 2.57349,-0.34281 2.96786,0 2.90114,-0.0539 2.95485,2.38656 l 0.0397,1.80429 4.78337,0.0711 4.78338,0.0711 0.40191,0.35038 c 0.22106,0.19271 1.3768,1.31065 2.56833,2.48432 l 2.16639,2.13396 2.02446,-1.99632 c 2.76247,-2.72407 3.14631,-3.04336 3.65858,-3.04336 h 0.42579 v -1.78225 c 0,-1.70285 0.0155,-1.79778 0.34869,-2.13095 0.34124,-0.34123 0.39678,-0.3486 2.59266,-0.34418 2.99523,0.006 3.02529,0.032 3.02529,2.61431 v 1.64306 h 5.34382 5.34382 l 1.65278,1.59673 c 0.90903,0.87819 3.20304,3.112 5.0978,4.964 3.23823,3.16515 3.44502,3.398 3.44502,3.87916 0,0.35404 -0.10751,0.61938 -0.34869,0.86057 -0.31582,0.31581 -0.46318,0.3487 -1.5627,0.3487 h -1.21399 v 6.46386 6.46386 h 2.76354 c 2.94132,0 3.34593,0.0741 3.61363,0.66164 0.25211,0.55332 0.18653,0.89412 -0.25754,1.33817 l -0.41525,0.41526 h -35.53758 -35.53758 z m 15.0696,-5.26725 v -3.26745 h -4.61705 -4.61704 v 3.26745 3.26743 h 4.61704 4.61705 z m 7.67139,0 v -3.26745 h -2.62816 -2.62817 v 3.26745 3.26743 h 2.62817 2.62816 z m 12.6436,-3.19643 v -6.46386 h -5.11426 -5.11427 v 6.46386 6.46386 h 5.11427 5.11426 z m -8.25058,4.20179 c -0.40372,-0.40372 -0.41526,-0.45482 -0.41526,-1.83889 0,-1.29298 0.0309,-1.45957 0.33675,-1.81513 0.25644,-0.29814 0.4641,-0.39149 0.87079,-0.39149 0.40668,0 0.61434,0.0933 0.87079,0.39149 0.30584,0.35556 0.33674,0.52215 0.33674,1.81513 0,1.38407 -0.0116,1.43517 -0.41526,1.83889 -0.25034,0.25034 -0.56499,0.41526 -0.79227,0.41526 -0.22728,0 -0.54194,-0.16492 -0.79228,-0.41526 z m 5.05416,0.25121 c -0.56508,-0.30907 -0.63928,-0.55413 -0.63928,-2.11134 0,-1.38533 0.0265,-1.53507 0.31964,-1.80334 0.46944,-0.42968 0.88649,-0.51204 1.35801,-0.26819 0.60768,0.31423 0.774,0.86302 0.7163,2.36358 -0.0468,1.21707 -0.0747,1.31915 -0.4485,1.64059 -0.42863,0.36858 -0.8529,0.42662 -1.30617,0.1787 z m -5.12072,-5.86716 c -0.32632,-0.32633 -0.3487,-0.44525 -0.3487,-1.85328 0,-1.40803 0.0223,-1.52695 0.3487,-1.85328 0.4935,-0.49349 1.12102,-0.46353 1.66399,0.0795 l 0.42813,0.42813 -0.0484,1.50251 c -0.0444,1.37776 -0.0762,1.52504 -0.38377,1.77385 -0.47836,0.387 -1.23065,0.35193 -1.65996,-0.0774 z m 4.77588,-0.0256 c -0.25505,-0.32425 -0.29444,-0.57217 -0.29444,-1.85329 0,-1.38083 0.0231,-1.50208 0.3487,-1.82765 0.45037,-0.45037 1.0759,-0.45386 1.59321,-0.009 0.35549,0.30578 0.40053,0.44818 0.44969,1.42182 0.0997,1.97514 -0.21456,2.6423 -1.24479,2.6423 -0.43354,0 -0.62358,-0.0834 -0.85237,-0.37431 z m 11.21266,4.6362 v -3.26745 h -2.62817 -2.62817 v 3.26745 3.26744 h 2.62817 2.62817 z m 7.67139,0 v -3.26745 h -2.62816 -2.62816 v 3.26745 3.26744 h 2.62816 2.62816 z m 12.64361,-3.19642 v -6.46387 h -5.11427 -5.11427 v 6.46386 6.46387 h 5.11427 5.11427 z m -8.05279,4.47936 c -0.49879,-0.2096 -0.61306,-0.60759 -0.61306,-2.13532 0,-1.61215 0.0862,-1.87242 0.70489,-2.12869 0.50515,-0.20925 1.19995,0.002 1.43149,0.43407 0.0751,0.14042 0.13663,0.92368 0.13663,1.74057 0,1.20575 -0.0468,1.54161 -0.24861,1.7847 -0.28804,0.34693 -0.96369,0.49279 -1.41134,0.30467 z m 4.54465,-0.20507 c -0.3738,-0.32145 -0.4017,-0.42352 -0.4485,-1.64059 -0.0577,-1.50056 0.10861,-2.04935 0.7163,-2.36359 0.47152,-0.24383 0.88855,-0.16147 1.358,0.26822 0.29353,0.26866 0.31928,0.41523 0.31513,1.79496 -0.005,1.56095 -0.0826,1.81043 -0.66095,2.11849 -0.47175,0.25126 -0.84092,0.20006 -1.27998,-0.17749 z m -4.84881,-5.66856 c -0.2789,-0.29686 -0.3089,-0.48212 -0.3089,-1.90754 0,-1.53633 0.01,-1.58664 0.37432,-1.87318 0.50664,-0.39852 1.11862,-0.37709 1.54999,0.0542 0.32746,0.32746 0.3487,0.44279 0.3487,1.89309 0,1.43064 -0.0242,1.56713 -0.3288,1.85327 -0.45057,0.42329 -1.22784,0.41382 -1.63531,-0.0199 z m 4.80898,0.0483 c -0.39018,-0.39018 -0.46686,-0.80551 -0.40897,-2.21508 0.0466,-1.13406 0.0791,-1.24749 0.4488,-1.56551 0.52087,-0.44803 1.14515,-0.44575 1.59674,0.006 0.32556,0.32557 0.3487,0.44683 0.3487,1.82767 0,1.28111 -0.0394,1.52903 -0.29444,1.85327 -0.37402,0.4755 -1.25998,0.52465 -1.69083,0.0938 z m -37.08203,-3.129 v -1.98888 h -7.17417 -7.17418 v 1.98888 1.98888 h 7.17418 7.17417 z m 27.98639,0 v -1.98888 h -6.46386 -6.46387 v 1.98888 1.98888 h 6.46387 6.46386 z m -26.86398,-7.82055 3.46645,-3.40242 h -6.59571 -6.59572 l -3.47666,3.40196 -3.47666,3.40197 6.60593,5e-4 6.60592,5e-4 3.46645,-3.4024 z m 9.73414,0.23957 -3.25618,-3.17702 -2.62817,2.52584 c -1.44549,1.38921 -2.91317,2.81887 -3.26151,3.17702 l -0.63334,0.65118 h 6.5177 6.51769 z m -3.61134,2.22432 c -0.8648,-0.31613 -1.12763,-1.34209 -0.50368,-1.96604 0.51341,-0.51342 1.22329,-0.47647 1.69859,0.0883 0.20228,0.2404 0.36778,0.53125 0.36778,0.64634 0,0.3892 -0.40279,0.99124 -0.77738,1.16192 -0.4013,0.18284 -0.4606,0.18808 -0.78531,0.0693 z m 21.74614,-2.44949 3.47003,-3.40221 -6.6077,-0.008 -6.60771,-0.008 -2.12679,2.13035 -2.1268,2.13035 1.27323,1.27916 1.27324,1.27916 h 3.99123 3.99123 z m 11.13937,1.54549 c -3.03764,-3.0573 -4.57494,-4.43072 -4.81061,-4.29781 -0.11395,0.0643 -1.58232,1.47532 -3.26304,3.13568 l -3.05585,3.01883 h 6.48714 6.48713 z m -5.12647,0.80186 c -0.49399,-0.21548 -0.62503,-0.45625 -0.62503,-1.14843 0,-0.34426 0.1032,-0.55647 0.37432,-0.76973 0.80914,-0.63648 1.89869,-0.14734 1.89869,0.85238 0,0.53355 -0.36767,1.12618 -0.69869,1.12618 -0.0717,0 -0.21558,0.0297 -0.31964,0.0659 -0.10406,0.0362 -0.38741,-0.0206 -0.62965,-0.12626 z m -38.86868,-9.13816 0.0423,-0.8879 h -0.64606 -0.64606 v 0.93158 0.93158 l 0.60376,-0.0437 0.60377,-0.0437 z m 26.73656,0.0355 v -0.92341 h -0.56825 -0.56825 v 0.92341 0.9234 h 0.56825 0.56825 z" />
    </g>
  </g>
</svg>
