<?xml version="1.0" encoding="UTF-8" standalone="no"?>
<!-- Created with Inkscape (http://www.inkscape.org/) -->

<svg
   width="162"
   height="162"
   viewBox="0 0 162 162"
   version="1.1"
   id="svg1522"
   inkscape:version="1.1.1 (3bf5ae0d25, 2021-09-20)"
   sodipodi:docname="Poblado.svg"
   inkscape:export-filename="/home/jonathanpc/Documentos/Clase/3A/SO/proyecto-catan-SO/cliente/Media/Images/PobladoVerde.png"
   inkscape:export-xdpi="96"
   inkscape:export-ydpi="96"
   xmlns:inkscape="http://www.inkscape.org/namespaces/inkscape"
   xmlns:sodipodi="http://sodipodi.sourceforge.net/DTD/sodipodi-0.dtd"
   xmlns:xlink="http://www.w3.org/1999/xlink"
   xmlns="http://www.w3.org/2000/svg"
   xmlns:svg="http://www.w3.org/2000/svg">
  <sodipodi:namedview
     id="namedview1524"
     pagecolor="#ffffff"
     bordercolor="#666666"
     borderopacity="1.0"
     inkscape:pageshadow="2"
     inkscape:pageopacity="0.0"
     inkscape:pagecheckerboard="0"
     inkscape:document-units="px"
     showgrid="true"
     units="px"
     width="160px"
     height="4096px"
     inkscape:zoom="2.1601563"
     inkscape:cx="78.23508"
     inkscape:cy="44.904159"
     inkscape:window-width="1366"
     inkscape:window-height="739"
     inkscape:window-x="0"
     inkscape:window-y="0"
     inkscape:window-maximized="1"
     inkscape:current-layer="g21022"
     inkscape:snap-bbox="true"
     inkscape:snap-intersection-paths="false"
     inkscape:object-nodes="true"
     inkscape:snap-smooth-nodes="false"
     inkscape:object-paths="false"
     inkscape:snap-midpoints="true"
     showguides="false">
    <inkscape:grid
       type="axonomgrid"
       id="grid36"
       spacingy="256"
       empspacing="2"
       units="px"
       originy="128" />
  </sodipodi:namedview>
  <defs
     id="defs1519">
    <clipPath
       clipPathUnits="userSpaceOnUse"
       id="clipPath3924">
      <path
         sodipodi:type="star"
         style="fill:#ff482a;fill-opacity:0.704312;fill-rule:evenodd;stroke:#ec2727;stroke-width:0;stroke-linecap:round;stroke-linejoin:round;stroke-opacity:1"
         id="path3926"
         inkscape:flatsided="true"
         sodipodi:sides="6"
         sodipodi:cx="456.68387"
         sodipodi:cy="488.34238"
         sodipodi:r1="230.39999"
         sodipodi:r2="199.53226"
         sodipodi:arg1="0.52359878"
         sodipodi:arg2="1.0471976"
         inkscape:rounded="0.1"
         inkscape:randomized="0"
         d="m 656.21612,603.54237 c -11.52,19.95323 -176.49225,115.2 -199.53225,115.2 -23.04,0 -188.01225,-95.24677 -199.53225,-115.2 -11.52,-19.95322 -11.52,-210.44677 0,-230.39999 11.52,-19.95323 176.49225,-115.2 199.53225,-115.2 23.04,0 188.01225,95.24678 199.53225,115.2 11.52,19.95323 11.52,210.44677 0,230.39999 z" />
    </clipPath>
    <clipPath
       clipPathUnits="userSpaceOnUse"
       id="clipPath3924-3">
      <path
         sodipodi:type="star"
         style="fill:#ff482a;fill-opacity:0.704312;fill-rule:evenodd;stroke:#ec2727;stroke-width:0;stroke-linecap:round;stroke-linejoin:round;stroke-opacity:1"
         id="path3926-6"
         inkscape:flatsided="true"
         sodipodi:sides="6"
         sodipodi:cx="456.68387"
         sodipodi:cy="488.34238"
         sodipodi:r1="230.39999"
         sodipodi:r2="199.53226"
         sodipodi:arg1="0.52359878"
         sodipodi:arg2="1.0471976"
         inkscape:rounded="0.1"
         inkscape:randomized="0"
         d="m 656.21612,603.54237 c -11.52,19.95323 -176.49225,115.2 -199.53225,115.2 -23.04,0 -188.01225,-95.24677 -199.53225,-115.2 -11.52,-19.95322 -11.52,-210.44677 0,-230.39999 11.52,-19.95323 176.49225,-115.2 199.53225,-115.2 23.04,0 188.01225,95.24678 199.53225,115.2 11.52,19.95323 11.52,210.44677 0,230.39999 z" />
    </clipPath>
    <clipPath
       clipPathUnits="userSpaceOnUse"
       id="clipPath5817">
      <path
         id="path5819"
         style="fill:#7fff2a;stroke:none;stroke-width:5.93201;stroke-linejoin:round"
         d="m 2083.6424,1791.7302 c -18.9823,32.8787 -290.8203,189.8243 -328.7852,189.8243 -37.9648,0 -309.8027,-156.9458 -328.7851,-189.8243 -18.9825,-32.8786 -18.9825,-346.77 0,-379.6485 18.9824,-32.8786 290.8203,-189.8243 328.7851,-189.8243 37.9649,0 309.8029,156.9458 328.7852,189.8243 18.9826,32.8787 18.9826,346.77 0,379.6485 z" />
    </clipPath>
    <clipPath
       clipPathUnits="userSpaceOnUse"
       id="clipPath5817-7">
      <path
         id="path5819-5"
         style="fill:#7fff2a;stroke:none;stroke-width:5.93201;stroke-linejoin:round"
         d="m 2083.6424,1791.7302 c -18.9823,32.8787 -290.8203,189.8243 -328.7852,189.8243 -37.9648,0 -309.8027,-156.9458 -328.7851,-189.8243 -18.9825,-32.8786 -18.9825,-346.77 0,-379.6485 18.9824,-32.8786 290.8203,-189.8243 328.7851,-189.8243 37.9649,0 309.8029,156.9458 328.7852,189.8243 18.9826,32.8787 18.9826,346.77 0,379.6485 z" />
    </clipPath>
    <clipPath
       clipPathUnits="userSpaceOnUse"
       id="clipPath978">
      <path
         id="path980"
         style="fill:#7fff2a;stroke:none;stroke-width:5.93201;stroke-linejoin:round"
         d="m 2078.081,1770.1804 c -18.9823,32.8787 -290.8203,189.8244 -328.7852,189.8244 -37.9648,0 -309.8027,-156.9459 -328.7851,-189.8244 -18.9825,-32.8786 -18.9825,-346.77 0,-379.6485 18.9824,-32.8786 290.8203,-189.8243 328.7851,-189.8243 37.9649,0 309.8029,156.9458 328.7852,189.8243 18.9826,32.8788 18.9826,346.77 0,379.6485 z" />
    </clipPath>
    <clipPath
       clipPathUnits="userSpaceOnUse"
       id="clipPath1120">
      <path
         id="path1122"
         style="fill:#cccccc;stroke:none;stroke-width:2.29183;stroke-linejoin:round"
         d="m 3171.1954,1063.0178 c -7.3338,12.7026 -112.3584,73.3386 -127.0262,73.3386 -14.6677,0 -119.6923,-60.636 -127.0261,-73.3386 -7.3339,-12.7027 -7.3339,-133.97465 0,-146.67725 7.3338,-12.70267 112.3584,-73.33861 127.0261,-73.33861 14.6678,0 119.6924,60.636 127.0262,73.33861 7.3339,12.70267 7.3339,133.97465 0,146.67725 z" />
    </clipPath>
    <clipPath
       clipPathUnits="userSpaceOnUse"
       id="clipPath6120">
      <path
         sodipodi:type="star"
         style="fill:#ffcc00;fill-opacity:0.647541;fill-rule:evenodd;stroke:#5d5d5d;stroke-width:0;stroke-linecap:round;stroke-linejoin:round;stroke-miterlimit:4;stroke-dasharray:none;stroke-opacity:1;paint-order:normal"
         id="path6122"
         inkscape:flatsided="true"
         sodipodi:sides="6"
         sodipodi:cx="335.8732"
         sodipodi:cy="299.88458"
         sodipodi:r1="230.39999"
         sodipodi:r2="199.53226"
         sodipodi:arg1="0.52359878"
         sodipodi:arg2="1.0471976"
         inkscape:rounded="0.1"
         inkscape:randomized="0"
         d="m 535.40545,415.08458 c -11.52,19.95323 -176.49225,115.2 -199.53225,115.2 -23.04,0 -188.01225,-95.24678 -199.53225,-115.2 -11.52,-19.95323 -11.52,-210.44677 0,-230.4 11.52,-19.95322 176.49225,-115.199991 199.53225,-115.199991 23.04,0 188.01225,95.246771 199.53225,115.200001 11.52,19.95322 11.52,210.44677 0,230.39999 z" />
    </clipPath>
    <clipPath
       clipPathUnits="userSpaceOnUse"
       id="clipPath6120-2">
      <path
         sodipodi:type="star"
         style="fill:#ffcc00;fill-opacity:0.647541;fill-rule:evenodd;stroke:#5d5d5d;stroke-width:0;stroke-linecap:round;stroke-linejoin:round;stroke-miterlimit:4;stroke-dasharray:none;stroke-opacity:1;paint-order:normal"
         id="path6122-9"
         inkscape:flatsided="true"
         sodipodi:sides="6"
         sodipodi:cx="335.8732"
         sodipodi:cy="299.88458"
         sodipodi:r1="230.39999"
         sodipodi:r2="199.53226"
         sodipodi:arg1="0.52359878"
         sodipodi:arg2="1.0471976"
         inkscape:rounded="0.1"
         inkscape:randomized="0"
         d="m 535.40545,415.08458 c -11.52,19.95323 -176.49225,115.2 -199.53225,115.2 -23.04,0 -188.01225,-95.24678 -199.53225,-115.2 -11.52,-19.95323 -11.52,-210.44677 0,-230.4 11.52,-19.95322 176.49225,-115.199991 199.53225,-115.199991 23.04,0 188.01225,95.246771 199.53225,115.200001 11.52,19.95322 11.52,210.44677 0,230.39999 z" />
    </clipPath>
    <linearGradient
       inkscape:collect="always"
       xlink:href="#linearGradient21098"
       id="linearGradient21100"
       x1="1810.0129"
       y1="898.25983"
       x2="1970.913"
       y2="898.25983"
       gradientUnits="userSpaceOnUse" />
    <linearGradient
       id="linearGradient21098"
       inkscape:swatch="solid">
      <stop
         style="stop-color:#000000;stop-opacity:1;"
         offset="0"
         id="stop21096" />
    </linearGradient>
  </defs>
  <g
     inkscape:label="Layer 1"
     inkscape:groupmode="layer"
     id="layer1">
    <g
       inkscape:label="Image"
       id="g441"
       transform="translate(-220.70251,1.0000033)">
      <g
         id="g2104" />
      <g
         id="g21112"
         transform="translate(-1588.7605,-818.25983)">
        <circle
           style="fill:#dbe3db;fill-opacity:1;stroke:url(#linearGradient21100);stroke-width:1;stroke-miterlimit:4;stroke-dasharray:none;stroke-opacity:1"
           id="path5348"
           cx="1890.463"
           cy="898.25983"
           r="80" />
        <g
           id="g21022"
           transform="translate(181.95735,183.96539)">
          <g
             id="g10487"
             transform="translate(-174.12604,-147.29058)"
             style="fill:#b7c8be;fill-opacity:1.0">
            <path
               style="fill:#b7c8be;fill-opacity:1.0;stroke-width:0.144092"
               d="m 1843.943,879.98799 c 0,-17.15776 0.017,-24.17684 0.037,-15.59796 0.021,8.57888 0.021,22.61705 0,31.19593 -0.02,8.57888 -0.037,1.5598 -0.037,-15.59797 z m 78.8183,-0.072 c 0,-17.19739 0.017,-24.21129 0.037,-15.58645 0.021,8.62485 0.021,22.69544 0,31.26798 -0.021,8.57255 -0.037,1.51586 -0.037,-15.68153 z"
               id="path10499" />
            <path
               style="fill:#b7c8be;fill-opacity:1.0;stroke-width:0.144092"
               d="m 1824.0956,852.93477 c 2.8728,-0.0218 7.5738,-0.0218 10.4467,0 2.8728,0.0218 0.5223,0.0397 -5.2234,0.0397 -5.7456,0 -8.0961,-0.0178 -5.2233,-0.0397 z m 108.069,0 c 2.8729,-0.0218 7.5739,-0.0218 10.4467,0 2.8728,0.0218 0.5223,0.0397 -5.2233,0.0397 -5.7457,0 -8.0962,-0.0178 -5.2234,-0.0397 z"
               id="path10497" />
            <path
               style="fill:#b7c8be;fill-opacity:1.0;stroke-width:0.144092"
               d="m 1831.9588,848.75611 c 2.2048,-0.0224 5.7711,-0.0224 7.9251,4e-5 2.1539,0.0224 0.35,0.0407 -4.0088,0.0407 -4.3588,-2e-5 -6.1211,-0.0183 -3.9163,-0.0407 z m 93.7577,0.004 c 7.2425,-0.10018 12.9684,-0.10177 12.9684,-0.004 -10e-5,0.0594 -3.5502,0.0933 -7.8891,0.0753 -4.339,-0.018 -6.6247,-0.0503 -5.0793,-0.0717 z"
               id="path10495" />
            <path
               style="fill:#b7c8be;fill-opacity:1.0;stroke-width:0.144092"
               d="m 1926.94,884.16666 c 0,-17.15776 0.017,-24.17684 0.037,-15.59796 0.021,8.57888 0.021,22.61705 0,31.19593 -0.021,8.57888 -0.037,1.5598 -0.037,-15.59797 z"
               id="path10493" />
            <path
               style="fill:#b7c8be;fill-opacity:1.0;stroke-width:0.144092"
               d="m 1839.7643,884.09462 c 0,-17.19739 0.017,-24.21129 0.037,-15.58645 0.021,8.62485 0.021,22.69544 0,31.26798 -0.021,8.57255 -0.037,1.51586 -0.037,-15.68153 z m 4.0304,26.98124 c -0.038,-0.0991 -0.052,-14.15345 -0.031,-31.23196 l 0.037,-31.05184 0.036,31.15965 0.036,31.15965 39.5173,0.0365 39.5172,0.0365 -39.5217,0.0358 c -31.5113,0.0285 -39.5357,-7.2e-4 -39.5903,-0.14435 z"
               id="path10491" />
            <path
               style="fill:#b7c8be;fill-opacity:1.0;stroke-width:0.144092"
               d="m 1839.8376,884.09462 v -31.19593 h -10.4466 -10.4467 v -1.54899 -1.54899 l 31.9486,-21.28961 c 27.216,-18.13593 32.0232,-21.2896 32.4523,-21.2896 0.429,0 5.2362,3.15367 32.4522,21.2896 l 31.9486,21.28961 v 1.54899 1.54899 h -10.4467 -10.4466 v 31.19593 31.19593 h -43.5158 -43.5159 z m 82.9971,-4.03458 v -31.19593 h 8.028 c 6.7776,0 7.9951,-0.0305 7.817,-0.19605 -0.1161,-0.10783 -12.6144,-8.47079 -27.774,-18.58436 l -27.5629,-18.3883 -27.7282,18.47628 c -15.2505,10.16196 -27.7301,18.52492 -27.7324,18.58436 0,0.0594 3.5621,0.10807 7.9209,0.10807 h 7.925 v 31.09987 c 0,17.10493 0.043,31.1431 0.096,31.19593 0.053,0.0528 17.8518,0.0961 39.5533,0.0961 h 39.4572 z"
               id="path10489" />
          </g>
          <path
             style="fill:#6f916f;fill-opacity:1.0;stroke-width:0.318198"
             d="m 1670.0388,732.15897 v -31.1127 h -7.6894 -7.6895 l 27.2889,-18.19353 27.2889,-18.19352 27.2703,18.19352 27.2703,18.19353 h -7.6254 -7.6253 v 31.1127 31.1127 h -39.2444 -39.2444 z"
             id="path5827" />
        </g>
      </g>
    </g>
  </g>
</svg>
