<?xml version="1.0" encoding="UTF-8" standalone="no"?>
<!-- Created with Inkscape (http://www.inkscape.org/) -->

<svg
   width="443.405"
   height="512"
   viewBox="0 0 443.405 512.00001"
   version="1.1"
   id="svg1522"
   inkscape:version="1.1 (c68e22c387, 2021-05-23)"
   sodipodi:docname="TilePiedra.svg"
   xmlns:inkscape="http://www.inkscape.org/namespaces/inkscape"
   xmlns:sodipodi="http://sodipodi.sourceforge.net/DTD/sodipodi-0.dtd"
   xmlns="http://www.w3.org/2000/svg"
   xmlns:svg="http://www.w3.org/2000/svg">
  <sodipodi:namedview
     id="namedview1524"
     pagecolor="#ffffff"
     bordercolor="#666666"
     borderopacity="1.0"
     inkscape:pageshadow="2"
     inkscape:pageopacity="0.0"
     inkscape:pagecheckerboard="0"
     inkscape:document-units="px"
     showgrid="true"
     units="px"
     width="4096px"
     height="4096px"
     inkscape:zoom="1.5274611"
     inkscape:cx="279.87619"
     inkscape:cy="204.58786"
     inkscape:window-width="1920"
     inkscape:window-height="1027"
     inkscape:window-x="1358"
     inkscape:window-y="-8"
     inkscape:window-maximized="1"
     inkscape:current-layer="layer1"
     inkscape:snap-bbox="true"
     inkscape:snap-intersection-paths="false"
     inkscape:object-nodes="true"
     inkscape:snap-smooth-nodes="false"
     inkscape:object-paths="false"
     inkscape:snap-midpoints="true"
     showguides="false">
    <inkscape:grid
       type="axonomgrid"
       id="grid36"
       spacingy="256"
       empspacing="2"
       units="px"
       originy="128" />
  </sodipodi:namedview>
  <defs
     id="defs1519">
    <clipPath
       clipPathUnits="userSpaceOnUse"
       id="clipPath3924">
      <path
         sodipodi:type="star"
         style="fill:#ff482a;fill-opacity:0.704312;fill-rule:evenodd;stroke:#ec2727;stroke-width:0;stroke-linecap:round;stroke-linejoin:round;stroke-opacity:1"
         id="path3926"
         inkscape:flatsided="true"
         sodipodi:sides="6"
         sodipodi:cx="456.68387"
         sodipodi:cy="488.34238"
         sodipodi:r1="230.39999"
         sodipodi:r2="199.53226"
         sodipodi:arg1="0.52359878"
         sodipodi:arg2="1.0471976"
         inkscape:rounded="0.1"
         inkscape:randomized="0" />
    </clipPath>
    <clipPath
       clipPathUnits="userSpaceOnUse"
       id="clipPath3924-3">
      <path
         sodipodi:type="star"
         style="fill:#ff482a;fill-opacity:0.704312;fill-rule:evenodd;stroke:#ec2727;stroke-width:0;stroke-linecap:round;stroke-linejoin:round;stroke-opacity:1"
         id="path3926-6"
         inkscape:flatsided="true"
         sodipodi:sides="6"
         sodipodi:cx="456.68387"
         sodipodi:cy="488.34238"
         sodipodi:r1="230.39999"
         sodipodi:r2="199.53226"
         sodipodi:arg1="0.52359878"
         sodipodi:arg2="1.0471976"
         inkscape:rounded="0.1"
         inkscape:randomized="0" />
    </clipPath>
    <clipPath
       clipPathUnits="userSpaceOnUse"
       id="clipPath5817">
      <path
         id="path5819"
         style="fill:#7fff2a;stroke:none;stroke-width:5.93201;stroke-linejoin:round"
         d="m 2083.6424,1791.7302 c -18.9823,32.8787 -290.8203,189.8243 -328.7852,189.8243 -37.9648,0 -309.8027,-156.9458 -328.7851,-189.8243 -18.9825,-32.8786 -18.9825,-346.77 0,-379.6485 18.9824,-32.8786 290.8203,-189.8243 328.7851,-189.8243 37.9649,0 309.8029,156.9458 328.7852,189.8243 18.9826,32.8787 18.9826,346.77 0,379.6485 z" />
    </clipPath>
    <clipPath
       clipPathUnits="userSpaceOnUse"
       id="clipPath5817-7">
      <path
         id="path5819-5"
         style="fill:#7fff2a;stroke:none;stroke-width:5.93201;stroke-linejoin:round"
         d="m 2083.6424,1791.7302 c -18.9823,32.8787 -290.8203,189.8243 -328.7852,189.8243 -37.9648,0 -309.8027,-156.9458 -328.7851,-189.8243 -18.9825,-32.8786 -18.9825,-346.77 0,-379.6485 18.9824,-32.8786 290.8203,-189.8243 328.7851,-189.8243 37.9649,0 309.8029,156.9458 328.7852,189.8243 18.9826,32.8787 18.9826,346.77 0,379.6485 z" />
    </clipPath>
    <clipPath
       clipPathUnits="userSpaceOnUse"
       id="clipPath978">
      <path
         id="path980"
         style="fill:#7fff2a;stroke:none;stroke-width:5.93201;stroke-linejoin:round"
         d="m 2078.081,1770.1804 c -18.9823,32.8787 -290.8203,189.8244 -328.7852,189.8244 -37.9648,0 -309.8027,-156.9459 -328.7851,-189.8244 -18.9825,-32.8786 -18.9825,-346.77 0,-379.6485 18.9824,-32.8786 290.8203,-189.8243 328.7851,-189.8243 37.9649,0 309.8029,156.9458 328.7852,189.8243 18.9826,32.8788 18.9826,346.77 0,379.6485 z" />
    </clipPath>
    <clipPath
       clipPathUnits="userSpaceOnUse"
       id="clipPath1120">
      <path
         id="path1122"
         style="fill:#cccccc;stroke:none;stroke-width:2.29183;stroke-linejoin:round"
         d="m 3171.1954,1063.0178 c -7.3338,12.7026 -112.3584,73.3386 -127.0262,73.3386 -14.6677,0 -119.6923,-60.636 -127.0261,-73.3386 -7.3339,-12.7027 -7.3339,-133.97465 0,-146.67725 7.3338,-12.70267 112.3584,-73.33861 127.0261,-73.33861 14.6678,0 119.6924,60.636 127.0262,73.33861 7.3339,12.70267 7.3339,133.97465 0,146.67725 z" />
    </clipPath>
  </defs>
  <g
     inkscape:label="Layer 1"
     inkscape:groupmode="layer"
     id="layer1">
    <path
       sodipodi:type="star"
       style="fill:#ffffff;stroke:#666666;stroke-width:8;stroke-linejoin:round;stroke-miterlimit:4;stroke-dasharray:none"
       id="path4197"
       inkscape:flatsided="true"
       sodipodi:sides="6"
       sodipodi:cx="2660.4299"
       sodipodi:cy="1024"
       sodipodi:r1="256"
       sodipodi:r2="221.7025"
       sodipodi:arg1="1.5707963"
       sodipodi:arg2="2.0943951"
       inkscape:rounded="0"
       inkscape:randomized="0"
       d="m 2660.4299,1280 -221.7025,-128 0,-255.99999 L 2660.4299,768 l 221.7025,127.99999 0,256.00001 z"
       transform="translate(-2438.7274,-768.00001)"
       inkscape:export-filename="C:\Users\albar\OneDrive\Desktop\TilePiedraBmp.png"
       inkscape:export-xdpi="96"
       inkscape:export-ydpi="96" />
    <g
       id="g3058"
       transform="matrix(1.5707961,0,0,1.5707961,-4560.0667,-1298.5842)"
       clip-path="url(#clipPath1120)">
      <path
         id="rect3825"
         style="fill:#ececec;stroke-width:12.1129;stroke-linejoin:round"
         d="m 2883.3718,827.31917 h 324.213 v 324.00003 l -142.2633,-42.3376 -41.2931,8.2263 -140.6566,34.1113 z"
         sodipodi:nodetypes="ccccccc" />
      <path
         id="rect4358"
         style="fill:#808080;stroke-width:8.40053;stroke-linejoin:round"
         d="m 2882.1877,1028.4969 39.5523,-28.90193 67.1339,-20.48333 35.6744,-28.02544 55.269,1.13183 18.3896,16.59807 60.3049,44.3657 45.1702,21.1346 2.5435,116.376 h -325.4718 z"
         sodipodi:nodetypes="ccccccccccc" />
      <path
         style="fill:#b3b3b3;stroke-width:1.14525"
         d="m 2936.6869,1146.0855 c -1.0206,-3.2462 -2.1312,-5.9022 -2.4679,-5.9022 -0.3367,0 -1.0564,-1.2797 -1.5993,-2.8438 -0.5429,-1.5641 -1.6621,-3.2509 -2.4871,-3.7484 -0.825,-0.4976 -2.8994,-1.8584 -4.6097,-3.0239 -1.7103,-1.1655 -3.3817,-1.7622 -3.7142,-1.3261 -1.0383,1.3617 -7.5219,-3.4051 -8.1474,-5.99 -0.3272,-1.3522 -1.4746,-2.7602 -2.5498,-3.129 -1.0751,-0.3687 -2.41,-2.3507 -2.9663,-4.4042 -0.5563,-2.0536 -1.4729,-4.6192 -2.0369,-5.7013 -1.97,-3.7793 -4.9947,-12.9125 -5.6077,-16.9328 -0.543,-3.5609 -0.3471,-4.0527 1.614,-4.0527 1.6244,0 2.0668,-0.5648 1.625,-2.0747 -0.3339,-1.1411 -0.607,-2.3215 -0.607,-2.6232 0,-0.3017 -1.035,-0.5485 -2.3,-0.5485 -1.265,0 -2.8629,-0.7378 -3.551,-1.6395 -0.688,-0.9017 -3.1405,-1.6395 -5.45,-1.6395 -3.5932,0 -4.2451,-0.4257 -4.5186,-2.9511 -0.1757,-1.6231 0.164,-2.9511 0.755,-2.9511 0.591,0 3.4348,-2.9737 6.3195,-6.6084 2.8848,-3.6346 6.1713,-7.7358 7.3033,-9.1138 1.5269,-1.8584 2.078,-4.2159 2.1345,-9.1307 0.085,-7.3827 -0.6748,-8.2026 -3.1007,-3.3464 -1.0911,2.184 -2.558,3.279 -4.3925,3.279 -3.2435,0 -7.1995,3.284 -7.1995,5.9766 0,1.0411 0.675,1.893 1.5,1.893 2.0181,0 1.901,2.6052 -0.2081,4.628 -2.6083,2.5016 -4.2942,0.9616 -3.6406,-3.3252 0.4813,-3.156 0.215,-3.7714 -1.793,-4.1441 -1.7981,-0.3337 -2.4286,-1.3767 -2.654,-4.3902 -0.2522,-3.3699 0.1615,-4.1789 2.8065,-5.4884 2.5466,-1.2607 3.2009,-1.1988 3.6527,0.3456 0.7565,2.5857 2.6983,2.3572 4.7067,-0.5535 1.0891,-1.5785 2.5506,-2.2167 4.1549,-1.8144 1.4299,0.3584 2.4749,0.013 2.4749,-0.8342 0,-0.9012 1.7591,-1.3336 4.6238,-1.1366 4.5862,0.3154 4.6468,0.2647 7.4336,-6.2399 1.5453,-3.6069 2.8396,-7.0007 2.8761,-7.5417 0.1203,-1.7806 -2.3537,-1.008 -7.9335,2.4777 -4.893,3.0567 -9.0951,4.7656 -15.5,6.3037 -1.1,0.2641 -3.2668,1.1262 -4.8151,1.9156 -1.5483,0.7894 -3.2358,1.4352 -3.75,1.4352 -1.5104,0 -1.2019,-37.6763 0.3151,-38.4792 1,-0.5292 1,-0.6823 0,-0.76501 -1.4729,-0.12198 -1.7172,-5.35 -0.25,-5.35 0.55,0 1,-0.62511 1,-1.38898 0,-0.76401 -0.45,-1.02423 -1,-0.57842 -0.55,0.44582 -1,0.33289 -1,-0.25103 0,-1.71426 21.6643,8.23244 31.99,5.06744 12.1812,-3.73385 18.906,-7.13413 31.197,-7.99572 13.6181,-0.95458 19.1628,-3.70768 33.1973,-9.98654 8.7853,-3.93041 17.4556,-11.71014 22.5645,-15.30404 3.8879,-2.73489 8.0247,-6.09656 9.8257,-7.05704 1.801,-0.96061 3.9322,-1.41547 4.7361,-1.01098 0.9216,0.46391 1.797,-0.40384 2.3694,-2.34867 1.056,-3.58783 4.1526,-7.41267 9.2078,-11.37318 1.9733,-1.54596 6.3635,-6.90715 9.756,-11.91372 4.8745,-7.19372 7.2046,-9.55441 11.1101,-11.25579 6.0066,-2.61674 7.1344,-1.98915 13.4889,7.506 3.1228,4.66625 5.2174,9.45022 6.4674,14.77104 l 1.8487,7.86957 8.1666,0.90193 c 4.4917,0.49606 8.3332,2.76413 9.8755,3.89563 2.8405,2.0839 7.9308,9.74891 16.8527,15.30621 17.6598,10.99998 14.9764,11.94591 40.4747,28.18305 14.9662,9.53035 29.5901,23.37515 35.1084,24.28615 4.675,0.7719 23.0507,-38.30674 24.0132,-37.63442 1.5962,1.11525 1.75,4.14806 1.75,34.51292 0,25.2977 -0.2973,33.4201 -1.2382,33.8316 -0.9792,0.4281 -0.9714,1.3096 0.037,4.2135 0.7016,2.0197 1.1174,3.8798 0.9239,4.1336 -0.1934,0.2537 -2.9697,-1.2224 -6.1695,-3.2804 -3.1998,-2.0579 -6.6798,-3.4461 -7.7334,-3.0846 -1.348,0.4623 -3.2349,-1.1489 -6.368,-5.4375 -4.5337,-6.2061 -5.6507,-9.9834 -2.9522,-9.9834 2.1506,0 1.8517,-3.5956 -0.4323,-5.1987 -1.0627,-0.7461 -2.218,-2.5374 -2.5674,-3.981 -0.4627,-1.9124 -1.4986,-2.615 -3.8177,-2.5893 l -3.1826,0.035 3.4953,3.8003 3.4953,3.8005 -2.4196,3.378 c -2.9034,4.0536 -5.4865,4.3035 -7.803,0.755 -1.7459,-2.6744 -4.817,-3.3761 -6.9588,-1.5901 -0.6549,0.5462 -2.4596,4.1789 -4.0105,8.0728 -1.551,3.8938 -3.361,7.3163 -4.0224,7.6054 -1.634,0.7144 -2.831,-6.0156 -1.4031,-7.8885 1.6213,-2.1265 1.431,-8.8228 -0.2508,-8.8228 -0.7576,0 -1.9377,-0.8853 -2.6224,-1.9674 -1.9602,-3.0979 -4.0119,-2.3141 -5.1498,1.9674 -0.5752,2.1641 -1.4518,4.0086 -1.948,4.0987 -0.4962,0.091 -1.3522,0.3115 -1.9022,0.4919 -0.55,0.1803 -1.4074,0.4017 -1.9054,0.4918 -0.498,0.091 -2.7941,2.2337 -5.1026,4.7633 -2.3085,2.5297 -5.2504,4.9461 -6.5374,5.3698 -1.3862,0.4564 -2.4654,1.9176 -2.6474,3.5846 -0.372,3.4082 -3.5093,4.4812 -5.1327,1.7555 -0.646,-1.0846 -2.0652,-2.175 -3.1538,-2.4233 -1.1702,-0.2668 -2.3563,-2.0546 -2.9014,-4.3733 -1.6603,-7.0627 -6.007,-17.2944 -12.6421,-29.7584 l -6.5227,-12.253 4.5227,2.9407 c 2.4876,1.6174 7.0183,4.3452 10.0684,6.0614 3.0501,1.7163 7.1869,5.0107 9.1929,7.3207 5.0163,5.7769 8.7108,6.988 13.191,4.3244 4.2635,-2.5345 4.6084,-5.1625 0.8205,-6.2512 -5.1335,-1.4753 -5.25,-1.6488 -5.25,-7.8173 0,-4.0078 -0.972,-8.5864 -2.9107,-13.7115 -1.6009,-4.23196 -2.6134,-8.12019 -2.25,-8.64023 0.3634,-0.52018 -0.557,0.0748 -2.0453,1.32313 -3.0372,2.5466 -4.794,1.82483 -4.794,-1.96936 0,-3.08002 -1.3087,-3.26508 -3.4286,-0.48476 -2.0666,2.71067 -2.0147,3.09077 0.9825,7.19397 1.9859,2.71865 2.4036,4.28225 1.8779,7.02935 -0.5492,2.8699 -1.1692,3.4579 -3.3039,3.1333 -1.9417,-0.2951 -2.7153,-1.2557 -2.9626,-3.6785 -0.4586,-4.4931 -2.0022,-6.39995 -3.1764,-3.9238 -0.7643,1.6114 -1.2834,1.6673 -2.9448,0.3169 -1.1093,-0.9017 -2.8467,-1.6395 -3.8609,-1.6395 -1.0142,0 -4.2828,-2.94742 -7.2636,-6.54998 -6.0654,-7.33037 -7.9196,-8.09989 -7.9196,-3.28699 0,2.42147 -0.5312,3.27899 -2.0314,3.27899 -1.1173,0 -2.2783,0.84415 -2.5802,1.87572 -0.8271,2.82701 -6.5493,5.14706 -7.5435,3.05851 -1.1728,-2.46357 -4.3389,0.56477 -4.3699,4.17975 -0.014,1.6014 -0.8012,3.4814 -1.75,4.1777 -1.918,1.4079 -2.3161,5.7482 -0.651,7.0981 0.5907,0.4788 2.0823,-0.3717 3.3145,-1.89 1.2322,-1.5183 2.914,-2.7606 3.7374,-2.7606 1.6275,0 5.8741,-4.6654 5.8741,-6.4535 0,-0.6076 1.5427,-2.64808 3.4282,-4.53442 3.6589,-3.66027 6.1149,-3.4592 7.0926,0.58091 0.8482,3.50541 -10.1657,20.82481 -13.2708,20.86831 -2.5694,0.035 -2.9055,1.6199 -0.8245,3.8852 1.7485,1.9032 5.7029,12.1541 5.0294,13.0376 -1.355,1.7772 -6.0274,-5.1422 -6.847,-10.1399 -1.0414,-6.3506 -2.434,-6.8324 -5.2981,-1.833 -1.1364,1.9838 -5.1586,8.1369 -8.938,13.6735 -6.5221,9.5544 -16.3718,27.9671 -16.3718,30.605 0,3.0216 11.3231,30.8104 12.5543,30.8104 0.7572,0 2.6949,-1.69 4.3059,-3.7555 2.6186,-3.3574 3.4546,-3.6894 7.8859,-3.1309 4.7177,0.5945 5.0694,0.412 7.2907,-3.7861 1.2837,-2.426 3.5611,-5.8864 5.0609,-7.6899 2.0235,-2.4332 2.8464,-4.8809 3.1901,-9.4901 0.2548,-3.4161 1.1974,-7.6807 2.0947,-9.4768 1.4533,-2.9092 1.9122,-3.0978 4.2046,-1.7278 1.4153,0.8457 3.443,3.7737 4.506,6.5064 1.0629,2.7329 2.9835,5.8719 4.2678,6.9757 1.3664,1.1742 3.4693,5.7978 5.0684,11.1436 l 2.733,9.1369 -2.0811,3.8334 c -1.1498,2.1179 -2.0812,5.8764 -2.0812,8.3986 0,3.4221 -0.6259,5.1031 -2.5,6.7136 -1.375,1.1817 -2.5,2.9174 -2.5,3.857 0,2.2293 -4.4472,7.7001 -5.3242,6.5498 -0.3717,-0.4875 -0.6758,-3.6446 -0.6758,-7.0158 0,-5.9464 -0.112,-6.1736 -3.75,-7.6043 -2.0625,-0.8111 -6.45,-1.7892 -9.75,-2.1738 -3.3,-0.3844 -7.8745,-1.053 -10.1655,-1.4855 -2.291,-0.4326 -4.9035,-0.2449 -5.8054,0.4172 -1.4936,1.0962 -1.4655,1.4862 0.3145,4.3695 1.8179,2.9445 2.2584,3.0662 6.3054,1.7423 2.3931,-0.7829 6.4885,-1.1568 9.101,-0.8312 4.3692,0.5447 4.7472,0.8708 4.7146,4.067 -0.02,1.9111 -0.6786,4.9504 -1.4646,6.7538 -0.786,1.8035 -1.4451,4.9409 -1.4646,6.9721 -0.045,4.7233 -1.6922,8.7671 -3.5706,8.7671 -0.8958,0 -1.4648,1.2737 -1.4648,3.279 0,2.602 -0.5039,3.2789 -2.441,3.2789 -3.6067,0 -3.9328,2.0389 -0.8141,5.0906 l 2.7551,2.6959 -16.5,0.021 c -9.075,0.013 -15.9884,-0.4122 -15.363,-0.9422 1.2868,-1.0906 5.0819,-8.9675 5.9936,-12.4401 0.9092,-3.4627 3.6706,-2.9829 2.8298,0.4918 -0.8991,3.7153 0.8445,4.9365 5.917,4.1441 6.3199,-0.9873 10.0678,-8.2427 4.2579,-8.2427 -1.2357,0 -3.7967,-1.5014 -5.691,-3.3365 -2.2923,-2.2205 -4.1969,-3.0895 -5.6943,-2.5981 -1.7595,0.5772 -2.25,0.1777 -2.25,-1.8326 0,-1.4139 0.5059,-2.9809 1.1242,-3.482 2.6198,-2.1237 -1.5808,-26.2328 -5.1242,-29.4103 -1.3269,-1.1899 -5,-11.6504 -5,-14.2394 0,-1.3968 -1.3485,-6.8798 -2.9966,-12.1846 -1.6481,-5.3047 -2.9981,-9.7925 -3,-9.9728 0,-0.1803 -1.3046,-0.3279 -2.895,-0.3279 -2.2504,0 -3.0307,-0.7272 -3.519,-3.279 -0.4052,-2.117 -1.3294,-3.279 -2.6084,-3.279 -1.2589,0 -1.981,-0.8822 -1.981,-2.4199 0,-2.3569 -2.8841,-6.7613 -4.4275,-6.7613 -0.4236,0 -2.1662,-1.9182 -3.8727,-4.2626 -2.8152,-3.8679 -3.0888,-4.9916 -2.9536,-12.1323 0.096,-5.0474 1.0644,-10.7999 2.7014,-16.041 1.4038,-4.4943 2.5524,-9.0685 2.5524,-10.16482 0,-2.57033 1.439,-2.54187 3.4286,0.0682 1.7277,2.26622 2.1864,13.59782 0.703,17.37122 -1.3099,3.3325 -2.3347,12.046 -1.4167,12.046 0.443,0 2.0384,-1.4994 3.5453,-3.3321 2.261,-2.7496 2.7398,-4.4443 2.7398,-9.6966 0,-4.4475 0.4518,-6.5919 1.5,-7.1195 1.0076,-0.5072 1.5,-2.5839 1.5,-6.3266 0,-6.58406 2.7454,-16.80782 4.5134,-16.80782 0.683,0 1.8019,0.88533 2.4866,1.96739 2.2585,3.56925 5.8806,2.38265 8.1541,-2.67119 1.1476,-2.55119 3.4557,-5.56707 5.1291,-6.702 2.8854,-1.95703 3.1256,-1.91899 4.6536,0.73791 1.2721,2.21201 1.8691,2.46304 2.8371,1.19329 0.6744,-0.88441 1.2261,-2.43839 1.2261,-3.45343 0,-1.14385 0.6013,-1.5427 1.5818,-1.04928 0.87,0.43794 2.4591,0.79614 3.5314,0.79614 1.0722,0 2.2012,1.03288 2.5089,2.29529 0.3076,1.26241 1.0481,3.63207 1.6456,5.26606 0.8871,2.42606 0.6872,3.67863 -1.0907,6.83276 -3.754,6.65963 -2.5084,8.71844 2.2836,3.77451 2.2179,-2.28808 2.6207,-3.53606 2.146,-6.64901 -0.4278,-2.80537 0.082,-5.11929 1.9045,-8.63607 2.175,-4.19828 3.5068,-13.37631 1.9409,-13.37631 -0.3013,0 -1.5727,1.56264 -2.8252,3.47245 -1.8087,2.75789 -2.6483,3.20003 -4.0805,2.14892 -1.2096,-0.88795 -1.4317,-1.62467 -0.6747,-2.23824 0.6206,-0.50313 1.1284,-2.28335 1.1284,-3.95616 0,-1.67281 0.681,-5.17923 1.5134,-7.7922 0.8324,-2.61283 1.0871,-4.75073 0.5659,-4.75073 -0.5211,0 -3.5646,1.39384 -6.7634,3.09747 -12.797,6.81557 -15.7123,7.39045 -17.3333,3.41802 -1.0398,-2.54856 -1.321,-2.40429 -6.393,3.27899 -5.7081,6.39612 -7.0283,6.91407 -10.0307,3.93557 -2.2189,-2.20125 -6.5589,-2.58896 -6.5589,-0.58602 0,0.73685 -1.1016,1.99809 -2.4479,2.80262 -1.5523,0.92769 -2.9243,3.4188 -3.75,6.80875 -0.9153,3.75799 -2.49,6.39981 -5.3012,8.89367 -2.1995,1.9514 -4.1451,3.35625 -4.3237,3.122 -0.6084,-0.79798 2.6115,-7.88178 4.7204,-10.38496 1.1563,-1.37258 2.1024,-4.10241 2.1024,-6.06639 0,-1.96412 0.675,-4.30571 1.5,-5.20376 1.9873,-2.16321 1.9025,-3.93479 -0.1883,-3.93479 -1.7749,0 -10.2999,11.45758 -10.3074,13.85295 -0.01,2.23876 -5.7079,7.13259 -8.3088,7.13259 -3.3683,0 -8.6955,9.58842 -8.6955,15.65101 0,4.1808 -5.8309,18.5024 -9.2274,22.6639 -1.6412,2.0109 -3.1339,3.6562 -3.3171,3.6562 -0.1831,0 -0.6397,-2.6832 -1.0147,-5.9626 -0.6157,-5.3851 -0.8395,-5.7792 -2.3112,-4.0701 -0.8963,1.0407 -2.5296,2.1079 -3.6296,2.3715 -1.6429,0.3935 -2.1142,1.8712 -2.6396,8.2751 -0.74,9.0206 -0.2552,11.9414 1.6396,9.8788 1.7597,-1.9154 2.4965,1.0942 2.5147,10.2722 0.013,6.7316 0.1316,7.1366 1.25,4.2842 1.6057,-4.095 4.8124,-6.6801 5.4472,-4.3915 0.2501,0.9017 0.8902,1.6395 1.4224,1.6395 1.1441,0 7.854,-9.3396 7.8609,-10.9417 0,-0.6076 0.9302,-2.6478 2.0613,-4.5338 1.3432,-2.2397 1.8551,-4.4818 1.4758,-6.4638 -0.3194,-1.6692 -0.072,-4.2819 0.55,-5.806 0.6219,-1.5242 1.2988,-5.201 1.5042,-8.1705 0.2054,-2.9698 0.4533,-6.5799 0.551,-8.0227 0.2433,-3.59244 7.5811,-16.39492 9.3968,-16.39492 1.1977,0 1.0993,0.90618 -0.5324,4.89907 -2.5535,6.24897 -2.5164,6.90529 0.3911,6.90529 3.6195,0 3.8247,3.21476 0.5502,8.61906 -1.6187,2.6717 -2.9432,5.0448 -2.9432,5.2735 0,0.2286 1.125,1.8913 2.5,3.6948 3.0229,3.9648 3.119,5.947 0.5,10.3141 -1.1,1.8341 -2,4.8648 -2,6.7348 0,1.87 -0.45,3.4 -1,3.4 -0.55,0 -0.1081,1.1698 0.9821,2.5997 2.4953,3.2729 1.4333,7.7453 -3.4314,14.4511 -1.8317,2.5248 -4.05,6.4669 -4.9296,8.7602 -1.7415,4.5411 -5.1787,6.7722 -6.918,4.4909 -0.7941,-1.0415 -0.594,-1.918 0.7273,-3.1852 1.544,-1.4808 1.6363,-2.2053 0.6036,-4.7363 -0.8818,-2.161 -0.9168,-3.3848 -0.1266,-4.4212 0.6009,-0.7882 1.0926,-2.2004 1.0926,-3.1381 0,-2.9089 -2.8685,-1.8762 -4.6404,1.6708 -1.1144,2.2308 -2.314,3.1607 -3.5363,2.7414 -1.1478,-0.3937 -3.4006,1.0648 -5.9361,3.8432 -2.3453,2.5701 -5.6964,4.8155 -7.8656,5.2704 -5.0567,1.0605 -11.4033,10.517 -10.4393,15.5545 0.3928,2.0531 0.2124,3.3161 -0.4739,3.3161 -0.6096,0 -1.1084,-0.8576 -1.1084,-1.9056 0,-3.5142 -2.3051,-8.5872 -3.9019,-8.5872 -0.8694,0 -3.9356,2.1271 -6.8136,4.727 -4.0343,3.6443 -5.3758,5.7264 -5.857,9.0903 -0.8006,5.5975 -2.3547,6.2913 -7.0534,3.1492 -3.9505,-2.6415 -7.3741,-3.3196 -7.3741,-1.4603 0,1.7611 8.0081,8.1025 10.2321,8.1025 1.2923,0 5.2405,4.439 10.6602,11.9855 5.6936,7.928 10.0903,12.8211 12.987,14.4537 2.4085,1.3575 5.7056,3.9319 7.3267,5.721 2.9819,3.291 5.794,4.2746 5.794,2.0267 0,-0.6744 -0.4268,-2.6985 -0.9484,-4.4979 -0.7549,-2.6041 -0.3468,-4.9006 2,-11.2549 1.6216,-4.3907 2.9618,-9.0066 2.9782,-10.2575 0.039,-2.9787 7.5696,-14.3857 8.6025,-13.0308 0.4384,0.5749 0.2475,2.0498 -0.424,3.2777 -2.2176,4.0545 -2.5155,5.7633 -1.1918,6.8363 1.0429,0.8454 0.9693,1.5043 -0.3635,3.2524 -0.9193,1.2056 -1.3427,2.8823 -0.941,3.7258 0.4016,0.8436 0.8195,3.5995 0.9285,6.1244 0.109,2.5248 0.347,5.771 0.5289,7.2137 0.255,2.0237 -0.1709,2.5548 -1.8638,2.3237 -4.854,-0.6625 -8.8977,13.4278 -4.3056,15.0029 2.2732,0.7796 2.762,5.6264 0.5674,5.6264 -0.7879,0 -1.7183,-1.1805 -2.0674,-2.6232 -0.3491,-1.4428 -1.5034,-2.6232 -2.5651,-2.6232 -2.1282,0 -11.9349,8.7228 -11.9349,10.6158 0,0.6537 -3.5077,1.1886 -7.795,1.1886 h -7.795 z m 155.5293,-43.1748 c 0.6118,-3.1868 2.1933,-7.1262 3.5144,-8.754 2.6664,-3.2854 3.1559,-6.4372 0.9998,-6.4372 -0.7712,0 -1.8663,1.7464 -2.4336,3.8809 -0.6852,2.578 -2.2286,4.5368 -4.5978,5.8351 -3.9932,2.1884 -4.2809,3.3736 -1.9514,8.0367 2.2862,4.5763 3.1987,4.0532 4.4686,-2.5615 z m -179.8758,-17.4247 c 2.0857,-2.6714 3.7922,-5.397 3.7922,-6.057 0,-0.6601 1.3732,-3.2514 3.0515,-5.7585 2.2815,-3.4082 2.9754,-5.603 2.75,-8.6985 -0.2584,-3.5484 0,-4.0864 1.7941,-3.7642 1.3319,0.239 3.5186,-1.443 6,-4.6152 2.1474,-2.7452 5.5884,-6.6299 7.6466,-8.6326 2.0583,-2.0026 4.0157,-5.0701 4.3499,-6.8166 0.3342,-1.7465 2.1211,-5.2802 3.9708,-7.8526 2.9694,-4.1295 3.2431,-5.0915 2.3376,-8.2154 -1.4869,-5.1292 -2.8168,-5.6683 -7.0299,-2.8491 -2.0652,1.3819 -4.4255,2.175 -5.2452,1.7625 -0.9772,-0.4919 -2.0387,0.641 -3.0835,3.291 -0.8763,2.2225 -2.2016,4.0411 -2.9451,4.0411 -0.7436,0 -1.9088,0.8802 -2.5895,1.9558 -1.022,1.6151 -0.6948,2.621 1.8775,5.7726 1.7134,2.0992 3.1152,5.0133 3.1152,6.4759 0,3.6479 -2.8022,7.0404 -5.0445,6.1069 -1.2358,-0.5144 -2.206,0.1491 -2.9756,2.0352 -1.6245,3.9811 -2.2648,2.3604 -0.8544,-2.1627 1.6034,-5.1423 1.8368,-12.3142 0.4006,-12.3142 -0.6335,0 -2.4453,1.7707 -4.0261,3.9348 -1.6043,2.1964 -3.9172,3.9348 -5.2351,3.9348 -2.793,0 -6.7477,5.4605 -8.3118,11.4765 -0.7253,2.7899 -1.7602,4.2627 -2.9955,4.2627 -1.038,0 -2.3156,1.0499 -2.8392,2.3332 -0.7267,1.7807 -0.3799,3.0553 1.4648,5.3839 1.3292,1.6781 2.4237,3.7268 2.4321,4.5529 0.037,3.6499 1.6672,5.0959 3.9432,3.4982 1.217,-0.8542 2.4357,-1.2608 2.7082,-0.9035 0.6733,0.8831 -1.4634,6.124 -3.966,9.7277 -1.9526,2.8118 -1.9605,2.9511 -0.1672,2.9511 1.0352,0 3.5886,-2.1855 5.6743,-4.8567 z m 33.7885,-32.5187 c 1.2897,-1.8005 2.0771,-3.6251 1.7497,-4.0545 -1.4309,-1.8766 -7.746,3.1051 -7.746,6.1104 0,2.4165 3.7021,1.1473 5.9963,-2.0559 z m 86.3688,-2.0677 c 1.5188,-1.567 2.6349,-4.0316 2.6349,-5.8186 0,-1.7051 1.35,-7.6986 3,-13.3188 3.2035,-10.9117 3.6132,-14.8501 1.9648,-18.8898 -1.4836,-3.636 -3.144,-3.1304 -5.6968,1.7345 -1.2276,2.3397 -4.2838,7.2049 -6.7916,10.8118 -2.5077,3.6069 -4.8034,8.0335 -5.1015,9.837 -0.2981,1.8034 -0.7104,4.0001 -0.9162,4.8815 -0.597,2.556 1.612,9.546 3.0167,9.546 0.7038,0 1.8399,0.8853 2.5246,1.9674 1.6287,2.574 2.223,2.4907 5.3651,-0.751 z m 87.1116,-7.6781 c 1.1857,-4.8997 -4.1313,-15.8354 -7.6992,-15.8354 -1.7234,0 -0.6352,3.8173 1.3203,4.6312 1.6186,0.6739 1.9845,1.65 1.6021,4.2739 -0.4821,3.3081 1.6946,9.4572 3.3477,9.4572 0.4497,0 1.0928,-1.1371 1.4291,-2.5269 z m -212.9401,-24.8797 c 7.1151,-1.6704 9.1125,-5.3833 2.896,-5.3833 -3.1162,0 -3.4868,-0.3329 -2.9305,-2.6317 0.8729,-3.6073 -3.6428,-6.1334 -4.6732,-2.6144 -1.0327,3.5269 -7.5465,4.6764 -9.9996,1.7646 -1.9395,-2.3022 -1.9856,-5.9883 -0.1755,-14.03378 0.4821,-2.14289 0.1695,-2.06577 -2.6295,0.64832 -2.745,2.66188 -3.0838,3.61594 -2.4938,7.02256 0.3755,2.1683 0.7686,4.8379 0.8735,5.9327 0.3711,3.873 1.7789,5.4475 4.168,4.661 1.8369,-0.6047 2.8515,0.1076 4.6207,3.2469 1.6974,3.0112 2.7746,3.8098 4.2871,3.1783 1.1111,-0.464 3.8367,-1.2699 6.0568,-1.7912 z m 39.3807,-10.7229 c 2.8568,-3.7471 3.2928,-6.4647 1.0371,-6.4647 -0.5101,0 -2.4964,2.2133 -4.4139,4.9185 -6.4133,9.0476 -3.396,10.4292 3.3768,1.5462 z m -21.4621,4.5249 c 0.8903,-0.4481 2.2887,-2.5138 3.1075,-4.5906 1.3967,-3.5428 1.3671,-3.7758 -0.4803,-3.7758 -2.0219,0 -5.0824,4.5197 -5.0824,7.5056 0,1.9106 0.2177,1.9869 2.4552,0.8608 z m 14.9876,-5.5982 c 1.4341,-3.6374 1.3988,-3.8137 -0.879,-4.3848 -3.0388,-0.762 -5.5638,1.0926 -5.5638,4.0863 0,5.4149 4.3462,5.6162 6.4428,0.2985 z m 201.3773,0.075 c 0.1887,-1.682 -0.3247,-3.1788 -1.25,-3.6446 -0.8635,-0.4345 -1.5701,-1.6123 -1.5701,-2.6172 0,-1.21367 -1.175,-1.8271 -3.5,-1.8271 -3.7053,0 -4.291,0.99878 -2.25,3.8364 1,1.3903 1,1.8582 0,2.339 -2.328,1.1196 -1.2668,3.0058 1.691,3.0058 1.6175,0 3.2338,0.6214 3.5916,1.3808 1.0092,2.1417 2.9322,0.6952 3.2875,-2.4731 z m -93.6706,-4.7664 c 1.191,-5.84076 -2.2565,-11.83567 -3.7908,-6.59165 -0.8773,2.9987 0.5912,11.37915 1.8941,10.80955 0.626,-0.2736 1.4795,-2.1718 1.8967,-4.2179 z m -69.0998,-1.3888 c 1.6226,-1.10057 2.9503,-2.57612 2.9503,-3.279 v -2.26159 c 0,-2.13646 -1.84,-0.77856 -4.4431,3.27899 -3.0594,4.769 -2.7949,5.1698 1.4928,2.2616 z m 129.7485,-11.24157 c 0.2083,-4.19527 -0.1685,-6.51312 -1.25,-7.69041 -0.8515,-0.92691 -1.5482,-2.48705 -1.5482,-3.46707 0,-1.76935 -2.205,-2.86532 -7,-3.47914 -2.0503,-0.26245 -2.5563,0.32055 -2.8131,3.24108 -0.2539,2.88866 0.171,3.72047 2.25,4.40486 1.4097,0.46405 2.5631,1.77617 2.5631,2.91568 0,3.27309 4.3437,10.82788 6,10.43558 1.0206,-0.24172 1.5953,-2.27483 1.7982,-6.36058 z m -21.5077,-21.67701 c 0.9666,-1.26792 -2.9956,-10.55716 -4.9151,-11.52315 -3.4893,-1.75623 -3.6936,1.60001 -0.4267,7.01008 3.1939,5.28901 4.1404,6.08869 5.3418,4.51307 z m 11.7095,183.30698 c 0,-0.6242 0.9327,-2.69 2.0726,-4.5906 1.1399,-1.9008 1.5899,-3.456 1,-3.456 -1.573,0 -1.3095,-8.6021 0.3178,-10.3734 2.3769,-2.5874 5.9873,-14.8652 6.5615,-22.3132 0.3014,-3.9108 1.072,-7.3368 1.7124,-7.6135 0.6403,-0.2766 2.6009,2.2357 4.3567,5.5829 4.0936,7.8038 4.4595,13.8887 1.2801,21.2917 -2.541,5.9168 -2.362,8.6086 0.4809,7.2339 2.3632,-1.1428 3.1847,-3.0137 3.2027,-7.2934 0.022,-5.1527 2.2924,-5.6822 7.431,-1.7324 2.4423,1.8772 4.9999,3.4131 5.6836,3.4131 0.6838,0 2.1068,1.025 3.1623,2.2778 1.8233,2.1643 1.9843,2.1609 3.2277,-0.07 1.0789,-1.9351 1.0752,-3.6599 -0.021,-9.8228 -0.7313,-4.1116 -1.8108,-9.1356 -2.399,-11.1646 -0.5881,-2.0289 -1.0693,-5.3489 -1.0693,-7.3777 0,-2.0289 -0.626,-4.3703 -1.3912,-5.2032 -0.7652,-0.833 -1.6015,-3.1186 -1.8586,-5.0792 -0.257,-1.9605 -0.8098,-4.617 -1.2285,-5.9033 -1.4358,-4.412 3.7253,0.1259 7.2707,6.3932 3.3808,5.976 9.2123,11.6336 13.4183,13.0181 1.6639,0.5479 2.9351,-0.026 4.238,-1.915 1.0237,-1.4836 2.6915,-2.6975 3.7063,-2.6975 1.0147,0 1.8969,-0.7377 1.9604,-1.6395 0.063,-0.9017 0.1759,-2.5248 0.25,-3.6068 0.095,-1.396 1.0981,-1.8672 3.4516,-1.6226 2.0412,0.2122 3.0762,-0.1662 2.691,-0.9837 -0.3443,-0.7307 -1.2745,-1.3285 -2.067,-1.3285 -1.6184,0 -1.9794,-4.6551 -0.4568,-5.8894 0.5413,-0.4387 1.3567,-2.6869 1.812,-4.9958 0.7317,-3.7103 1.3222,-4.2859 5.0803,-4.9534 3.6736,-0.6524 4.5102,-0.3253 6.1467,2.4035 1.0419,1.7372 2.1682,4.2904 2.503,5.6737 1.0364,4.2831 3.4564,2.7857 5.4738,-3.3872 1.0609,-3.2462 2.2824,-5.9114 2.7145,-5.9225 0.432,-0.013 2.4473,2.4973 4.4783,5.5743 4.3466,6.5851 6.0112,6.1208 9.4322,-2.6314 1.1688,-2.99 2.4063,-5.0676 2.75,-4.6166 0.3438,0.4508 0.61,5.8856 0.5917,12.0775 -0.027,9.0462 -0.402,11.8376 -1.9103,14.2089 -2.2323,3.5097 -3.0055,3.6084 -6.7254,0.8576 -2.6141,-1.9332 -3.5971,-1.9011 -12.831,0.4201 -9.6354,2.4218 -10.0118,2.6459 -10.325,6.1443 -0.1908,2.1318 0.398,4.6784 1.4264,6.1689 2.5398,3.6809 0.7165,5.2187 -4.1524,3.502 -3.4188,-1.2055 -4.474,-1.0648 -6.7617,0.9012 -1.4909,1.2813 -2.9681,3.8803 -3.2826,5.7756 -0.3144,1.8953 -0.745,4.1837 -0.9568,5.0855 -0.5486,2.3355 -3.4479,2.0361 -3.4479,-0.356 0,-1.0976 -1.0919,-2.6481 -2.4265,-3.4457 -2.0021,-1.1964 -3.0542,-0.9411 -6.0169,1.4605 -3.5414,2.8706 -7.5395,11.6869 -7.5719,16.6967 -0.01,1.302 -0.4415,3.2526 -0.9625,4.3347 -1.0922,2.2687 -5.0222,2.9495 -5.0222,0.8702 0,-0.8859 -0.4378,-0.8205 -1.2,0.1791 -1.6625,2.1806 -2.5746,1.9691 -3.1107,-0.7214 -0.4355,-2.186 -0.4628,-2.186 -0.5733,0 -0.1334,2.6391 -3.7047,3.1704 -4.4077,0.6558 -0.3666,-1.3116 -0.7233,-1.3116 -1.7833,0 -1.5368,1.9015 -25.925,2.3763 -25.925,0.5048 z m 95.0572,-1.6675 c -2.9936,-0.6512 -6.179,-2.0577 -7.0788,-3.1256 -0.8997,-1.0681 -2.3328,-1.9419 -3.1847,-1.9419 -2.12,0 -4.1445,-3.4669 -3.437,-5.8855 0.6373,-2.1782 6.1553,-2.7693 7.1017,-0.7607 0.3171,0.6728 3.1561,1.8939 6.309,2.7136 8.2237,2.1377 8.9847,2.505 9.6088,4.6384 0.831,2.84 -0.3579,5.8739 -2.2332,5.6989 -0.9036,-0.084 -4.0923,-0.6861 -7.0858,-1.3372 z M 3130.23,1120.19 c -0.5374,-1.8537 -1.2847,-7.1141 -1.6607,-11.69 -0.4057,-4.9362 -1.3937,-9.3867 -2.4293,-10.943 -1.7826,-2.6789 -3.5568,-16.395 -2.1208,-16.395 1.2469,0 3.1134,6.2967 3.1134,10.5034 0,2.2152 0.8988,4.9204 2.138,6.4345 1.7515,2.1402 2.0367,3.6026 1.5778,8.0903 -0.3742,3.6592 -0.025,6.9496 1.052,9.9118 1.2173,3.348 1.3298,4.8045 0.4594,5.9463 -0.8705,1.1416 -1.3922,0.6865 -2.1298,-1.8583 z m -134.3749,-24.0899 c -1.0581,-1.388 -0.8528,-10.026 0.2928,-12.3149 0.8753,-1.7487 1.0941,-1.7487 1.9694,0 0.5416,1.0821 0.9916,3.4777 1,5.3237 0.017,3.7784 -2.1577,8.4397 -3.2622,6.9912 z m 167.2775,-33.0374 c -1.375,-0.2902 -2.8061,-1.1739 -3.1802,-1.964 -1.0617,-2.2422 0.8691,-5.7818 3.6538,-6.6985 2.012,-0.6623 2.5264,-1.6473 2.5264,-4.8377 0,-3.1063 0.3929,-3.9082 1.75,-3.571 2.7388,0.6804 2.9342,8.3661 0.2604,10.243 -1.4262,1.001 -1.9164,2.2643 -1.5178,3.9116 0.7046,2.9115 -0.1467,3.6223 -3.4926,2.9166 z m -138.5539,-85.63097 c -1.2407,-2.63316 1.1323,-3.84613 5.8612,-2.99608 4.5675,0.82119 5.7745,2.07862 3.6489,3.80166 -0.5741,0.46535 -1.6703,0.16408 -2.4361,-0.66944 -1.0067,-1.09584 -1.9456,-1.12705 -3.3904,-0.1128 -2.4922,1.74941 -2.8493,1.74705 -3.6836,-0.0236 z"
         id="path3062"
         sodipodi:nodetypes="sssssssssssssssssssssssssssssssssssssssssssssssssssssssssssscssssssssssssssssscccssssssssscscssssssscsssssssscsssssssssssssssssssssscssssssssssssssssscssssssssssssscscssssccsssssssscssscsssssscssssssssssssssssssssssscsssssssssssssssssssscssssssssscssscsssssssssssssssssssssssssssssssssssssssssssssssssssssssscsssssssssssssssssssssssssssssssssssssssssssssssssssssssssssssssssssssssscsssssssssssssssssssssssssssssssssssssssssssssscssssssssssssssssssssscsccssssssssscsssssssssssssssscsssssssccsssssssssssssssssssssssssssssssscsssscc" />
    </g>
  </g>
</svg>
