<?xml version="1.0" encoding="UTF-8" standalone="no"?>
<!-- Created with Inkscape (http://www.inkscape.org/) -->

<svg
   width="443.405"
   height="512"
   viewBox="0 0 443.405 512.00001"
   version="1.1"
   id="svg1522"
   inkscape:version="1.1.1 (3bf5ae0d25, 2021-09-20)"
   sodipodi:docname="TileDesierto.svg"
   xmlns:inkscape="http://www.inkscape.org/namespaces/inkscape"
   xmlns:sodipodi="http://sodipodi.sourceforge.net/DTD/sodipodi-0.dtd"
   xmlns="http://www.w3.org/2000/svg"
   xmlns:svg="http://www.w3.org/2000/svg">
  <sodipodi:namedview
     id="namedview1524"
     pagecolor="#ffffff"
     bordercolor="#666666"
     borderopacity="1.0"
     inkscape:pageshadow="2"
     inkscape:pageopacity="0.0"
     inkscape:pagecheckerboard="0"
     inkscape:document-units="px"
     showgrid="true"
     units="px"
     width="4096px"
     height="4096px"
     inkscape:zoom="0.76373057"
     inkscape:cx="193.78562"
     inkscape:cy="265.80054"
     inkscape:window-width="1366"
     inkscape:window-height="739"
     inkscape:window-x="0"
     inkscape:window-y="0"
     inkscape:window-maximized="1"
     inkscape:current-layer="layer1">
    <inkscape:grid
       type="axonomgrid"
       id="grid36"
       spacingy="256"
       empspacing="2"
       units="px"
       originy="128" />
  </sodipodi:namedview>
  <defs
     id="defs1519">
    <clipPath
       clipPathUnits="userSpaceOnUse"
       id="clipPath3924">
      <path
         sodipodi:type="star"
         style="fill:#ff482a;fill-opacity:0.704312;fill-rule:evenodd;stroke:#ec2727;stroke-width:0;stroke-linecap:round;stroke-linejoin:round;stroke-opacity:1"
         id="path3926"
         inkscape:flatsided="true"
         sodipodi:sides="6"
         sodipodi:cx="456.68387"
         sodipodi:cy="488.34238"
         sodipodi:r1="230.39999"
         sodipodi:r2="199.53226"
         sodipodi:arg1="0.52359878"
         sodipodi:arg2="1.0471976"
         inkscape:rounded="0.1"
         inkscape:randomized="0" />
    </clipPath>
    <clipPath
       clipPathUnits="userSpaceOnUse"
       id="clipPath3924-3">
      <path
         sodipodi:type="star"
         style="fill:#ff482a;fill-opacity:0.704312;fill-rule:evenodd;stroke:#ec2727;stroke-width:0;stroke-linecap:round;stroke-linejoin:round;stroke-opacity:1"
         id="path3926-6"
         inkscape:flatsided="true"
         sodipodi:sides="6"
         sodipodi:cx="456.68387"
         sodipodi:cy="488.34238"
         sodipodi:r1="230.39999"
         sodipodi:r2="199.53226"
         sodipodi:arg1="0.52359878"
         sodipodi:arg2="1.0471976"
         inkscape:rounded="0.1"
         inkscape:randomized="0" />
    </clipPath>
  </defs>
  <g
     inkscape:label="Layer 1"
     inkscape:groupmode="layer"
     id="layer1">
    <g
       id="g524"
       transform="translate(-363.95507,-61.944749)">
      <path
         sodipodi:type="star"
         style="fill:#ffffff;fill-opacity:0.508197;fill-rule:evenodd;stroke:#5d5d5d;stroke-width:8;stroke-linecap:round;stroke-linejoin:round;stroke-miterlimit:4;stroke-dasharray:none;stroke-opacity:1"
         id="path3788"
         inkscape:flatsided="true"
         sodipodi:sides="6"
         sodipodi:cx="443.405"
         sodipodi:cy="256"
         sodipodi:r1="256"
         sodipodi:r2="221.7025"
         sodipodi:arg1="0.52359878"
         sodipodi:arg2="1.0471976"
         inkscape:rounded="1.0408341e-17"
         inkscape:randomized="0"
         transform="translate(142.25257,61.94475)"
         d="M 665.1075,384 443.405,512 221.70249,384 221.7025,128 443.405,0 665.1075,128 Z" />
      <path
         sodipodi:type="star"
         style="fill:#ffe65e;fill-opacity:0.647541;fill-rule:evenodd;stroke:#5d5d5d;stroke-width:0;stroke-linecap:round;stroke-linejoin:round;stroke-miterlimit:4;stroke-dasharray:none;stroke-opacity:1;paint-order:normal"
         id="path5902"
         inkscape:flatsided="true"
         sodipodi:sides="6"
         sodipodi:cx="443.405"
         sodipodi:cy="256"
         sodipodi:r1="230.39999"
         sodipodi:r2="199.53226"
         sodipodi:arg1="0.52359878"
         sodipodi:arg2="1.0471976"
         inkscape:rounded="0.1"
         inkscape:randomized="0"
         transform="translate(142.25257,61.94475)"
         d="m 642.93725,371.2 c -11.52,19.95322 -176.49225,115.19999 -199.53225,115.19999 -23.04,0 -188.01225,-95.24677 -199.53225,-115.19999 -11.52,-19.95323 -11.52,-210.44677 0,-230.4 11.52,-19.95322 176.49225,-115.199994 199.53225,-115.199994 23.04,0 188.01225,95.246774 199.53225,115.199994 11.52,19.95323 11.52,210.44677 0,230.4 z" />
      <g
         id="g1311"
         transform="translate(128.9737,-170.39763)"
         clip-path="url(#clipPath3924-3)">
        <path
           style="fill:#fefefe;fill-opacity:0"
           d="m 140.57793,468.32906 c 0,-274 0,-274 329,-274 329,0 329,0 329,274 0,274 0,274 -329,274 -329,0 -329,0 -329,-274 z"
           id="path1317" />
        <path
           style="fill:#e9dda3;fill-opacity:1"
           d="m 140.57793,641.41865 c 0,-100.91042 0,-100.91042 9.25,-103.07893 31.12594,-7.297 84.31594,-18.30779 114.32795,-23.66689 2.43875,-0.43548 6.97236,1.24134 21.83038,8.07426 18.66106,8.58186 36.55956,14.79002 46.09167,15.98706 33.85233,4.25119 83.73869,3.85849 98.73874,-0.77725 14.10036,-4.35769 12.57549,-4.32784 31.67603,-0.62011 19.50011,3.7853 27.05471,3.86817 35.74358,0.39208 7.22705,-2.89128 9.67689,-2.8288 18.56667,0.47351 8.13321,3.02126 13.46755,2.66255 27.08994,-1.82167 11.81495,-3.88925 11.81495,-3.88925 22,-2.43639 41.57446,5.93047 43.38383,5.93224 63.68504,0.0625 17.24741,-4.98676 25.42563,-8.39397 51,-21.24761 24.65945,-12.39381 21.15774,-12.54649 82,3.57526 10.175,2.69613 21.425,5.38314 25,5.97112 3.575,0.58798 7.5125,1.29236 8.75,1.5653 2.25,0.49627 2.25,0.49627 2.25,109.47722 0,108.98095 0,108.98095 -329,108.98095 -329,0 -329,0 -329,-100.91041 z"
           id="path1315" />
        <path
           style="fill:#decd87;fill-opacity:1"
           d="m 171.07793,741.27426 c 5.16377,-1.07141 10.25291,-1.15401 10.85722,-0.17623 0.26138,0.42293 -2.97456,0.82234 -7.19099,0.88757 -6.42195,0.0994 -7.017,-0.0161 -3.66623,-0.71134 z m 12.83333,0.38813 c 0.36667,-0.36666 0.96667,-0.36666 1.33334,0 0.36666,0.36667 0.0667,0.66667 -0.66667,0.66667 -0.73333,0 -1.03333,-0.3 -0.66667,-0.66667 z m 33.66667,0.1836 c 0,-1.17164 5.79647,-2.77291 14.46855,-3.99692 6.66319,-0.94046 9.23368,-1.72579 10,-3.05518 0.5673,-0.98413 1.70645,-2.5253 2.53145,-3.42481 0.825,-0.89951 1.60225,-3.414 1.72723,-5.58775 0.37514,-6.52482 1.15693,-8.34101 4.28726,-9.95976 1.64203,-0.84913 2.98551,-1.96488 2.98551,-2.47945 0,-1.40784 9.92236,-4.07065 12.63314,-3.39029 3.12286,0.78379 2.96601,1.39988 -1.11443,4.37723 -1.9536,1.42547 -3.66102,3.68198 -3.97247,5.25 -1.80501,9.08723 -1.83905,8.68818 0.82752,9.702 4.27104,1.62385 7.30424,9.46686 4.13198,10.68417 -0.82184,0.31537 -1.28081,0.91876 -1.01993,1.34086 0.26087,0.42211 -10.31671,0.84371 -23.50575,0.9369 -13.18903,0.0932 -23.98006,-0.0855 -23.98006,-0.397 z m 100.5,-0.51693 c 0.33992,-0.55 0.81648,-1 1.05902,-1 0.24254,0 0.44098,0.45 0.44098,1 0,0.55 -0.47656,1 -1.05902,1 -0.58246,0 -0.7809,-0.45 -0.44098,-1 z m 2.78939,-0.36817 c 0.19739,-0.59217 1.22553,-1.31408 2.28475,-1.60425 1.05922,-0.29017 3.10815,-1.33066 4.55317,-2.3122 5.27747,-3.58476 15.04889,-4.92455 17.98064,-2.46538 2.78368,2.33497 3.9283,4.49196 3.28009,6.18117 -0.77943,2.03116 -28.77546,2.23108 -28.09865,0.20066 z m 187.44394,0.24408 c 0.67834,-0.68342 1.48524,-0.99067 1.79313,-0.68278 0.30789,0.30789 -0.24711,0.86705 -1.23333,1.24258 -1.4252,0.54268 -1.54006,0.42782 -0.5598,-0.5598 z m 53.6,0.45742 c 0.36667,-0.36666 0.96667,-0.36666 1.33334,0 0.36666,0.36667 0.0667,0.66667 -0.66667,0.66667 -0.73333,0 -1.03333,-0.3 -0.66667,-0.66667 z m 20.66667,-0.33333 c 0,-0.73333 0.3,-1.03333 0.66667,-0.66667 0.36666,0.36667 0.36666,0.96667 0,1.33334 -0.36667,0.36666 -0.66667,0.0667 -0.66667,-0.66667 z m 55,0 c 0,-0.55 0.47656,-1 1.05902,-1 0.58246,0 0.7809,0.45 0.44098,1 -0.33992,0.55 -0.81648,1 -1.05902,1 -0.24254,0 -0.44098,-0.45 -0.44098,-1 z m 5,0 c -2.5,-0.80064 -2.5,-0.80064 0.25,-0.90032 1.5125,-0.0548 2.75,0.35032 2.75,0.90032 0,0.55 -0.1125,0.95514 -0.25,0.90032 -0.1375,-0.0548 -1.375,-0.45997 -2.75,-0.90032 z m 51,0 c 0,-0.55 0.42344,-1 0.94098,-1 0.51754,0 1.2191,0.45 1.55902,1 0.33992,0.55 -0.0835,1 -0.94098,1 -0.85746,0 -1.55902,-0.45 -1.55902,-1 z m 27.8125,0.31689 c 0.72187,-0.28887 1.58438,-0.25335 1.91667,0.0789 0.33229,0.33229 -0.25834,0.56864 -1.3125,0.52522 -1.16495,-0.048 -1.4019,-0.28494 -0.60417,-0.60416 z m 45.11999,-0.37977 c -0.78787,-0.49857 -2.26448,-0.91339 -3.28136,-0.92181 -1.91815,-0.0159 -6.96512,-1.97936 -12.15113,-4.72728 -1.65,-0.87429 -4.2375,-2.22972 -5.75,-3.01207 -2.73054,-1.41238 -3.70322,-3.27596 -1.70987,-3.27596 0.57208,0 5.69831,1.575 11.39164,3.5 5.69332,1.925 10.99922,3.5 11.79088,3.5 0.79167,0 2.04147,1.125 2.77735,2.5 1.44121,2.69292 2.49762,3.12188 3.53894,1.43699 0.36134,-0.58466 -0.13434,-1.93742 -1.10151,-3.00613 -0.96718,-1.06872 -1.57376,-2.05286 -1.34797,-2.18699 6.29473,-3.73924 10.83222,-3.66224 8.4799,0.1439 -0.86576,1.40083 3.4111,4.11223 6.48648,4.11223 3.55215,0 4.26586,-0.98704 2.29135,-3.16885 -0.93345,-1.03146 -1.16813,-1.83115 -0.53736,-1.83115 0.61589,0 1.60147,0.9 2.19017,2 0.5887,1.1 1.70717,2 2.48549,2 0.77832,0 1.83178,0.74452 2.34103,1.65449 0.5572,0.99566 1.57251,1.40636 2.54969,1.03139 0.89308,-0.34271 1.62379,-0.20141 1.62379,0.31399 0,1.21171 -30.14675,1.15272 -32.06751,-0.0627 z m -605.68249,-3.5994 c -4.53809,-1.83116 3.77045,-8.47138 11.78168,-9.41598 4.08874,-0.4821 6.96207,-1.60293 10.5443,-4.11309 13.56873,-9.508 20.49041,-11.25677 25.64537,-6.47932 5.1843,4.80466 -4.72801,12.92944 -15.61221,12.79679 -1.03998,-0.0127 -3.51497,0.8005 -5.5,1.80705 -1.98503,1.00655 -6.30914,2.36423 -9.60914,3.01707 -3.3,0.65284 -7.62721,1.60611 -9.61602,2.11837 -3.88808,1.00147 -5.66388,1.06406 -7.63398,0.26911 z m 519.77896,-3.29866 c -0.80907,-0.51167 -1.16598,-1.23537 -0.79313,-1.60823 0.9151,-0.91509 3.76417,0.24885 3.76417,1.53779 0,1.2701 -1.03529,1.29465 -2.97104,0.0704 z m -307.02896,-0.93207 c 0,-0.49116 0.7118,-1.16616 1.58179,-1.5 2.23506,-0.85768 2.41821,-0.79004 2.41821,0.89301 0,0.83333 -0.88889,1.5 -2,1.5 -1.1,0 -2,-0.40186 -2,-0.89301 z m 18.05908,-1.99661 c -0.82568,-1.54278 -0.61674,-1.99279 1.13835,-2.45176 2.85036,-0.74538 3.72605,-0.082 3.09206,2.34238 -0.66015,2.52439 -2.90685,2.58249 -4.23041,0.10938 z m 404.94092,0.88962 c 0,-0.55 0.45,-1 1,-1 0.55,0 1,0.45 1,1 0,0.55 -0.45,1 -1,1 -0.55,0 -1,-0.45 -1,-1 z m -656,-2.41667 c 0,-0.77916 0.5625,-1.64364 1.25,-1.92105 1,-0.40351 1,-0.52017 0,-0.58333 -0.6875,-0.0434 -1.25,-0.55927 -1.25,-1.14634 0,-0.64517 0.89,-0.79381 2.25,-0.37577 3.2012,0.984 3.28008,1.19994 1.25555,3.43703 -2.12695,2.35025 -3.50555,2.58206 -3.50555,0.58946 z m 628.03933,-0.62411 c -3.00338,-0.99823 -6.00765,-2.56299 -6.67616,-3.47723 -1.19189,-1.63001 -6.15188,-4.75519 -9.61317,-6.05704 -1.80046,-0.67719 -2.43264,-2.42495 -0.87712,-2.42495 2.17568,0 10.8002,4.43541 12.36976,6.36151 1.3371,1.64082 1.9382,1.83857 2.58297,0.84974 0.63308,-0.97092 1.51414,-1.03258 3.57246,-0.25 1.50267,0.57131 4.08242,1.03875 5.73277,1.03875 1.65035,0 3.91937,0.49169 5.04226,1.09264 1.35121,0.72314 2.37735,0.75691 3.03442,0.0998 0.65706,-0.65706 2.72687,-0.0966 6.12061,1.65736 5.75976,2.97676 -0.23669,4.39803 -9.87905,2.34151 -2.37558,-0.50666 -4.68595,-0.58279 -5.13416,-0.16918 -0.4482,0.4136 -3.27222,-0.0647 -6.27559,-1.06295 z m -314.01037,-0.92016 c -0.80907,-0.51167 -1.16598,-1.23537 -0.79313,-1.60823 0.9151,-0.91509 3.76417,0.24885 3.76417,1.53779 0,1.2701 -1.03529,1.29465 -2.97104,0.0704 z m -294.42362,-4.33837 c -4.84233,-3.54081 0.78826,-9.82637 6.11916,-6.83097 1.32369,0.74378 2.28443,0.53925 3.7755,-0.80374 2.2047,-1.98576 9.15606,-3.43151 9.99242,-2.07824 0.80651,1.30496 -14.40945,11.01226 -17.26145,11.01226 -0.46679,0 -1.64832,-0.58469 -2.62563,-1.29931 z m 612.39466,-8.20069 c -0.98781,-2.59815 -3.37532,-3.31978 -4.57284,-1.38215 -0.90996,1.47236 -9.03825,0.36699 -12.1122,-1.64713 -2.80341,-1.83687 -3.27962,-6.05789 -0.56496,-5.00768 0.9625,0.37236 3.1,0.8927 4.75,1.1563 11.70904,1.87061 20.86372,6.26395 17.5,8.39827 -2.48464,1.57653 -3.99828,1.11711 -5,-1.51761 z m -279,-0.55902 c 0,-0.58246 0.45,-0.7809 1,-0.44098 0.55,0.33992 1,0.81648 1,1.05902 0,0.24254 -0.45,0.44098 -1,0.44098 -0.55,0 -1,-0.47656 -1,-1.05902 z m 213.5,-0.94098 c -0.34907,-0.56481 0.46994,-1 1.88197,-1 1.375,0 2.77811,0.45 3.11803,1 0.34907,0.56481 -0.46994,1 -1.88197,1 -1.375,0 -2.77811,-0.45 -3.11803,-1 z m -108.30075,-1.04429 c -3.87889,-0.85066 -4.91998,-1.6653 -3.63258,-2.84246 0.52594,-0.48091 2.61502,-0.0906 4.78608,0.89415 4.37994,1.98669 3.76417,3.02677 -1.1535,1.94831 z m 69.30075,-1.95571 c -0.33992,-0.55 0.057,-1 0.88197,-1 0.825,0 1.77811,0.45 2.11803,1 0.33992,0.55 -0.057,1 -0.88197,1 -0.825,0 -1.77811,-0.45 -2.11803,-1 z m 45.40029,-0.62521 c -0.51592,-0.61887 -2.72955,-1.41168 -4.91917,-1.76182 -2.57287,-0.41142 -3.98112,-1.16302 -3.98112,-2.12479 0,-1.83347 0.1046,-1.83411 3.59709,-0.0222 1.55414,0.8063 3.81319,1.21816 5.02012,0.91524 2.11268,-0.53025 7.38279,2.03261 7.38279,3.59026 0,1.16539 -6.05496,0.65649 -7.09971,-0.5967 z m 83.43304,-7.04146 c 0.36667,-0.36666 0.96667,-0.36666 1.33334,0 0.36666,0.36667 0.0667,0.66667 -0.66667,0.66667 -0.73333,0 -1.03333,-0.3 -0.66667,-0.66667 z m -656.01861,-3.08333 c 0.0642,-1.30278 0.75803,-2.25575 1.64808,-2.26365 0.84546,-0.008 2.6622,-0.31055 4.0372,-0.67342 2.24467,-0.59238 2.35983,-0.48885 1.12756,1.01366 -0.75485,0.92037 -2.40485,1.67341 -3.66667,1.67341 -1.26182,0 -2.51086,0.5625 -2.77564,1.25 -0.26477,0.6875 -0.43151,0.2375 -0.37053,-1 z m 23.42522,0.1566 c -2.02371,-2.0237 -0.38485,-4.20858 5.13614,-6.84737 6.85464,-3.27622 9.69053,-3.12584 6.2341,0.33059 -1.24565,1.24565 -2.91915,2.01373 -3.71888,1.70684 -0.85305,-0.32734 -2.58191,0.70431 -4.18274,2.49595 -1.50078,1.67966 -3.06166,2.72096 -3.46862,2.31399 z m 627.82835,-0.29611 c -0.30237,-0.48923 -2.01642,-1.11653 -3.80902,-1.394 -6.34801,-0.98258 -16.75927,-5.77004 -16.75927,-7.7065 0,-1.62847 6.53298,-2.03993 9.49707,-0.59814 1.65161,0.80337 3.79718,1.70283 4.76794,1.99879 0.97075,0.29596 2.16964,1.60237 2.66419,2.90314 0.73453,1.93196 1.45205,2.28388 3.9185,1.92188 2.66481,-0.39111 2.95473,-0.19614 2.46918,1.6606 -0.57374,2.19398 -1.8065,2.73857 -2.74859,1.21423 z m -4.56829,-4.11049 c 0,-0.55 -0.92656,-1 -2.05902,-1 -1.13246,0 -1.7809,0.45 -1.44098,1 0.33992,0.55 1.26648,1 2.05902,1 0.79254,0 1.44098,-0.45 1.44098,-1 z m -527,2.90874 c 0,-2.83262 5.5553,-4.90874 13.13486,-4.90874 8.00805,0 10.132,1.18764 5.36514,3 -1.375,0.52277 -2.5,1.35702 -2.5,1.85388 0,0.49685 -3.6,0.88427 -8,0.86091 -4.4,-0.0233 -8,-0.38607 -8,-0.80605 z m 373.54271,-0.83964 c -0.68308,-1.10523 0.8944,-2.29865 1.81781,-1.37525 0.95079,0.95079 0.77359,2.30615 -0.3015,2.30615 -0.51754,0 -1.19988,-0.41891 -1.51631,-0.9309 z m -303.54271,-6.70777 c 0,-0.85176 1.14505,-1.36133 3.05902,-1.36133 3.53657,0 3.16444,1.53297 -0.54424,2.24193 -1.69026,0.32311 -2.51478,0.0344 -2.51478,-0.8806 z m -132,-1.94859 c 0,-2.37469 0.18631,-2.51502 1.75,-1.31815 0.9625,0.73671 1.90104,1.43035 2.08565,1.54142 0.1846,0.11107 -0.6029,0.70424 -1.75,1.31815 -1.87101,1.00134 -2.08565,0.84271 -2.08565,-1.54142 z m 476.97994,-0.93691 c -0.69572,-0.83829 -1.01436,-1.77475 -0.70809,-2.08102 0.89227,-0.89226 4.84439,1.60809 4.19714,2.65536 -0.84568,1.36834 -2.03992,1.17175 -3.48905,-0.57434 z m -484.85806,-8.37934 c -1.80881,-1.14569 -0.54699,-3.09649 2.00288,-3.09649 2.49567,0 5.87524,1.7459 5.87524,3.03518 0,1.19979 -6.00688,1.24653 -7.87812,0.0613 z m 523.34708,-2.14671 c -0.95021,-1.53748 0.35135,-2.52947 1.63484,-1.24598 0.71818,0.71818 0.73543,1.27752 0.0524,1.69964 -0.55992,0.34605 -1.31919,0.1419 -1.68727,-0.45366 z m 82.16941,-4.44978 c -0.35062,-0.91371 -0.002,-1.5 0.89301,-1.5 0.80774,0 1.46862,0.675 1.46862,1.5 0,0.825 -0.40186,1.5 -0.89301,1.5 -0.49116,0 -1.15203,-0.675 -1.46862,-1.5 z m -596.30504,-2.16667 c 0.36667,-0.36666 0.96667,-0.36666 1.33334,0 0.36666,0.36667 0.0667,0.66667 -0.66667,0.66667 -0.73333,0 -1.03333,-0.3 -0.66667,-0.66667 z m 592.66667,-0.83333 c -0.71755,-0.86459 -0.81474,-1.5 -0.22943,-1.5 0.5585,0 1.27447,0.675 1.59106,1.5 0.31658,0.825 0.41982,1.5 0.22943,1.5 -0.19039,0 -0.90637,-0.675 -1.59106,-1.5 z m -39,-2.5 c 0,-0.55 0.42344,-1 0.94098,-1 0.51754,0 1.2191,0.45 1.55902,1 0.33992,0.55 -0.0835,1 -0.94098,1 -0.85746,0 -1.55902,-0.45 -1.55902,-1 z m -613,-17.5 c 0,-0.825 0.45,-1.5 1,-1.5 0.55,0 1,0.675 1,1.5 0,0.825 -0.45,1.5 -1,1.5 -0.55,0 -1,-0.675 -1,-1.5 z m 313.5,-9.5 c 0.33992,-0.55 1.06803,-1 1.61803,-1 0.55,0 0.72189,0.45 0.38197,1 -0.33992,0.55 -1.06803,1 -1.61803,1 -0.55,0 -0.72189,-0.45 -0.38197,-1 z M 349.40612,582.82391 c -0.27783,-0.27783 -4.06533,-0.7294 -8.41667,-1.00349 -9.45763,-0.59574 -27.69177,-5.45197 -20.59578,-5.4852 0.72366,-0.003 2.15356,0.44223 3.17756,0.99025 1.97678,1.05794 5.0067,0.39019 5.0067,-1.1034 0,-0.49115 -1.59867,-0.89301 -3.55259,-0.89301 -1.95393,0 -6.76733,-0.73117 -10.69644,-1.62483 -10.41562,-2.36899 -99.64944,-2.57024 -104.01364,-0.23459 -3.08847,1.6529 -0.16898,2.88032 5.12506,2.15469 4.88861,-0.67005 5.71518,1.52755 1.06347,2.82747 -4.04285,1.12976 -30.14942,0.90716 -34.42586,-0.29354 -2.2,-0.6177 -5.8,-1.07258 -8,-1.01086 -2.2,0.0617 -10.6375,0.34521 -18.75,0.62997 -14.75,0.51773 -14.75,0.51773 -14.75,-17.9535 0,-17.00845 0.13859,-18.45388 1.75,-18.25211 0.9625,0.12051 5.575,-0.32884 10.25,-0.99857 4.675,-0.66973 15.925,-1.90629 25,-2.74791 43.45938,-4.03046 59.24388,-4.38749 86.78984,-1.96314 20.87259,1.83703 23.55725,1.18532 14.32187,-3.47669 -6.3584,-3.20971 -7.77627,-5.0549 -9.5177,-12.38618 -0.89236,-3.75679 -0.70401,-3.69344 23.45545,7.88867 28.07773,13.46054 34.41316,14.31074 111.45054,14.9565 30.16315,0.25284 51.38596,0.82885 53.4934,1.45187 7.15208,2.11437 23.33909,0.38121 37.7776,-4.04489 7.77603,-2.38373 8.16198,-2.38207 7.53061,0.0323 -1.02765,3.92973 18.64925,3.88954 33.04556,-0.0675 19.52021,-5.3654 21.02609,-5.4933 36.25552,-3.07937 7.64352,1.21154 15.89484,2.49652 18.33627,2.85553 4.0446,0.59474 4.22228,0.73341 2,1.56082 -2.47436,0.92126 -14.16344,4.09186 -19.18896,5.2049 -11.92657,2.64147 22.40438,14.49566 41.83483,14.44522 6.26819,-0.0163 11.75426,0.54987 14.91517,1.53918 2.75,0.8607 5.81406,1.56978 6.80902,1.57574 2.72486,0.0163 1.08597,-1.74352 -2.32049,-2.4917 -8.12213,-1.78392 1.68691,-7.03816 11.64686,-6.23868 7.48711,0.601 9.28217,-0.68988 3.14478,-2.2615 -7.32519,-1.87579 -7.33419,-1.8812 -5.70771,-3.43124 0.78515,-0.74824 7.01108,-3.44318 13.83542,-5.98876 22.8698,-8.53076 25.90427,-10.82304 32.53477,-24.5773 1.98854,-4.125 4.16634,-8.59676 4.83956,-9.93724 2.75224,-5.48014 15.37009,-5.22296 38.21779,0.77898 43.78697,11.50254 55.47167,14.31004 60.2483,14.47596 5.11757,0.17776 8.90957,44.80863 4.0017,47.09897 -1,0.46666 -1,0.7 0,1.16666 0.6875,0.32084 1.25,1.56302 1.25,2.76041 0,2.3452 -16.16292,3.8197 -17.53498,1.59966 -0.32068,-0.51887 0.906,-0.95029 2.72596,-0.95871 1.81996,-0.008 3.98402,-0.4938 4.80902,-1.07861 1.0798,-0.76542 -1.1613,-0.89243 -8,-0.45339 -8.92703,0.57312 -15.03997,1.38131 -39.5,5.22233 -18.37493,2.88545 -62.70152,3.63642 -81.37897,1.3787 -4.05844,-0.49058 -8.00583,-0.65142 -8.77199,-0.35742 -3.05264,1.17141 -16.46254,-0.82339 -17.06054,-2.53785 -1.94444,-5.5747 -5.28505,-5.94469 -32.7885,-3.63149 -74.99967,6.30793 -81.8429,6.39779 -110,1.44443 -3.3,-0.58053 -8.7,-1.51541 -12,-2.07752 -3.3,-0.5621 -9.375,-0.93535 -13.5,-0.82945 -4.125,0.10591 -11.1,-0.29793 -15.5,-0.89741 -9.69079,-1.32033 -31.10466,-2.86094 -58,-4.17279 -11,-0.53653 -21.35,-1.20242 -23,-1.47974 -3.86561,-0.64971 -33.27964,-3.48727 -36.30902,-3.50271 -3.97641,-0.0203 -1.37196,1.83966 3.58233,2.55827 8.13729,1.1803 9.0689,2.16957 4.86194,5.16287 -4.27626,3.0426 -4.05382,3.63518 2.13634,5.69122 2.61143,0.86738 5.33732,2.52061 6.05752,3.67384 1.19767,1.91778 1.19703,3.59483 -9.2e-4,2.39688 z m -13.82819,-5.49485 c 0,-0.55 -0.47656,-1 -1.05902,-1 -0.58246,0 -0.7809,0.45 -0.44098,1 0.33992,0.55 0.81648,1 1.05902,1 0.24254,0 0.44098,-0.45 0.44098,-1 z m -130.14324,-1.89031 c 2.183,-1.38322 -0.37355,-2.29097 -4.3508,-1.54483 -1.94042,0.36403 -3.77464,1.06085 -4.07602,1.5485 -0.70287,1.13727 6.63124,1.13407 8.42682,-0.004 z m 496.95169,-17.09637 c 3.68035,-0.54268 13.72129,-1.43186 22.3132,-1.97595 16.41144,-1.03929 25.73362,-3.13315 17.00756,-3.82009 -10.14755,-0.79884 -59.12921,3.28428 -59.12921,4.92902 0,1.86274 10.06723,2.30338 19.80845,0.86702 z m -166.25257,-3.94475 c 7.18415,-2.51624 14.22161,-8.23754 10.94412,-8.89732 -1.1,-0.22144 -2.2528,-0.80256 -2.56177,-1.29138 -0.30897,-0.48882 -3.90897,0.25353 -8,1.64968 -7.23421,2.46882 -28.3972,6.45434 -34.43823,6.48557 -3.16651,0.0164 -6.34388,1.47433 -5.35914,2.45908 3.12668,3.12667 30.12312,2.84884 39.41502,-0.40563 z M 304.7953,536.09401 c -1.68776,-0.81311 -2.58685,-0.79547 -3.45,0.0677 -0.88983,0.88983 -0.34713,1.15128 2.28263,1.09969 3.23999,-0.0636 3.31105,-0.13462 1.16737,-1.16737 z m 143.78263,2.23505 c -1.9879,-1.28468 0.51039,-1.28468 3.5,0 2,0.85943 2,0.85943 0,0.9144 -1.1,0.0302 -2.675,-0.38124 -3.5,-0.9144 z"
           id="path1313" />
      </g>
    </g>
  </g>
</svg>
