<?xml version="1.0" encoding="UTF-8" standalone="no"?>
<!-- Created with Inkscape (http://www.inkscape.org/) -->

<svg
   version="1.1"
   id="svg435"
   width="1000"
   height="689"
   viewBox="0 0 1000 689"
   sodipodi:docname="Desierto.svg"
   inkscape:version="1.1 (c4e8f9e, 2021-05-24)"
   xmlns:inkscape="http://www.inkscape.org/namespaces/inkscape"
   xmlns:sodipodi="http://sodipodi.sourceforge.net/DTD/sodipodi-0.dtd"
   xmlns="http://www.w3.org/2000/svg"
   xmlns:svg="http://www.w3.org/2000/svg">
  <defs
     id="defs439">
    <linearGradient
       id="linearGradient5426"
       inkscape:swatch="solid">
      <stop
         style="stop-color:#5d275d;stop-opacity:1;"
         offset="0"
         id="stop5424" />
    </linearGradient>
    <linearGradient
       id="linearGradient2380"
       inkscape:swatch="solid">
      <stop
         style="stop-color:#ffd42a;stop-opacity:1;"
         offset="0"
         id="stop2378" />
    </linearGradient>
    <pattern
       patternUnits="userSpaceOnUse"
       width="454.90058"
       height="282.09223"
       patternTransform="translate(213.53357,234.74406)"
       id="pattern4484">
      <g
         id="g4184"
         transform="matrix(0.68991491,0,0,1.182133,-68.67362,-391.59826)">
        <g
           id="g4178">
          <g
             id="g4094">
            <path
               style="fill:#ffeeaa"
               d="m 100.01762,564.56178 c -0.03374,-4.35587 0.35839,-5.51868 2.40358,-7.12743 3.08467,-2.42639 3.08184,-3.40027 -0.0122,-4.17683 -4.067272,-1.02081 -3.694389,-26.42285 0.37909,-25.82498 1.65867,0.24344 3.20686,-0.22698 4.03635,-1.22645 1.21584,-1.465 0.94516,-1.55732 -2.80689,-0.95734 -4.152485,0.66402 -4.152485,0.66402 -4.152485,-22.46379 0,-14.75187 0.362155,-23.12781 1.000005,-23.12781 0.54999,0 1,-0.67501 1,-1.5 0,-0.825 -0.45001,-1.5 -1,-1.5 -0.64789,0 -1.000005,-12.5 -1.000005,-35.5 0,-35.5 0,-35.5 3.750005,-35.56492 2.0625,-0.0357 8.7,-0.26908 14.75,-0.51861 6.04999,-0.24953 12.79999,-0.51144 14.99999,-0.58202 2.20001,-0.0706 5.8,0.37705 8,0.99475 4.27644,1.20069 30.38302,1.42329 34.42587,0.29354 4.6517,-1.29992 3.82513,-3.49752 -1.06348,-2.82747 -5.29403,0.72563 -8.21353,-0.5018 -5.12505,-2.15469 4.3642,-2.33565 93.59802,-2.13441 104.01364,0.23459 3.9291,0.89366 8.7425,1.62483 10.69643,1.62483 1.95392,0 3.55259,0.40186 3.55259,0.89301 0,1.49358 -3.02991,2.16134 -5.0067,1.1034 -1.024,-0.54802 -2.4539,-0.99365 -3.17756,-0.99025 -7.0545,0.033 11.12242,4.88859 20.51187,5.47928 4.30517,0.27084 8.24267,0.74897 8.75,1.06252 1.34437,0.83087 1.07019,-0.76938 -0.48239,-2.81538 -0.73765,-0.97208 -3.42281,-2.4767 -5.96703,-3.3436 -6.05363,-2.06268 -6.25201,-2.6257 -1.99293,-5.65607 4.20695,-2.9933 3.27535,-3.98257 -4.86195,-5.16287 -4.95429,-0.71861 -7.55874,-2.57854 -3.58233,-2.55827 3.02938,0.0154 32.44342,2.853 36.30902,3.50271 1.65,0.27732 12,0.94321 23,1.47974 26.89534,1.31185 48.30921,2.85246 58,4.17279 4.4,0.59948 11.375,1.00332 15.5,0.89741 4.125,-0.1059 10.20001,0.26735 13.5,0.82945 3.30001,0.56211 8.70001,1.49699 12,2.07752 28.1571,4.95336 35.00034,4.8635 110,-1.44443 27.50346,-2.3132 30.84406,-1.94321 32.7885,3.63149 0.59801,1.71445 14.00791,3.70925 17.06055,2.53785 0.76616,-0.294 4.71354,-0.13316 8.77198,0.35741 18.67745,2.25773 63.00405,1.50676 81.37897,-1.37869 24.46003,-3.84102 30.57298,-4.64921 39.5,-5.22233 6.8387,-0.43904 9.0798,-0.31203 8,0.45339 -0.825,0.58481 -2.98906,1.07019 -4.80902,1.07861 -2.19512,0.0102 -3.0748,0.39428 -2.61324,1.1411 0.45253,0.7322 2.62531,0.92664 6.21486,0.55617 12.2951,-1.26897 11.2492,-5.69838 11.18777,47.38028 -0.0493,42.57868 -0.20242,46.83388 -1.69586,47.12154 -1.51234,0.2913 -1.50943,0.44848 0.0369,1.99479 2.15908,2.15906 2.54339,28.30581 0.42859,29.15915 -0.97145,0.39199 -0.96184,0.52198 0.0431,0.58333 1.73616,0.106 1.59723,26.69635 -0.14384,27.52919 -0.83607,0.39993 -0.80863,0.70874 0.10071,1.13309 1.88387,0.87914 1.58532,7.35077 -0.37379,8.10255 -0.97718,0.37497 -1.99249,-0.0357 -2.54969,-1.03139 -0.50922,-0.90998 -1.56268,-1.65449 -2.341,-1.65449 -0.77832,0 -1.89679,-0.9 -2.48549,-2 -0.5887,-1.10001 -1.57428,-2 -2.19017,-2 -0.63076,0 -0.39608,0.79969 0.53737,1.83114 1.97451,2.18182 1.2608,3.16886 -2.29135,3.16886 -3.07538,0 -7.35224,-2.71141 -6.48648,-4.11223 2.35231,-3.80614 -2.18517,-3.88314 -8.47991,-0.1439 -0.22578,0.13413 0.3808,1.11827 1.34798,2.18699 0.96717,1.06871 1.46285,2.42147 1.1015,3.00613 -1.04132,1.68489 -2.09772,1.25593 -3.53894,-1.43699 -0.73587,-1.375 -1.98568,-2.5 -2.77734,-2.5 -0.79166,0 -6.09757,-1.57501 -11.79089,-3.5 -5.69332,-1.925 -10.81956,-3.5 -11.39164,-3.5 -1.99335,0 -1.02067,1.86357 1.70987,3.27596 1.51251,0.78235 4.1,2.13778 5.75,3.01207 5.18601,2.74792 10.23298,4.7114 12.15113,4.72728 1.01688,0.008 2.52387,0.44682 3.34887,0.97424 0.97171,0.62118 -11.0031,0.9289 -34,0.8737 -24.94541,-0.0599 -35.91999,-0.42385 -36.91261,-1.22423 -1.06912,-0.86206 -1.51604,-0.83174 -1.8379,0.12467 -0.52403,1.55712 -48.24949,1.73981 -48.24949,0.1847 0,-0.52161 -1.23749,-0.90354 -2.75,-0.84871 -2.75,0.0997 -2.75,0.0997 -0.25,0.90032 2.35046,0.75274 2.30208,0.8066 -0.80901,0.90031 -1.9724,0.0594 -3.05938,-0.30425 -2.69099,-0.90031 0.33992,-0.55 0.14148,-1 -0.44098,-1 -0.58246,0 -1.05902,0.46253 -1.05902,1.02787 0,0.68061 -9.12159,0.99816 -27,0.93996 -20.14823,-0.0656 -27.00388,-0.38989 -27.01531,-1.27787 -0.0112,-0.86891 -0.21354,-0.88418 -0.75,-0.0566 -0.52307,0.80688 -11.39145,1.16999 -37.73469,1.26068 -24.84841,0.0855 -36.50736,-0.19952 -35.5,-0.86801 0.90794,-0.60249 1.0299,-1.00142 0.30902,-1.01068 -0.65503,-0.008 -1.4691,0.43469 -1.80902,0.98469 -1.31357,2.1254 -159.72736,1.29169 -159.0517,-0.83706 2.35569,-7.42216 -14.84348,-9.5452 -22.34324,-2.75802 -0.9694,0.87729 -2.49225,1.59508 -3.38411,1.59508 -0.89186,0 -2.08025,0.7875 -2.64085,1.75 -0.76006,1.30495 -1.02702,1.38124 -1.04969,0.3 -0.0236,-1.12778 -0.29708,-1.18333 -1.23041,-0.25 -0.87118,0.87118 -8.25354,1.2 -26.94098,1.2 -23.10043,0 -29.86882,-0.63106 -25.35328,-2.36383 3.17226,-1.21731 0.13906,-9.06032 -4.13198,-10.68417 -2.66657,-1.01382 -2.63253,-0.61477 -0.82752,-9.702 0.31145,-1.56802 2.01887,-3.82453 3.97247,-5.25 4.08044,-2.97735 4.23729,-3.59344 1.11443,-4.37723 -2.71078,-0.68041 -12.63314,1.98241 -12.63314,3.39024 0,0.51458 -1.34348,1.63032 -2.98551,2.47946 -3.13033,1.61875 -3.91212,3.43494 -4.28726,9.95976 -0.12498,2.17375 -0.90223,4.68823 -1.72723,5.58775 -0.825,0.8995 -1.96415,2.44068 -2.53145,3.42481 -0.77155,1.33846 -3.3319,2.10563 -10.16094,3.04458 -5.02121,0.69038 -10.63206,2.00572 -12.46854,2.92299 -3.66595,1.83101 -36.32058,2.21554 -37.41755,0.44061 -0.29675,-0.48017 -2.33955,-0.87301 -4.53955,-0.87301 -2.2,0 -3.79174,0.33749 -3.53721,0.75 0.25453,0.4125 -7.10052,0.88717 -16.34457,1.05484 -16.80735,0.30485 -16.80735,0.30485 -16.84767,-4.90021 z m 27.73147,0.16398 c 1.98881,-0.51226 6.31602,-1.46553 9.61601,-2.11837 3.3,-0.65284 7.62412,-2.01053 9.60914,-3.01707 1.98503,-1.00655 4.46003,-1.81972 5.5,-1.80705 10.8842,0.13265 20.79652,-7.99213 15.61221,-12.79679 -5.15495,-4.77746 -12.07664,-3.02868 -25.64537,6.47932 -3.58222,2.51016 -6.45555,3.63099 -10.54429,4.11309 -8.01124,0.9446 -16.31977,7.58482 -11.78168,9.41597 1.9701,0.79495 3.7459,0.73236 7.63398,-0.2691 z m 209.11601,-4.56861 c 0,-1.68305 -0.18314,-1.75069 -2.4182,-0.89302 -2.23441,0.85743 -1.96604,2.39302 0.4182,2.39302 1.11112,0 2,-0.66667 2,-1.5 z m 18.28949,-1.49901 c 0.63399,-2.42439 -0.2417,-3.08776 -3.09205,-2.34238 -1.75509,0.45897 -1.96404,0.90898 -1.13836,2.45176 1.32356,2.47311 3.57026,2.41502 4.23041,-0.10938 z m 384.15959,-0.80965 c 9.64236,2.05652 15.63881,0.63525 9.87905,-2.34151 -3.39374,-1.75395 -5.46355,-2.31442 -6.12061,-1.65736 -0.65707,0.65707 -1.68321,0.6233 -3.03442,-0.0998 -1.12289,-0.60099 -3.39191,-1.09267 -5.04226,-1.09267 -1.65035,0 -4.23009,-0.46745 -5.73276,-1.03876 -2.05832,-0.78258 -2.93938,-0.72092 -3.57246,0.25 -0.64477,0.98883 -1.24587,0.79108 -2.58297,-0.84974 -1.56957,-1.92609 -10.19409,-6.3615 -12.36977,-6.3615 -1.55552,0 -0.92334,1.74775 0.87712,2.42494 3.46129,1.30185 8.42128,4.42703 9.61317,6.05704 1.45353,1.98781 11.79081,5.6115 12.95175,4.54018 0.44821,-0.4136 2.75858,-0.33748 5.13416,0.16918 z m -612.49125,-7.16982 c 6.31796,-3.2232 13.10337,-8.11348 12.5346,-9.03378 -0.83637,-1.35327 -7.78773,0.0925 -9.99243,2.07824 -1.49106,1.34299 -2.4518,1.54752 -3.7755,0.80374 -5.3309,-2.9954 -10.96149,3.29016 -6.11915,6.83097 2.3234,1.6989 2.77233,1.65743 7.35248,-0.67917 z m 610.04217,-6.00392 c 3.36372,-2.13432 -5.79096,-6.52765 -17.5,-8.39827 -1.65,-0.2636 -3.7875,-0.78394 -4.75,-1.1563 -2.71466,-1.05021 -2.23844,3.17081 0.56497,5.00769 3.07394,2.01412 11.20223,3.11949 12.1122,1.64712 1.19752,-1.93763 3.58502,-1.216 4.57284,1.38216 1.00172,2.63472 2.51536,3.09414 4.99999,1.5176 z m -65.5,-3.0176 c -0.33992,-0.55 -1.74303,-1 -3.11803,-1 -1.41202,0 -2.23104,0.43519 -1.88197,1 0.33992,0.54999 1.74303,1 3.11803,1 1.41203,0 2.23104,-0.4352 1.88197,-1 z m -112.14725,-2.99261 c -2.17106,-0.98477 -4.26014,-1.37505 -4.78607,-0.89415 -1.28741,1.17716 -0.24631,1.99181 3.63257,2.84246 4.91768,1.07846 5.53345,0.0384 1.1535,-1.94831 z m 120.64725,-0.0359 c 0,-1.55765 -5.27011,-4.12051 -7.38279,-3.59026 -1.20693,0.30292 -3.46597,-0.10894 -5.02012,-0.91524 -3.49249,-1.81193 -3.59709,-1.81128 -3.59709,0.0222 0,0.96177 1.40825,1.71337 3.98112,2.12479 2.18962,0.35014 4.40325,1.14295 4.91917,1.76181 1.04476,1.25319 7.09971,1.76209 7.09971,0.59671 z M 131.25641,523.2538 c 0.79973,0.30689 2.47323,-0.46119 3.71888,-1.70684 3.45642,-3.45643 0.62054,-3.60681 -6.23411,-0.33059 -3.65804,1.74838 -5.87607,3.43114 -5.87607,4.45798 0,3.10297 1.47974,3.12947 4.20855,0.0754 1.60083,-1.79163 3.32969,-2.82328 4.18275,-2.49595 z m 622.92557,3.2996 c 0.48555,-1.85674 0.19563,-2.05171 -2.46918,-1.6606 -2.46645,0.36201 -3.18397,0.0101 -3.9185,-1.92188 -0.49455,-1.30076 -1.69344,-2.60718 -2.66419,-2.90314 -0.97076,-0.29595 -3.11633,-1.19542 -4.76794,-1.99879 -2.96409,-1.44179 -9.49707,-1.03032 -9.49707,0.59815 0,1.93646 10.41126,6.72392 16.75927,7.7065 1.7926,0.27747 3.50666,0.90477 3.80903,1.394 0.94209,1.52433 2.17484,0.97974 2.74858,-1.21424 z M 235.8651,526.511 c 0,-0.49687 1.125,-1.33112 2.5,-1.85388 4.76686,-1.81237 2.64291,-3 -5.36514,-3 -6.44276,0 -8.34164,0.37482 -10.5,2.07258 -3.99365,3.1414 -3.32388,3.59609 5.36514,3.6422 4.4,0.0234 8,-0.36405 8,-0.8609 z m 59.57379,-7.97329 c 0.29935,-0.48433 -0.83231,-0.88059 -2.51477,-0.88059 -1.91397,0 -3.05902,0.50956 -3.05902,1.36132 0,1.48918 4.60162,1.0923 5.57379,-0.48073 z m -133.73814,-1.24459 c -0.1846,-0.11106 -1.12315,-0.80471 -2.08565,-1.54142 -1.56368,-1.19687 -1.75,-1.05654 -1.75,1.31815 0,2.38414 0.21464,2.54276 2.08565,1.54143 1.14711,-0.61392 1.93461,-1.20709 1.75,-1.31816 z m 476.63335,-0.58584 c 0.64725,-1.04727 -3.30488,-3.54762 -4.19714,-2.65535 -0.66236,0.66237 1.61634,3.60519 2.79157,3.60519 0.4502,0 1.08271,-0.42742 1.40557,-0.94984 z m -480.469,-9.01498 c 0,-1.28928 -3.37956,-3.03518 -5.87524,-3.03518 -2.54987,0 -3.81169,1.9508 -2.00287,3.09649 1.87123,1.18521 7.87811,1.13847 7.87811,-0.0613 z m -1.57006,-104.92182 c 0.74567,-1.20651 7.34169,-2.37255 8.69384,-1.53686 1.76346,1.08987 -1.17197,2.39105 -5.43279,2.40819 -2.09496,0.008 -3.56243,-0.38369 -3.26105,-0.87133 z M 588.8651,389.99157 c -2.74628,-0.8958 -8.36407,-1.46133 -14.41517,-1.45113 -19.45827,0.0328 -53.75009,-11.81529 -41.83483,-14.45425 5.02552,-1.11304 16.7146,-4.28364 19.18897,-5.2049 2.22227,-0.82741 2.04459,-0.96608 -2,-1.56082 -2.44144,-0.35901 -10.69276,-1.64399 -18.33627,-2.85553 -15.22943,-2.41393 -16.73532,-2.28603 -36.25553,3.07937 -14.39631,3.95703 -34.07321,3.99722 -33.04556,0.0675 0.63138,-2.41436 0.24543,-2.41602 -7.53061,-0.0323 -14.43851,4.4261 -30.62552,6.15926 -37.7776,4.04489 -2.10744,-0.62302 -23.33025,-1.19903 -53.4934,-1.45187 -77.03738,-0.64576 -83.37281,-1.49596 -111.45054,-14.9565 -24.15946,-11.58211 -24.34781,-11.64546 -23.45545,-7.88867 1.74143,7.33128 3.1593,9.17647 9.5177,12.38618 9.23538,4.66201 6.55072,5.31372 -14.32187,3.47669 -27.69882,-2.43781 -41.94484,-2.05415 -93.28984,2.5124 -7.15,0.63591 -16.375,1.73925 -20.5,2.45186 -11.351453,1.96102 -12.017131,0.15332 -0.90275,-2.45151 31.3373,-7.34441 84.40684,-18.33192 114.4807,-23.70206 2.43875,-0.43548 6.97236,1.24134 21.83038,8.07426 18.66106,8.58186 36.55956,14.79002 46.09167,15.98706 33.85233,4.25119 83.73869,3.85849 98.73874,-0.77725 14.10036,-4.35769 12.57549,-4.32784 31.67603,-0.62011 19.50011,3.7853 27.05471,3.86817 35.74359,0.39208 7.22704,-2.89128 9.67688,-2.8288 18.56666,0.47351 8.13322,3.02126 13.46756,2.66255 27.08995,-1.82167 11.81494,-3.88925 11.81494,-3.88925 22,-2.43639 41.57445,5.93047 43.38382,5.93224 63.68503,0.0625 17.24742,-4.98676 25.42563,-8.39397 51,-21.24761 24.62332,-12.37565 22.59165,-12.48233 85.30794,4.47943 8.14437,2.20267 18.38188,4.55195 22.75,5.22064 4.36813,0.66868 7.94206,1.6155 7.94206,2.10404 0,1.86424 -11.77142,-0.8038 -63.5,-14.39255 -22.8477,-6.00194 -35.46555,-6.25912 -38.21779,-0.77898 -0.67322,1.34048 -2.85102,5.81224 -4.83956,9.93724 -6.6305,13.75426 -9.66497,16.04654 -32.53477,24.5773 -6.82434,2.54557 -13.05027,5.24052 -13.83542,5.98876 -1.62648,1.55004 -1.61748,1.55545 5.70771,3.43124 6.13739,1.57162 4.34233,2.8625 -3.14478,2.2615 -9.95995,-0.79948 -19.76899,4.45476 -11.64686,6.23868 1.64371,0.36102 3.24525,1.07177 3.55902,1.57945 0.81845,1.32428 -3.31109,0.96556 -8.54755,-0.74252 z m 54.75,-4.02375 c -7.76244,-2.02853 41.95141,-7.30791 57.37922,-6.09339 8.72605,0.68694 -0.59613,2.7808 -17.00756,3.82009 -8.59191,0.54408 -18.63285,1.43327 -22.31321,1.97595 -6.77787,0.99941 -14.86254,1.13252 -18.05845,0.29735 z m -182.6381,-2.3282 c -6.74289,-1.42189 -6.49736,-3.93176 0.3881,-3.96735 6.04103,-0.0312 27.20402,-4.01675 34.43823,-6.48557 4.09103,-1.39615 7.69104,-2.1385 8,-1.64968 0.30897,0.48882 1.46177,1.06994 2.56177,1.29138 3.2775,0.65978 -3.75996,6.38108 -10.94412,8.89732 -6.88404,2.41112 -26.83012,3.51943 -34.44398,1.9139 z"
               id="path3109" />
          </g>
        </g>
        <path
           style="fill:#d3bc5f"
           d="m 130.3651,568.60235 c 5.16378,-1.07142 10.25292,-1.15401 10.85722,-0.17624 0.26139,0.42293 -2.97455,0.82235 -7.19098,0.88757 -6.42195,0.0994 -7.01701,-0.0161 -3.66624,-0.71133 z m 46.5,0.57173 c 0,-1.17165 5.79647,-2.77292 14.46855,-3.99693 6.66319,-0.94046 9.23369,-1.72579 10,-3.05517 0.5673,-0.98414 1.70645,-2.52531 2.53145,-3.42481 0.82501,-0.89951 1.60225,-3.414 1.72723,-5.58775 0.37514,-6.52482 1.15693,-8.34101 4.28726,-9.95976 1.64204,-0.84913 2.98552,-1.96488 2.98552,-2.47946 0,-1.40783 9.92235,-4.07065 12.63313,-3.39029 3.12286,0.78379 2.96601,1.39989 -1.11442,4.37724 -1.9536,1.42547 -3.66102,3.68197 -3.97248,5.25 -1.80501,9.08722 -1.83905,8.68817 0.82753,9.70199 4.27103,1.62385 7.30424,9.46686 4.13198,10.68417 -0.82184,0.31538 -1.28082,0.91877 -1.01993,1.34087 0.26086,0.4221 -10.31671,0.84371 -23.50576,0.9369 -13.18903,0.0932 -23.98006,-0.0855 -23.98006,-0.397 z m 103.28939,-0.8851 c 0.1974,-0.59217 1.22553,-1.31408 2.28476,-1.60425 1.05921,-0.29017 3.10814,-1.33066 4.55316,-2.3122 5.27747,-3.58476 15.04889,-4.92455 17.98064,-2.46538 2.78368,2.33497 3.9283,4.49196 3.2801,6.18117 -0.77944,2.03116 -28.77547,2.23108 -28.09866,0.20066 z m 445.6431,0.30529 c -0.78787,-0.49857 -2.26448,-0.91339 -3.28135,-0.92181 -1.91815,-0.0159 -6.96512,-1.97937 -12.15113,-4.72728 -1.65,-0.87429 -4.2375,-2.22972 -5.75,-3.01207 -2.73055,-1.41239 -3.70323,-3.27596 -1.70988,-3.27596 0.57208,0 5.69831,1.575 11.39164,3.5 5.69332,1.92499 10.99923,3.5 11.79089,3.5 0.79166,0 2.04147,1.125 2.77734,2.5 1.44121,2.69291 2.49762,3.12188 3.53894,1.43699 0.36135,-0.58466 -0.13433,-1.93742 -1.1015,-3.00613 -0.96718,-1.06872 -1.57376,-2.05286 -1.34798,-2.18699 6.29473,-3.73924 10.83222,-3.66224 8.47991,0.1439 -0.86576,1.40083 3.4111,4.11223 6.48648,4.11223 3.55215,0 4.26586,-0.98704 2.29135,-3.16886 -0.93346,-1.03145 -1.16813,-1.83114 -0.53737,-1.83114 0.6159,0 1.60147,0.89999 2.19017,2 0.5887,1.1 1.70717,2 2.48549,2 0.77832,0 1.83178,0.74451 2.34104,1.65449 0.55719,0.99566 1.5725,1.40635 2.54969,1.03138 0.89308,-0.34271 1.62379,-0.20141 1.62379,0.31399 0,1.21172 -30.14675,1.15273 -32.06751,-0.0627 z m -605.68248,-3.59941 c -4.53809,-1.83115 3.77044,-8.47137 11.78168,-9.41597 4.08874,-0.4821 6.96207,-1.60294 10.54429,-4.1131 13.56873,-9.508 20.49042,-11.25677 25.64537,-6.47932 5.18431,4.80466 -4.72801,12.92944 -15.61221,12.79679 -1.03997,-0.0127 -3.51497,0.8005 -5.5,1.80705 -1.98502,1.00655 -6.30914,2.36424 -9.60914,3.01708 -3.29999,0.65283 -7.6272,1.6061 -9.61601,2.11837 -3.88808,1.00147 -5.66388,1.06406 -7.63398,0.2691 z m 212.74999,-4.23073 c 0,-0.49116 0.7118,-1.16615 1.5818,-1.5 2.23506,-0.85767 2.4182,-0.79003 2.4182,0.89302 0,0.83333 -0.88888,1.5 -2,1.5 -1.1,0 -2,-0.40187 -2,-0.89302 z m 18.05908,-1.99661 c -0.82568,-1.54278 -0.61673,-1.99279 1.13836,-2.45176 2.85035,-0.74538 3.72604,-0.082 3.09205,2.34238 -0.66014,2.5244 -2.90685,2.58249 -4.23041,0.10938 z M 99.865105,557.24048 c 0,-0.77916 0.562505,-1.64364 1.250005,-1.92105 1,-0.40351 1,-0.52017 0,-0.58334 -0.6875,-0.0434 -1.250005,-0.55927 -1.250005,-1.14634 0,-0.64517 0.889995,-0.79381 2.250005,-0.37577 3.2012,0.98401 3.28008,1.19994 1.25554,3.43704 -2.12694,2.35024 -3.505545,2.58205 -3.505545,0.58946 z m 628.039325,-0.62411 c -3.00338,-0.99823 -6.00765,-2.56299 -6.67616,-3.47723 -1.19189,-1.63001 -6.15188,-4.75519 -9.61317,-6.05704 -1.80046,-0.6772 -2.43264,-2.42495 -0.87712,-2.42495 2.17568,0 10.8002,4.43541 12.36977,6.3615 1.33709,1.64082 1.9382,1.83857 2.58297,0.84974 0.63308,-0.97092 1.51414,-1.03258 3.57246,-0.25 1.50267,0.57131 4.08241,1.03876 5.73276,1.03876 1.65035,0 3.91937,0.49168 5.04227,1.09263 1.35121,0.72314 2.37735,0.75691 3.03442,0.0998 0.65706,-0.65706 2.72686,-0.0966 6.12061,1.65736 5.75976,2.97676 -0.23669,4.39803 -9.87905,2.34151 -2.37558,-0.50666 -4.68595,-0.58279 -5.13416,-0.16918 -0.4482,0.4136 -3.27222,-0.0647 -6.27559,-1.06295 z m -608.43398,-5.25853 c -4.84234,-3.54081 0.78825,-9.82637 6.11915,-6.83097 1.3237,0.74378 2.28444,0.53925 3.7755,-0.80374 2.2047,-1.98576 9.15606,-3.43151 9.99243,-2.07824 0.80651,1.30495 -14.40945,11.01226 -17.26146,11.01226 -0.46679,0 -1.64832,-0.5847 -2.62562,-1.29931 z m 612.39465,-8.20069 c -0.98781,-2.59816 -3.37532,-3.31979 -4.57284,-1.38216 -0.90996,1.47236 -9.03825,0.36699 -12.1122,-1.64712 -2.80341,-1.83687 -3.27962,-6.0579 -0.56496,-5.00769 0.9625,0.37236 3.1,0.8927 4.75,1.1563 11.70904,1.87062 20.86372,6.26395 17.5,8.39827 -2.48464,1.57654 -3.99828,1.11712 -5,-1.5176 z m -65.5,-1.5 c -0.34907,-0.56481 0.46994,-1 1.88197,-1 1.375,0 2.77811,0.45 3.11803,1 0.34907,0.5648 -0.46993,1 -1.88197,1 -1.375,0 -2.77811,-0.45001 -3.11803,-1 z m -108.30075,-1.0443 c -3.87888,-0.85065 -4.91998,-1.6653 -3.63257,-2.84246 0.52593,-0.4809 2.61501,-0.0906 4.78607,0.89415 4.37995,1.98669 3.76418,3.02678 -1.1535,1.94831 z m 114.70104,-2.58092 c -0.51592,-0.61887 -2.72955,-1.41168 -4.91917,-1.76181 -2.57287,-0.41143 -3.98112,-1.16303 -3.98112,-2.12479 0,-1.83347 0.1046,-1.83411 3.59709,-0.0222 1.55414,0.8063 3.81319,1.21816 5.02012,0.91524 2.11268,-0.53025 7.38279,2.03261 7.38279,3.59026 0,1.16539 -6.05496,0.65649 -7.09971,-0.59671 z M 100.17983,527.90715 c 0.0642,-1.30278 0.75803,-2.25576 1.64808,-2.26365 0.84546,-0.008 2.6622,-0.31056 4.0372,-0.67343 2.24467,-0.59237 2.35983,-0.48885 1.12755,1.01367 -0.75484,0.92036 -2.40484,1.67341 -3.66667,1.67341 -1.26182,0 -2.51085,0.5625 -2.77563,1.25 -0.26478,0.6875 -0.43152,0.23749 -0.37053,-1 z m 23.42521,0.1566 c -2.0237,-2.02371 -0.38485,-4.20858 5.13614,-6.84738 6.85465,-3.27622 9.69053,-3.12583 6.23411,0.33059 -1.24565,1.24565 -2.91915,2.01373 -3.71888,1.70684 -0.85306,-0.32734 -2.58192,0.70432 -4.18275,2.49595 -1.50077,1.67966 -3.06165,2.72096 -3.46862,2.314 z m 627.82835,-0.29611 c -0.30237,-0.48923 -2.01642,-1.11653 -3.80902,-1.394 -6.34801,-0.98259 -16.75927,-5.77004 -16.75927,-7.7065 0,-1.62847 6.53298,-2.03994 9.49707,-0.59815 1.65161,0.80337 3.79718,1.70284 4.76794,1.99879 0.97075,0.29596 2.16964,1.60238 2.66419,2.90314 0.73453,1.93196 1.45205,2.28389 3.9185,1.92188 2.66481,-0.39111 2.95473,-0.19614 2.46918,1.6606 -0.57374,2.19398 -1.8065,2.73857 -2.74859,1.21424 z M 219.8651,526.56588 c 0,-2.83262 5.55531,-4.90873 13.13486,-4.90873 8.00805,0 10.132,1.18763 5.36514,3 -1.375,0.52276 -2.5,1.35701 -2.5,1.85388 0,0.49685 -3.6,0.88427 -8,0.8609 -4.4,-0.0233 -8,-0.38607 -8,-0.80605 z m 70,-7.54741 c 0,-0.85176 1.14505,-1.36132 3.05902,-1.36132 3.53657,0 3.16445,1.53296 -0.54424,2.24193 -1.69026,0.3231 -2.51478,0.0344 -2.51478,-0.88061 z m -132,-1.94859 c 0,-2.37469 0.18632,-2.51502 1.75,-1.31815 0.9625,0.73671 1.90105,1.43035 2.08565,1.54142 0.18461,0.11107 -0.60289,0.70424 -1.75,1.31816 -1.87101,1.00133 -2.08565,0.84271 -2.08565,-1.54143 z m 476.97994,-0.93691 c -0.69572,-0.83829 -1.01436,-1.77475 -0.70809,-2.08102 0.89227,-0.89226 4.84439,1.60809 4.19714,2.65536 -0.84568,1.36834 -2.03992,1.17175 -3.48905,-0.57434 z m -484.85805,-8.37933 c -1.80882,-1.14569 -0.547,-3.09649 2.00287,-3.09649 2.49568,0 5.87524,1.7459 5.87524,3.03518 0,1.19979 -6.00688,1.24653 -7.87811,0.0613 z M 308.6933,410.15199 c -0.27783,-0.27783 -4.06533,-0.7294 -8.41668,-1.00349 -9.45763,-0.59573 -27.69177,-5.45197 -20.59578,-5.4852 0.72366,-0.003 2.15356,0.44223 3.17756,0.99025 1.97679,1.05794 5.0067,0.39019 5.0067,-1.1034 0,-0.49114 -1.59867,-0.893 -3.55259,-0.893 -1.95393,0 -6.76733,-0.73118 -10.69643,-1.62483 -10.41562,-2.36899 -99.64944,-2.57024 -104.01364,-0.23459 -3.08848,1.65289 -0.16898,2.88031 5.12505,2.15469 4.88861,-0.67005 5.71518,1.52755 1.06348,2.82747 -4.04285,1.12975 -30.14943,0.90715 -34.42587,-0.29354 -2.2,-0.6177 -5.79999,-1.07259 -8,-1.01086 -2.2,0.0617 -10.6375,0.34521 -18.74999,0.62997 -14.750005,0.51773 -14.750005,0.51773 -14.750005,-17.95351 0,-17.00845 0.138585,-18.45387 1.750005,-18.2521 0.9625,0.12051 5.575,-0.32884 10.25,-0.99857 4.67499,-0.66973 15.92499,-1.90629 24.99999,-2.74791 43.45938,-4.03046 59.24389,-4.38749 86.78984,-1.96314 20.87259,1.83703 23.55725,1.18532 14.32187,-3.47669 -6.3584,-3.20971 -7.77627,-5.0549 -9.5177,-12.38619 -0.89236,-3.75679 -0.704,-3.69344 23.45545,7.88867 28.07774,13.46054 34.41316,14.31074 111.45054,14.9565 30.16315,0.25284 51.38597,0.82885 53.49341,1.45187 7.15207,2.11437 23.33908,0.38121 37.7776,-4.04489 7.77603,-2.38373 8.16198,-2.38207 7.53061,0.0323 -1.02765,3.92973 18.64924,3.88955 33.04556,-0.0675 19.52021,-5.3654 21.02609,-5.49329 36.25552,-3.07936 7.64352,1.21154 15.89484,2.49651 18.33627,2.85553 4.0446,0.59474 4.22228,0.7334 2,1.56081 -2.47436,0.92126 -14.16344,4.09186 -19.18896,5.2049 -11.92658,2.64148 22.40438,14.49566 41.83483,14.44522 6.26819,-0.0163 11.75426,0.54987 14.91517,1.53918 2.75,0.8607 5.81405,1.56978 6.80901,1.57574 2.72487,0.0163 1.08597,-1.74352 -2.32048,-2.4917 -8.12214,-1.78392 1.68691,-7.03816 11.64685,-6.23867 7.48712,0.601 9.28217,-0.68989 3.14479,-2.26151 -7.32519,-1.87578 -7.33419,-1.88119 -5.70771,-3.43124 0.78514,-0.74824 7.01108,-3.44317 13.83541,-5.98876 22.8698,-8.53076 25.90427,-10.82304 32.53477,-24.57729 1.98854,-4.125 4.16634,-8.59677 4.83956,-9.93724 2.75224,-5.48014 15.37009,-5.22296 38.21779,0.77898 43.78697,11.50254 55.47167,14.31004 60.2483,14.47596 5.11757,0.17775 8.90957,44.80862 4.0017,47.09897 -1,0.46666 -1,0.7 0,1.16665 0.6875,0.32084 1.25,1.56302 1.25,2.76041 0,2.3452 -16.16292,3.8197 -17.53498,1.59966 -0.32068,-0.51886 0.906,-0.95028 2.72596,-0.9587 1.81996,-0.008 3.98402,-0.49381 4.80902,-1.07862 1.0798,-0.76542 -1.1613,-0.89243 -8,-0.45339 -8.92702,0.57312 -15.03997,1.38131 -39.5,5.22233 -18.37492,2.88545 -62.70152,3.63642 -81.37897,1.3787 -4.05844,-0.49058 -8.00582,-0.65142 -8.77198,-0.35742 -3.05264,1.17141 -16.46254,-0.82339 -17.06055,-2.53785 -1.94444,-5.5747 -5.28504,-5.94469 -32.7885,-3.63149 -74.99966,6.30793 -81.8429,6.39779 -110,1.44443 -3.29999,-0.58053 -8.69999,-1.5154 -12,-2.07752 -3.29999,-0.56209 -9.375,-0.93535 -13.5,-0.82945 -4.125,0.10591 -11.1,-0.29793 -15.5,-0.8974 -9.69079,-1.32034 -31.10466,-2.86095 -58,-4.1728 -11,-0.53653 -21.35,-1.20242 -23,-1.47974 -3.8656,-0.64971 -33.27964,-3.48727 -36.30902,-3.5027 -3.97641,-0.0203 -1.37196,1.83965 3.58233,2.55827 8.1373,1.18029 9.0689,2.16957 4.86195,5.16287 -4.27626,3.04259 -4.05382,3.63517 2.13634,5.69121 2.61143,0.86739 5.33731,2.52061 6.05751,3.67384 1.19767,1.91778 1.19704,3.59483 -9.1e-4,2.39688 z m -143.97143,-7.38515 c 2.183,-1.38322 -0.37355,-2.29098 -4.3508,-1.54483 -1.94043,0.36403 -3.77464,1.06085 -4.07603,1.5485 -0.70286,1.13727 6.63124,1.13407 8.42683,-0.004 z m 496.95168,-17.09637 c 3.68035,-0.54268 13.72129,-1.43186 22.31321,-1.97595 16.41143,-1.03929 25.73361,-3.13315 17.00756,-3.82009 -10.14756,-0.79885 -59.12922,3.28427 -59.12922,4.92901 0,1.86274 10.06723,2.30339 19.80845,0.86703 z m -166.25257,-3.94475 c 7.18416,-2.51624 14.22162,-8.23755 10.94412,-8.89732 -1.1,-0.22144 -2.2528,-0.80256 -2.56177,-1.29138 -0.30896,-0.48882 -3.90897,0.25353 -8,1.64968 -7.23421,2.46882 -28.3972,6.45434 -34.43823,6.48557 -3.16651,0.0164 -6.34388,1.47433 -5.35914,2.45907 3.12669,3.12667 30.12312,2.84884 39.41502,-0.40562 z"
           id="path3107" />
      </g>
    </pattern>
    <clipPath
       clipPathUnits="userSpaceOnUse"
       id="clipPath4017">
      <path
         sodipodi:type="star"
         style="fill:#ffd42a;fill-opacity:0.315574;fill-rule:evenodd;stroke:#000000;stroke-width:8;stroke-linecap:round;stroke-linejoin:round;stroke-miterlimit:4;stroke-dasharray:none"
         id="path4019"
         inkscape:flatsided="true"
         sodipodi:sides="6"
         sodipodi:cx="443.405"
         sodipodi:cy="256"
         sodipodi:r1="256"
         sodipodi:r2="221.7025"
         sodipodi:arg1="0.52359878"
         sodipodi:arg2="1.0471976"
         inkscape:rounded="0.1"
         inkscape:randomized="0"
         d="m 665.1075,384 c -12.8,22.17025 -196.1025,128 -221.7025,128 -25.6,0 -208.90251,-105.82975 -221.70251,-128 -12.8,-22.17025 -12.79999,-233.82975 10e-6,-256 C 234.5025,105.82975 417.805,-1.1268354e-7 443.405,0 c 25.6,1.1268354e-7 208.9025,105.82975 221.7025,128 12.8,22.17025 12.8,233.82975 0,256 z" />
    </clipPath>
    <clipPath
       clipPathUnits="userSpaceOnUse"
       id="clipPath5984">
      <path
         sodipodi:type="star"
         style="fill:#ffffff;fill-opacity:0.508197;fill-rule:evenodd;stroke:#5d5d5d;stroke-width:0;stroke-linecap:round;stroke-linejoin:round;stroke-miterlimit:4;stroke-dasharray:none;stroke-opacity:1;paint-order:normal"
         id="path5986"
         inkscape:flatsided="true"
         sodipodi:sides="6"
         sodipodi:cx="443.405"
         sodipodi:cy="256"
         sodipodi:r1="230.39999"
         sodipodi:r2="199.53226"
         sodipodi:arg1="0.52359878"
         sodipodi:arg2="1.0471976"
         inkscape:rounded="0.1"
         inkscape:randomized="0"
         d="m 642.93725,371.2 c -11.52,19.95322 -176.49225,115.19999 -199.53225,115.19999 -23.04,0 -188.01225,-95.24677 -199.53225,-115.19999 -11.52,-19.95323 -11.52,-210.44677 0,-230.4 11.52,-19.95322 176.49225,-115.199994 199.53225,-115.199994 23.04,0 188.01225,95.246774 199.53225,115.199994 11.52,19.95323 11.52,210.44677 0,230.4 z" />
    </clipPath>
    <clipPath
       clipPathUnits="userSpaceOnUse"
       id="clipPath3924">
      <path
         sodipodi:type="star"
         style="fill:#ff482a;fill-opacity:0.704312;fill-rule:evenodd;stroke:#ec2727;stroke-width:0;stroke-linecap:round;stroke-linejoin:round;stroke-opacity:1"
         id="path3926"
         inkscape:flatsided="true"
         sodipodi:sides="6"
         sodipodi:cx="456.68387"
         sodipodi:cy="488.34238"
         sodipodi:r1="230.39999"
         sodipodi:r2="199.53226"
         sodipodi:arg1="0.52359878"
         sodipodi:arg2="1.0471976"
         inkscape:rounded="0.1"
         inkscape:randomized="0"
         d="m 656.21612,603.54237 c -11.52,19.95323 -176.49225,115.2 -199.53225,115.2 -23.04,0 -188.01225,-95.24677 -199.53225,-115.2 -11.52,-19.95322 -11.52,-210.44677 0,-230.39999 11.52,-19.95323 176.49225,-115.2 199.53225,-115.2 23.04,0 188.01225,95.24678 199.53225,115.2 11.52,19.95323 11.52,210.44677 0,230.39999 z" />
    </clipPath>
  </defs>
  <sodipodi:namedview
     id="namedview437"
     pagecolor="#ffffff"
     bordercolor="#999999"
     borderopacity="1"
     inkscape:pageshadow="0"
     inkscape:pageopacity="0"
     inkscape:pagecheckerboard="0"
     showgrid="true"
     inkscape:zoom="0.61478994"
     inkscape:cx="548.15471"
     inkscape:cy="346.4598"
     inkscape:window-width="1394"
     inkscape:window-height="780"
     inkscape:window-x="18"
     inkscape:window-y="25"
     inkscape:window-maximized="0"
     inkscape:current-layer="svg435"
     inkscape:object-paths="false"
     showguides="true"
     objecttolerance="20">
    <inkscape:grid
       type="axonomgrid"
       id="grid445"
       units="px"
       spacingy="256" />
  </sodipodi:namedview>
  <g
     id="g1904"
     transform="translate(142.25257,61.94475)">
    <g
       inkscape:label="Image"
       id="g441">
      <path
         sodipodi:type="star"
         style="fill:#ffffff;fill-opacity:0.508197;fill-rule:evenodd;stroke:#5d5d5d;stroke-width:8;stroke-linecap:round;stroke-linejoin:round;stroke-miterlimit:4;stroke-dasharray:none;stroke-opacity:1"
         id="path3788"
         inkscape:flatsided="true"
         sodipodi:sides="6"
         sodipodi:cx="443.405"
         sodipodi:cy="256"
         sodipodi:r1="256"
         sodipodi:r2="221.7025"
         sodipodi:arg1="0.52359878"
         sodipodi:arg2="1.0471976"
         inkscape:rounded="1.0408341e-17"
         inkscape:randomized="0"
         d="M 665.1075,384 443.405,512 221.70249,384 221.7025,128 443.405,0 665.1075,128 Z" />
      <path
         sodipodi:type="star"
         style="fill:#ffe65e;fill-opacity:0.647541;fill-rule:evenodd;stroke:#5d5d5d;stroke-width:0;stroke-linecap:round;stroke-linejoin:round;stroke-miterlimit:4;stroke-dasharray:none;stroke-opacity:1;paint-order:normal"
         id="path5902"
         inkscape:flatsided="true"
         sodipodi:sides="6"
         sodipodi:cx="443.405"
         sodipodi:cy="256"
         sodipodi:r1="230.39999"
         sodipodi:r2="199.53226"
         sodipodi:arg1="0.52359878"
         sodipodi:arg2="1.0471976"
         inkscape:rounded="0.1"
         inkscape:randomized="0"
         d="m 642.93725,371.2 c -11.52,19.95322 -176.49225,115.19999 -199.53225,115.19999 -23.04,0 -188.01225,-95.24677 -199.53225,-115.19999 -11.52,-19.95323 -11.52,-210.44677 0,-230.4 11.52,-19.95322 176.49225,-115.199994 199.53225,-115.199994 23.04,0 188.01225,95.246774 199.53225,115.199994 11.52,19.95323 11.52,210.44677 0,230.4 z" />
    </g>
  </g>
  <g
     id="g1311"
     transform="translate(128.9737,-170.39763)"
     clip-path="url(#clipPath3924)">
    <path
       style="fill:#fefefe;fill-opacity:0"
       d="m 140.57793,468.32906 c 0,-274 0,-274 329,-274 329,0 329,0 329,274 0,274 0,274 -329,274 -329,0 -329,0 -329,-274 z"
       id="path1317" />
    <path
       style="fill:#e9dda3;fill-opacity:1"
       d="m 140.57793,641.41865 c 0,-100.91042 0,-100.91042 9.25,-103.07893 31.12594,-7.297 84.31594,-18.30779 114.32795,-23.66689 2.43875,-0.43548 6.97236,1.24134 21.83038,8.07426 18.66106,8.58186 36.55956,14.79002 46.09167,15.98706 33.85233,4.25119 83.73869,3.85849 98.73874,-0.77725 14.10036,-4.35769 12.57549,-4.32784 31.67603,-0.62011 19.50011,3.7853 27.05471,3.86817 35.74358,0.39208 7.22705,-2.89128 9.67689,-2.8288 18.56667,0.47351 8.13321,3.02126 13.46755,2.66255 27.08994,-1.82167 11.81495,-3.88925 11.81495,-3.88925 22,-2.43639 41.57446,5.93047 43.38383,5.93224 63.68504,0.0625 17.24741,-4.98676 25.42563,-8.39397 51,-21.24761 24.65945,-12.39381 21.15774,-12.54649 82,3.57526 10.175,2.69613 21.425,5.38314 25,5.97112 3.575,0.58798 7.5125,1.29236 8.75,1.5653 2.25,0.49627 2.25,0.49627 2.25,109.47722 0,108.98095 0,108.98095 -329,108.98095 -329,0 -329,0 -329,-100.91041 z"
       id="path1315" />
    <path
       style="fill:#decd87;fill-opacity:1"
       d="m 171.07793,741.27426 c 5.16377,-1.07141 10.25291,-1.15401 10.85722,-0.17623 0.26138,0.42293 -2.97456,0.82234 -7.19099,0.88757 -6.42195,0.0994 -7.017,-0.0161 -3.66623,-0.71134 z m 12.83333,0.38813 c 0.36667,-0.36666 0.96667,-0.36666 1.33334,0 0.36666,0.36667 0.0667,0.66667 -0.66667,0.66667 -0.73333,0 -1.03333,-0.3 -0.66667,-0.66667 z m 33.66667,0.1836 c 0,-1.17164 5.79647,-2.77291 14.46855,-3.99692 6.66319,-0.94046 9.23368,-1.72579 10,-3.05518 0.5673,-0.98413 1.70645,-2.5253 2.53145,-3.42481 0.825,-0.89951 1.60225,-3.414 1.72723,-5.58775 0.37514,-6.52482 1.15693,-8.34101 4.28726,-9.95976 1.64203,-0.84913 2.98551,-1.96488 2.98551,-2.47945 0,-1.40784 9.92236,-4.07065 12.63314,-3.39029 3.12286,0.78379 2.96601,1.39988 -1.11443,4.37723 -1.9536,1.42547 -3.66102,3.68198 -3.97247,5.25 -1.80501,9.08723 -1.83905,8.68818 0.82752,9.702 4.27104,1.62385 7.30424,9.46686 4.13198,10.68417 -0.82184,0.31537 -1.28081,0.91876 -1.01993,1.34086 0.26087,0.42211 -10.31671,0.84371 -23.50575,0.9369 -13.18903,0.0932 -23.98006,-0.0855 -23.98006,-0.397 z m 100.5,-0.51693 c 0.33992,-0.55 0.81648,-1 1.05902,-1 0.24254,0 0.44098,0.45 0.44098,1 0,0.55 -0.47656,1 -1.05902,1 -0.58246,0 -0.7809,-0.45 -0.44098,-1 z m 2.78939,-0.36817 c 0.19739,-0.59217 1.22553,-1.31408 2.28475,-1.60425 1.05922,-0.29017 3.10815,-1.33066 4.55317,-2.3122 5.27747,-3.58476 15.04889,-4.92455 17.98064,-2.46538 2.78368,2.33497 3.9283,4.49196 3.28009,6.18117 -0.77943,2.03116 -28.77546,2.23108 -28.09865,0.20066 z m 187.44394,0.24408 c 0.67834,-0.68342 1.48524,-0.99067 1.79313,-0.68278 0.30789,0.30789 -0.24711,0.86705 -1.23333,1.24258 -1.4252,0.54268 -1.54006,0.42782 -0.5598,-0.5598 z m 53.6,0.45742 c 0.36667,-0.36666 0.96667,-0.36666 1.33334,0 0.36666,0.36667 0.0667,0.66667 -0.66667,0.66667 -0.73333,0 -1.03333,-0.3 -0.66667,-0.66667 z m 20.66667,-0.33333 c 0,-0.73333 0.3,-1.03333 0.66667,-0.66667 0.36666,0.36667 0.36666,0.96667 0,1.33334 -0.36667,0.36666 -0.66667,0.0667 -0.66667,-0.66667 z m 55,0 c 0,-0.55 0.47656,-1 1.05902,-1 0.58246,0 0.7809,0.45 0.44098,1 -0.33992,0.55 -0.81648,1 -1.05902,1 -0.24254,0 -0.44098,-0.45 -0.44098,-1 z m 5,0 c -2.5,-0.80064 -2.5,-0.80064 0.25,-0.90032 1.5125,-0.0548 2.75,0.35032 2.75,0.90032 0,0.55 -0.1125,0.95514 -0.25,0.90032 -0.1375,-0.0548 -1.375,-0.45997 -2.75,-0.90032 z m 51,0 c 0,-0.55 0.42344,-1 0.94098,-1 0.51754,0 1.2191,0.45 1.55902,1 0.33992,0.55 -0.0835,1 -0.94098,1 -0.85746,0 -1.55902,-0.45 -1.55902,-1 z m 27.8125,0.31689 c 0.72187,-0.28887 1.58438,-0.25335 1.91667,0.0789 0.33229,0.33229 -0.25834,0.56864 -1.3125,0.52522 -1.16495,-0.048 -1.4019,-0.28494 -0.60417,-0.60416 z m 45.11999,-0.37977 c -0.78787,-0.49857 -2.26448,-0.91339 -3.28136,-0.92181 -1.91815,-0.0159 -6.96512,-1.97936 -12.15113,-4.72728 -1.65,-0.87429 -4.2375,-2.22972 -5.75,-3.01207 -2.73054,-1.41238 -3.70322,-3.27596 -1.70987,-3.27596 0.57208,0 5.69831,1.575 11.39164,3.5 5.69332,1.925 10.99922,3.5 11.79088,3.5 0.79167,0 2.04147,1.125 2.77735,2.5 1.44121,2.69292 2.49762,3.12188 3.53894,1.43699 0.36134,-0.58466 -0.13434,-1.93742 -1.10151,-3.00613 -0.96718,-1.06872 -1.57376,-2.05286 -1.34797,-2.18699 6.29473,-3.73924 10.83222,-3.66224 8.4799,0.1439 -0.86576,1.40083 3.4111,4.11223 6.48648,4.11223 3.55215,0 4.26586,-0.98704 2.29135,-3.16885 -0.93345,-1.03146 -1.16813,-1.83115 -0.53736,-1.83115 0.61589,0 1.60147,0.9 2.19017,2 0.5887,1.1 1.70717,2 2.48549,2 0.77832,0 1.83178,0.74452 2.34103,1.65449 0.5572,0.99566 1.57251,1.40636 2.54969,1.03139 0.89308,-0.34271 1.62379,-0.20141 1.62379,0.31399 0,1.21171 -30.14675,1.15272 -32.06751,-0.0627 z m -605.68249,-3.5994 c -4.53809,-1.83116 3.77045,-8.47138 11.78168,-9.41598 4.08874,-0.4821 6.96207,-1.60293 10.5443,-4.11309 13.56873,-9.508 20.49041,-11.25677 25.64537,-6.47932 5.1843,4.80466 -4.72801,12.92944 -15.61221,12.79679 -1.03998,-0.0127 -3.51497,0.8005 -5.5,1.80705 -1.98503,1.00655 -6.30914,2.36423 -9.60914,3.01707 -3.3,0.65284 -7.62721,1.60611 -9.61602,2.11837 -3.88808,1.00147 -5.66388,1.06406 -7.63398,0.26911 z m 519.77896,-3.29866 c -0.80907,-0.51167 -1.16598,-1.23537 -0.79313,-1.60823 0.9151,-0.91509 3.76417,0.24885 3.76417,1.53779 0,1.2701 -1.03529,1.29465 -2.97104,0.0704 z m -307.02896,-0.93207 c 0,-0.49116 0.7118,-1.16616 1.58179,-1.5 2.23506,-0.85768 2.41821,-0.79004 2.41821,0.89301 0,0.83333 -0.88889,1.5 -2,1.5 -1.1,0 -2,-0.40186 -2,-0.89301 z m 18.05908,-1.99661 c -0.82568,-1.54278 -0.61674,-1.99279 1.13835,-2.45176 2.85036,-0.74538 3.72605,-0.082 3.09206,2.34238 -0.66015,2.52439 -2.90685,2.58249 -4.23041,0.10938 z m 404.94092,0.88962 c 0,-0.55 0.45,-1 1,-1 0.55,0 1,0.45 1,1 0,0.55 -0.45,1 -1,1 -0.55,0 -1,-0.45 -1,-1 z m -656,-2.41667 c 0,-0.77916 0.5625,-1.64364 1.25,-1.92105 1,-0.40351 1,-0.52017 0,-0.58333 -0.6875,-0.0434 -1.25,-0.55927 -1.25,-1.14634 0,-0.64517 0.89,-0.79381 2.25,-0.37577 3.2012,0.984 3.28008,1.19994 1.25555,3.43703 -2.12695,2.35025 -3.50555,2.58206 -3.50555,0.58946 z m 628.03933,-0.62411 c -3.00338,-0.99823 -6.00765,-2.56299 -6.67616,-3.47723 -1.19189,-1.63001 -6.15188,-4.75519 -9.61317,-6.05704 -1.80046,-0.67719 -2.43264,-2.42495 -0.87712,-2.42495 2.17568,0 10.8002,4.43541 12.36976,6.36151 1.3371,1.64082 1.9382,1.83857 2.58297,0.84974 0.63308,-0.97092 1.51414,-1.03258 3.57246,-0.25 1.50267,0.57131 4.08242,1.03875 5.73277,1.03875 1.65035,0 3.91937,0.49169 5.04226,1.09264 1.35121,0.72314 2.37735,0.75691 3.03442,0.0998 0.65706,-0.65706 2.72687,-0.0966 6.12061,1.65736 5.75976,2.97676 -0.23669,4.39803 -9.87905,2.34151 -2.37558,-0.50666 -4.68595,-0.58279 -5.13416,-0.16918 -0.4482,0.4136 -3.27222,-0.0647 -6.27559,-1.06295 z m -314.01037,-0.92016 c -0.80907,-0.51167 -1.16598,-1.23537 -0.79313,-1.60823 0.9151,-0.91509 3.76417,0.24885 3.76417,1.53779 0,1.2701 -1.03529,1.29465 -2.97104,0.0704 z m -294.42362,-4.33837 c -4.84233,-3.54081 0.78826,-9.82637 6.11916,-6.83097 1.32369,0.74378 2.28443,0.53925 3.7755,-0.80374 2.2047,-1.98576 9.15606,-3.43151 9.99242,-2.07824 0.80651,1.30496 -14.40945,11.01226 -17.26145,11.01226 -0.46679,0 -1.64832,-0.58469 -2.62563,-1.29931 z m 612.39466,-8.20069 c -0.98781,-2.59815 -3.37532,-3.31978 -4.57284,-1.38215 -0.90996,1.47236 -9.03825,0.36699 -12.1122,-1.64713 -2.80341,-1.83687 -3.27962,-6.05789 -0.56496,-5.00768 0.9625,0.37236 3.1,0.8927 4.75,1.1563 11.70904,1.87061 20.86372,6.26395 17.5,8.39827 -2.48464,1.57653 -3.99828,1.11711 -5,-1.51761 z m -279,-0.55902 c 0,-0.58246 0.45,-0.7809 1,-0.44098 0.55,0.33992 1,0.81648 1,1.05902 0,0.24254 -0.45,0.44098 -1,0.44098 -0.55,0 -1,-0.47656 -1,-1.05902 z m 213.5,-0.94098 c -0.34907,-0.56481 0.46994,-1 1.88197,-1 1.375,0 2.77811,0.45 3.11803,1 0.34907,0.56481 -0.46994,1 -1.88197,1 -1.375,0 -2.77811,-0.45 -3.11803,-1 z m -108.30075,-1.04429 c -3.87889,-0.85066 -4.91998,-1.6653 -3.63258,-2.84246 0.52594,-0.48091 2.61502,-0.0906 4.78608,0.89415 4.37994,1.98669 3.76417,3.02677 -1.1535,1.94831 z m 69.30075,-1.95571 c -0.33992,-0.55 0.057,-1 0.88197,-1 0.825,0 1.77811,0.45 2.11803,1 0.33992,0.55 -0.057,1 -0.88197,1 -0.825,0 -1.77811,-0.45 -2.11803,-1 z m 45.40029,-0.62521 c -0.51592,-0.61887 -2.72955,-1.41168 -4.91917,-1.76182 -2.57287,-0.41142 -3.98112,-1.16302 -3.98112,-2.12479 0,-1.83347 0.1046,-1.83411 3.59709,-0.0222 1.55414,0.8063 3.81319,1.21816 5.02012,0.91524 2.11268,-0.53025 7.38279,2.03261 7.38279,3.59026 0,1.16539 -6.05496,0.65649 -7.09971,-0.5967 z m 83.43304,-7.04146 c 0.36667,-0.36666 0.96667,-0.36666 1.33334,0 0.36666,0.36667 0.0667,0.66667 -0.66667,0.66667 -0.73333,0 -1.03333,-0.3 -0.66667,-0.66667 z m -656.01861,-3.08333 c 0.0642,-1.30278 0.75803,-2.25575 1.64808,-2.26365 0.84546,-0.008 2.6622,-0.31055 4.0372,-0.67342 2.24467,-0.59238 2.35983,-0.48885 1.12756,1.01366 -0.75485,0.92037 -2.40485,1.67341 -3.66667,1.67341 -1.26182,0 -2.51086,0.5625 -2.77564,1.25 -0.26477,0.6875 -0.43151,0.2375 -0.37053,-1 z m 23.42522,0.1566 c -2.02371,-2.0237 -0.38485,-4.20858 5.13614,-6.84737 6.85464,-3.27622 9.69053,-3.12584 6.2341,0.33059 -1.24565,1.24565 -2.91915,2.01373 -3.71888,1.70684 -0.85305,-0.32734 -2.58191,0.70431 -4.18274,2.49595 -1.50078,1.67966 -3.06166,2.72096 -3.46862,2.31399 z m 627.82835,-0.29611 c -0.30237,-0.48923 -2.01642,-1.11653 -3.80902,-1.394 -6.34801,-0.98258 -16.75927,-5.77004 -16.75927,-7.7065 0,-1.62847 6.53298,-2.03993 9.49707,-0.59814 1.65161,0.80337 3.79718,1.70283 4.76794,1.99879 0.97075,0.29596 2.16964,1.60237 2.66419,2.90314 0.73453,1.93196 1.45205,2.28388 3.9185,1.92188 2.66481,-0.39111 2.95473,-0.19614 2.46918,1.6606 -0.57374,2.19398 -1.8065,2.73857 -2.74859,1.21423 z m -4.56829,-4.11049 c 0,-0.55 -0.92656,-1 -2.05902,-1 -1.13246,0 -1.7809,0.45 -1.44098,1 0.33992,0.55 1.26648,1 2.05902,1 0.79254,0 1.44098,-0.45 1.44098,-1 z m -527,2.90874 c 0,-2.83262 5.5553,-4.90874 13.13486,-4.90874 8.00805,0 10.132,1.18764 5.36514,3 -1.375,0.52277 -2.5,1.35702 -2.5,1.85388 0,0.49685 -3.6,0.88427 -8,0.86091 -4.4,-0.0233 -8,-0.38607 -8,-0.80605 z m 373.54271,-0.83964 c -0.68308,-1.10523 0.8944,-2.29865 1.81781,-1.37525 0.95079,0.95079 0.77359,2.30615 -0.3015,2.30615 -0.51754,0 -1.19988,-0.41891 -1.51631,-0.9309 z m -303.54271,-6.70777 c 0,-0.85176 1.14505,-1.36133 3.05902,-1.36133 3.53657,0 3.16444,1.53297 -0.54424,2.24193 -1.69026,0.32311 -2.51478,0.0344 -2.51478,-0.8806 z m -132,-1.94859 c 0,-2.37469 0.18631,-2.51502 1.75,-1.31815 0.9625,0.73671 1.90104,1.43035 2.08565,1.54142 0.1846,0.11107 -0.6029,0.70424 -1.75,1.31815 -1.87101,1.00134 -2.08565,0.84271 -2.08565,-1.54142 z m 476.97994,-0.93691 c -0.69572,-0.83829 -1.01436,-1.77475 -0.70809,-2.08102 0.89227,-0.89226 4.84439,1.60809 4.19714,2.65536 -0.84568,1.36834 -2.03992,1.17175 -3.48905,-0.57434 z m -484.85806,-8.37934 c -1.80881,-1.14569 -0.54699,-3.09649 2.00288,-3.09649 2.49567,0 5.87524,1.7459 5.87524,3.03518 0,1.19979 -6.00688,1.24653 -7.87812,0.0613 z m 523.34708,-2.14671 c -0.95021,-1.53748 0.35135,-2.52947 1.63484,-1.24598 0.71818,0.71818 0.73543,1.27752 0.0524,1.69964 -0.55992,0.34605 -1.31919,0.1419 -1.68727,-0.45366 z m 82.16941,-4.44978 c -0.35062,-0.91371 -0.002,-1.5 0.89301,-1.5 0.80774,0 1.46862,0.675 1.46862,1.5 0,0.825 -0.40186,1.5 -0.89301,1.5 -0.49116,0 -1.15203,-0.675 -1.46862,-1.5 z m -596.30504,-2.16667 c 0.36667,-0.36666 0.96667,-0.36666 1.33334,0 0.36666,0.36667 0.0667,0.66667 -0.66667,0.66667 -0.73333,0 -1.03333,-0.3 -0.66667,-0.66667 z m 592.66667,-0.83333 c -0.71755,-0.86459 -0.81474,-1.5 -0.22943,-1.5 0.5585,0 1.27447,0.675 1.59106,1.5 0.31658,0.825 0.41982,1.5 0.22943,1.5 -0.19039,0 -0.90637,-0.675 -1.59106,-1.5 z m -39,-2.5 c 0,-0.55 0.42344,-1 0.94098,-1 0.51754,0 1.2191,0.45 1.55902,1 0.33992,0.55 -0.0835,1 -0.94098,1 -0.85746,0 -1.55902,-0.45 -1.55902,-1 z m -613,-17.5 c 0,-0.825 0.45,-1.5 1,-1.5 0.55,0 1,0.675 1,1.5 0,0.825 -0.45,1.5 -1,1.5 -0.55,0 -1,-0.675 -1,-1.5 z m 313.5,-9.5 c 0.33992,-0.55 1.06803,-1 1.61803,-1 0.55,0 0.72189,0.45 0.38197,1 -0.33992,0.55 -1.06803,1 -1.61803,1 -0.55,0 -0.72189,-0.45 -0.38197,-1 z M 349.40612,582.82391 c -0.27783,-0.27783 -4.06533,-0.7294 -8.41667,-1.00349 -9.45763,-0.59574 -27.69177,-5.45197 -20.59578,-5.4852 0.72366,-0.003 2.15356,0.44223 3.17756,0.99025 1.97678,1.05794 5.0067,0.39019 5.0067,-1.1034 0,-0.49115 -1.59867,-0.89301 -3.55259,-0.89301 -1.95393,0 -6.76733,-0.73117 -10.69644,-1.62483 -10.41562,-2.36899 -99.64944,-2.57024 -104.01364,-0.23459 -3.08847,1.6529 -0.16898,2.88032 5.12506,2.15469 4.88861,-0.67005 5.71518,1.52755 1.06347,2.82747 -4.04285,1.12976 -30.14942,0.90716 -34.42586,-0.29354 -2.2,-0.6177 -5.8,-1.07258 -8,-1.01086 -2.2,0.0617 -10.6375,0.34521 -18.75,0.62997 -14.75,0.51773 -14.75,0.51773 -14.75,-17.9535 0,-17.00845 0.13859,-18.45388 1.75,-18.25211 0.9625,0.12051 5.575,-0.32884 10.25,-0.99857 4.675,-0.66973 15.925,-1.90629 25,-2.74791 43.45938,-4.03046 59.24388,-4.38749 86.78984,-1.96314 20.87259,1.83703 23.55725,1.18532 14.32187,-3.47669 -6.3584,-3.20971 -7.77627,-5.0549 -9.5177,-12.38618 -0.89236,-3.75679 -0.70401,-3.69344 23.45545,7.88867 28.07773,13.46054 34.41316,14.31074 111.45054,14.9565 30.16315,0.25284 51.38596,0.82885 53.4934,1.45187 7.15208,2.11437 23.33909,0.38121 37.7776,-4.04489 7.77603,-2.38373 8.16198,-2.38207 7.53061,0.0323 -1.02765,3.92973 18.64925,3.88954 33.04556,-0.0675 19.52021,-5.3654 21.02609,-5.4933 36.25552,-3.07937 7.64352,1.21154 15.89484,2.49652 18.33627,2.85553 4.0446,0.59474 4.22228,0.73341 2,1.56082 -2.47436,0.92126 -14.16344,4.09186 -19.18896,5.2049 -11.92657,2.64147 22.40438,14.49566 41.83483,14.44522 6.26819,-0.0163 11.75426,0.54987 14.91517,1.53918 2.75,0.8607 5.81406,1.56978 6.80902,1.57574 2.72486,0.0163 1.08597,-1.74352 -2.32049,-2.4917 -8.12213,-1.78392 1.68691,-7.03816 11.64686,-6.23868 7.48711,0.601 9.28217,-0.68988 3.14478,-2.2615 -7.32519,-1.87579 -7.33419,-1.8812 -5.70771,-3.43124 0.78515,-0.74824 7.01108,-3.44318 13.83542,-5.98876 22.8698,-8.53076 25.90427,-10.82304 32.53477,-24.5773 1.98854,-4.125 4.16634,-8.59676 4.83956,-9.93724 2.75224,-5.48014 15.37009,-5.22296 38.21779,0.77898 43.78697,11.50254 55.47167,14.31004 60.2483,14.47596 5.11757,0.17776 8.90957,44.80863 4.0017,47.09897 -1,0.46666 -1,0.7 0,1.16666 0.6875,0.32084 1.25,1.56302 1.25,2.76041 0,2.3452 -16.16292,3.8197 -17.53498,1.59966 -0.32068,-0.51887 0.906,-0.95029 2.72596,-0.95871 1.81996,-0.008 3.98402,-0.4938 4.80902,-1.07861 1.0798,-0.76542 -1.1613,-0.89243 -8,-0.45339 -8.92703,0.57312 -15.03997,1.38131 -39.5,5.22233 -18.37493,2.88545 -62.70152,3.63642 -81.37897,1.3787 -4.05844,-0.49058 -8.00583,-0.65142 -8.77199,-0.35742 -3.05264,1.17141 -16.46254,-0.82339 -17.06054,-2.53785 -1.94444,-5.5747 -5.28505,-5.94469 -32.7885,-3.63149 -74.99967,6.30793 -81.8429,6.39779 -110,1.44443 -3.3,-0.58053 -8.7,-1.51541 -12,-2.07752 -3.3,-0.5621 -9.375,-0.93535 -13.5,-0.82945 -4.125,0.10591 -11.1,-0.29793 -15.5,-0.89741 -9.69079,-1.32033 -31.10466,-2.86094 -58,-4.17279 -11,-0.53653 -21.35,-1.20242 -23,-1.47974 -3.86561,-0.64971 -33.27964,-3.48727 -36.30902,-3.50271 -3.97641,-0.0203 -1.37196,1.83966 3.58233,2.55827 8.13729,1.1803 9.0689,2.16957 4.86194,5.16287 -4.27626,3.0426 -4.05382,3.63518 2.13634,5.69122 2.61143,0.86738 5.33732,2.52061 6.05752,3.67384 1.19767,1.91778 1.19703,3.59483 -9.2e-4,2.39688 z m -13.82819,-5.49485 c 0,-0.55 -0.47656,-1 -1.05902,-1 -0.58246,0 -0.7809,0.45 -0.44098,1 0.33992,0.55 0.81648,1 1.05902,1 0.24254,0 0.44098,-0.45 0.44098,-1 z m -130.14324,-1.89031 c 2.183,-1.38322 -0.37355,-2.29097 -4.3508,-1.54483 -1.94042,0.36403 -3.77464,1.06085 -4.07602,1.5485 -0.70287,1.13727 6.63124,1.13407 8.42682,-0.004 z m 496.95169,-17.09637 c 3.68035,-0.54268 13.72129,-1.43186 22.3132,-1.97595 16.41144,-1.03929 25.73362,-3.13315 17.00756,-3.82009 -10.14755,-0.79884 -59.12921,3.28428 -59.12921,4.92902 0,1.86274 10.06723,2.30338 19.80845,0.86702 z m -166.25257,-3.94475 c 7.18415,-2.51624 14.22161,-8.23754 10.94412,-8.89732 -1.1,-0.22144 -2.2528,-0.80256 -2.56177,-1.29138 -0.30897,-0.48882 -3.90897,0.25353 -8,1.64968 -7.23421,2.46882 -28.3972,6.45434 -34.43823,6.48557 -3.16651,0.0164 -6.34388,1.47433 -5.35914,2.45908 3.12668,3.12667 30.12312,2.84884 39.41502,-0.40563 z M 304.7953,536.09401 c -1.68776,-0.81311 -2.58685,-0.79547 -3.45,0.0677 -0.88983,0.88983 -0.34713,1.15128 2.28263,1.09969 3.23999,-0.0636 3.31105,-0.13462 1.16737,-1.16737 z m 143.78263,2.23505 c -1.9879,-1.28468 0.51039,-1.28468 3.5,0 2,0.85943 2,0.85943 0,0.9144 -1.1,0.0302 -2.675,-0.38124 -3.5,-0.9144 z"
       id="path1313" />
  </g>
</svg>
