<?xml version="1.0" encoding="UTF-8" standalone="no"?>
<!-- Created with Inkscape (http://www.inkscape.org/) -->

<svg
   width="210mm"
   height="297mm"
   viewBox="0 0 210 297"
   version="1.1"
   id="svg5"
   inkscape:version="1.1 (c4e8f9e, 2021-05-24)"
   sodipodi:docname="Ladrón.svg"
   xmlns:inkscape="http://www.inkscape.org/namespaces/inkscape"
   xmlns:sodipodi="http://sodipodi.sourceforge.net/DTD/sodipodi-0.dtd"
   xmlns="http://www.w3.org/2000/svg"
   xmlns:svg="http://www.w3.org/2000/svg">
  <sodipodi:namedview
     id="namedview7"
     pagecolor="#ffffff"
     bordercolor="#999999"
     borderopacity="1"
     inkscape:pageshadow="0"
     inkscape:pageopacity="0"
     inkscape:pagecheckerboard="0"
     inkscape:document-units="mm"
     showgrid="true"
     showguides="false"
     inkscape:zoom="0.50155022"
     inkscape:cx="397.76674"
     inkscape:cy="561.25984"
     inkscape:window-width="1399"
     inkscape:window-height="785"
     inkscape:window-x="0"
     inkscape:window-y="25"
     inkscape:window-maximized="0"
     inkscape:current-layer="layer1">
    <inkscape:grid
       type="xygrid"
       id="grid1098"
       spacingx="67.733334"
       spacingy="67.733334" />
  </sodipodi:namedview>
  <defs
     id="defs2" />
  <g
     inkscape:label="Capa 1"
     inkscape:groupmode="layer"
     id="layer1">
    <circle
       style="fill:#999999;fill-opacity:1;fill-rule:evenodd;stroke:#022727;stroke-width:4;stroke-linecap:round;stroke-linejoin:round"
       id="path1202"
       cx="135.46666"
       cy="203.2"
       r="67.73333" />
    <path
       style="fill:#000000;stroke-width:0.301625"
       d="m 119.79953,243.39908 c -4.93739,-0.61093 -11.94379,-2.87591 -16.11906,-5.21085 -3.696354,-2.06713 -6.186565,-5.86909 -8.52851,-13.02104 -1.821037,-5.56119 -1.704016,-7.16319 0.628609,-8.60483 l 1.084097,-0.67001 5.031094,0.49159 c 11.29819,1.10397 15.02324,1.24262 33.38388,1.24262 18.37816,0 22.0436,-0.13706 33.37332,-1.24794 2.76133,-0.27076 5.36369,-0.40616 5.78304,-0.30091 1.15884,0.29085 2.5844,1.63605 2.86656,2.70495 0.61409,2.32639 -2.59776,11.68095 -5.42671,15.80542 -1.3115,1.91209 -2.57132,2.9736 -5.0764,4.27728 -5.06329,2.63502 -12.35565,4.58381 -17.34345,4.63482 -3.61593,0.037 -4.28838,-0.20878 -7.72077,-2.82164 -2.79355,-2.12655 -4.59934,-2.818 -6.60245,-2.52812 -1.73768,0.25146 -2.68967,0.75385 -5.28239,2.78765 -1.16127,0.91093 -2.53475,1.83539 -3.05219,2.05438 -1.3069,0.55309 -4.37455,0.73132 -6.99867,0.40663 z m 3.74536,-9.96571 c 1.67856,-0.8638 3.0108,-2.58064 3.30644,-4.26093 0.17194,-0.97722 0.0821,-1.23772 -0.69474,-2.01457 -1.1601,-1.1601 -3.26623,-1.74688 -7.74191,-2.15692 -4.79461,-0.43928 -8.94161,0.0749 -9.99536,1.23926 -1.23486,1.36451 0.28804,4.75025 2.79896,6.22271 3.46399,2.03136 9.36268,2.49576 12.32661,0.97045 z m 33.63431,0.0689 c 3.72718,-1.44237 6.00074,-3.77892 6.00074,-6.167 0,-0.91342 -0.15118,-1.17503 -0.904,-1.56433 -2.93467,-1.51758 -13.56767,-1.02124 -16.46354,0.7685 -2.86841,1.77278 -0.85013,6.14512 3.49084,7.5624 1.40461,0.4586 6.05674,0.10445 7.87596,-0.59957 z m -33.78577,-22.38109 c -11.21219,-0.39394 -20.61374,-1.22702 -28.98356,-2.56826 -12.879142,-2.06382 -18.944371,-4.75592 -17.560061,-7.79415 0.981213,-2.15353 7.44787,-4.39338 17.211794,-5.96165 3.002924,-0.48233 4.400185,-0.83385 4.565532,-1.1486 0.13104,-0.24946 1.888565,-6.49361 3.905605,-13.87588 4.84578,-17.73525 4.68634,-17.25078 6.24943,-18.98931 1.76853,-1.96703 3.63379,-2.82812 6.13777,-2.83346 1.73312,-0.004 2.59919,0.25005 7.46546,2.18736 6.05085,2.40888 8.67705,3.02499 12.89424,3.02499 4.16194,0 6.72277,-0.60095 12.82503,-3.00964 4.97265,-1.96282 5.78563,-2.19803 7.53465,-2.17985 1.09807,0.0114 2.46111,0.23619 3.09837,0.51094 1.36453,0.5883 3.29976,2.28335 4.11749,3.60646 0.3263,0.52798 2.44866,7.74255 4.71635,16.03239 2.2677,8.28985 4.232,15.27999 4.36509,15.53367 0.17133,0.32654 1.50466,0.65711 4.5652,1.13183 14.36437,2.22808 20.81701,6.00696 15.72102,9.20673 -5.91545,3.71431 -22.76586,6.32613 -46.0847,7.14314 -9.28349,0.32526 -13.09148,0.32247 -22.74471,-0.0167 z"
       id="path998" />
  </g>
</svg>
