<?xml version="1.0" encoding="UTF-8" standalone="no"?>
<!-- Created with Inkscape (http://www.inkscape.org/) -->

<svg
   width="210mm"
   height="297mm"
   viewBox="0 0 210 297"
   version="1.1"
   id="svg837"
   inkscape:version="1.1 (c4e8f9e, 2021-05-24)"
   sodipodi:docname="Puerto.svg"
   xmlns:inkscape="http://www.inkscape.org/namespaces/inkscape"
   xmlns:sodipodi="http://sodipodi.sourceforge.net/DTD/sodipodi-0.dtd"
   xmlns="http://www.w3.org/2000/svg"
   xmlns:svg="http://www.w3.org/2000/svg">
  <sodipodi:namedview
     id="namedview839"
     pagecolor="#ffffff"
     bordercolor="#999999"
     borderopacity="1"
     inkscape:pageshadow="0"
     inkscape:pageopacity="0"
     inkscape:pagecheckerboard="0"
     inkscape:document-units="mm"
     showgrid="true"
     inkscape:zoom="0.78273302"
     inkscape:cx="83.681151"
     inkscape:cy="258.07012"
     inkscape:window-width="1399"
     inkscape:window-height="780"
     inkscape:window-x="0"
     inkscape:window-y="25"
     inkscape:window-maximized="0"
     inkscape:current-layer="layer1">
    <inkscape:grid
       type="xygrid"
       id="grid898"
       spacingx="67.733334"
       spacingy="67.733334" />
  </sodipodi:namedview>
  <defs
     id="defs834" />
  <g
     inkscape:label="Capa 1"
     inkscape:groupmode="layer"
     id="layer1">
    <circle
       style="fill:#914421;fill-opacity:1;fill-rule:evenodd;stroke:#022727;stroke-width:1.14307;stroke-linecap:round;stroke-linejoin:round"
       id="path1202"
       cx="54.291733"
       cy="98.442192"
       r="19.356016" />
    <path
       style="fill:#000000;stroke-width:0.0233553"
       d="m 60.543817,112.81661 c -0.03735,-0.0419 -0.101825,-0.12348 -0.143265,-0.18132 -0.09928,-0.13853 -0.289957,-0.28236 -0.495801,-0.37399 -0.09162,-0.0408 -0.38612,-0.14839 -0.654444,-0.23914 -1.882894,-0.6368 -3.257543,-1.43058 -4.402614,-2.54221 -1.159211,-1.12537 -2.005293,-2.58938 -2.319481,-4.01351 -0.03478,-0.15759 -0.07594,-0.34324 -0.0915,-0.41258 l -0.02828,-0.12606 -0.236639,-0.0283 c -0.276567,-0.0331 -0.437136,-0.0989 -0.486584,-0.19921 -0.04234,-0.0859 -0.01299,-0.25076 0.106646,-0.59999 0.256828,-0.74965 0.771692,-1.6568 1.104388,-1.94586 l 0.05275,-0.0458 0.07098,0.0802 c 0.211534,0.2391 0.612029,0.84593 0.814279,1.2338 0.430097,0.82481 0.51021,1.33333 0.224017,1.42184 -0.04357,0.0134 -0.18522,0.0346 -0.314816,0.0471 -0.129595,0.0125 -0.243913,0.0309 -0.254038,0.0409 -0.02386,0.0238 0.11797,0.5582 0.21476,0.80908 0.423808,1.09845 1.374055,2.12177 2.628002,2.83012 0.472298,0.26679 1.300364,0.61727 1.787744,0.75665 0.117801,0.0337 0.335221,0.0977 0.483145,0.1423 0.14793,0.0446 0.271987,0.0773 0.275694,0.0727 0.0034,-0.005 0.02531,-0.11151 0.04794,-0.23757 0.02268,-0.12606 0.136724,-0.59126 0.253456,-1.03375 0.116726,-0.44251 0.239333,-0.92528 0.272451,-1.07284 0.132586,-0.59063 0.130866,-0.52943 0.130866,-4.66063 v -3.810712 h -0.05658 c -0.03114,0 -0.0699,-0.01546 -0.0862,-0.03438 -0.02582,-0.02996 -0.241439,-0.03438 -1.67472,-0.03438 l -1.645089,5e-6 -0.0983,0.109939 c -0.192175,0.214928 -0.552277,0.33718 -0.833621,0.283012 -0.21065,-0.04054 -0.369992,-0.126548 -0.516007,-0.278448 -0.461176,-0.479756 -0.252005,-1.229844 0.397074,-1.42391 0.351893,-0.105213 0.69939,-0.0117 0.950824,0.255918 l 0.128386,0.13664 h 1.645728 c 1.629863,0 1.645728,-3.92e-4 1.645728,-0.04586 0,-0.03562 0.0159,-0.04586 0.07139,-0.04586 h 0.07139 V 97.22645 96.802419 h -0.07139 -0.07139 v -0.674865 -0.674835 l -0.133174,-0.110197 c -0.278555,-0.230505 -0.52416,-0.612295 -0.631182,-0.981181 -0.07724,-0.266228 -0.07845,-0.776127 -0.0022,-1.012171 0.20169,-0.625999 0.57204,-1.043824 1.154832,-1.302873 0.298738,-0.132793 0.4402,-0.159923 0.825608,-0.158344 0.393064,0.0017 0.571279,0.0345 0.843416,0.155594 0.642483,0.285901 1.069186,0.821846 1.191305,1.496307 0.04514,0.249433 0.04502,0.408568 -3.92e-4,0.659945 -0.07423,0.409967 -0.27025,0.763375 -0.593073,1.069235 l -0.178971,0.169584 -3.92e-4,0.68188 c -3.92e-4,0.666464 -0.0017,0.681897 -0.04805,0.681897 -0.04586,0 -0.0476,0.01529 -0.0476,0.424031 0,0.408751 0.0017,0.424028 0.0476,0.424028 0.0317,0 0.0476,0.01529 0.0476,0.04586 0,0.04542 0.01585,0.04586 1.603493,0.04586 h 1.603493 l 0.08922,-0.104866 c 0.190254,-0.223622 0.481236,-0.344403 0.784554,-0.325654 0.328368,0.02033 0.58982,0.193905 0.743736,0.493861 0.08385,0.163395 0.08978,0.188651 0.08978,0.382427 0,0.18532 -0.0079,0.223378 -0.07439,0.356455 -0.107268,0.214844 -0.220484,0.328826 -0.420706,0.42355 -0.204238,0.09663 -0.401335,0.123512 -0.59071,0.08057 -0.187332,-0.0425 -0.29964,-0.104422 -0.462605,-0.25514 l -0.145293,-0.134452 h -1.59908 c -1.399507,0 -1.60085,0.0045 -1.612834,0.03438 -0.0075,0.01887 -0.03399,0.03438 -0.05875,0.03438 -0.04402,0 -0.04502,0.08442 -0.0443,3.684515 3.92e-4,2.02648 0.01014,3.83923 0.02162,4.02832 0.02324,0.38315 0.07968,0.72275 0.219061,1.31795 0.278785,1.19044 0.330467,1.42721 0.352145,1.61333 0.01305,0.11204 0.02727,0.20708 0.03158,0.21122 0.01193,0.0114 1.260336,-0.38591 1.516659,-0.48282 0.664513,-0.25119 1.505174,-0.7113 2.006715,-1.09832 0.273325,-0.2109 0.82222,-0.74928 0.995988,-0.97688 0.271953,-0.3562 0.527834,-0.79714 0.688504,-1.18642 0.08247,-0.19982 0.235446,-0.75289 0.235446,-0.85122 0,-0.0641 -0.0011,-0.0646 -0.192713,-0.08 -0.285477,-0.0229 -0.422133,-0.0572 -0.501777,-0.12572 -0.064,-0.055 -0.07086,-0.0745 -0.0701,-0.19815 0.0022,-0.37801 0.451366,-1.40516 0.886368,-2.02733 0.224667,-0.32136 0.340122,-0.44611 0.388646,-0.41996 0.0937,0.0505 0.493646,0.6126 0.747152,1.05008 0.274277,0.47332 0.497801,1.02057 0.520178,1.27355 0.01546,0.17494 -0.01999,0.30507 -0.09616,0.35265 -0.0541,0.0338 -0.252549,0.0693 -0.521427,0.0932 -0.14723,0.013 -0.160642,0.0186 -0.160642,0.0667 0,0.19841 -0.180258,0.94053 -0.334331,1.37643 -0.690614,1.95386 -2.086857,3.53598 -4.115882,4.66385 -0.676693,0.37616 -1.417775,0.69231 -2.391687,1.02033 -0.287958,0.097 -0.593393,0.21152 -0.678754,0.25452 -0.201611,0.10156 -0.376751,0.25072 -0.488079,0.41568 -0.04906,0.0727 -0.105835,0.14509 -0.126135,0.16084 -0.06353,0.0493 -0.138622,0.0323 -0.209787,-0.0475 z m 0.544835,-17.779353 c 0.183182,-0.0546 0.338307,-0.153927 0.509852,-0.326523 0.182779,-0.183896 0.258149,-0.31049 0.317145,-0.532657 0.08694,-0.327408 0.05314,-0.608801 -0.108774,-0.905571 -0.406331,-0.744741 -1.465907,-0.887013 -2.063337,-0.277048 -0.494015,0.504384 -0.494273,1.218632 -5.6e-4,1.722646 0.184094,0.187956 0.452037,0.330202 0.685378,0.363852 0.186598,0.02694 0.488645,0.0064 0.660352,-0.04469 z"
       id="path1027" />
    <path
       sodipodi:type="star"
       style="fill:#91af21;fill-rule:evenodd;stroke:#022727;stroke-width:15.1181;stroke-linecap:round;stroke-linejoin:round;fill-opacity:1"
       id="path846"
       inkscape:flatsided="true"
       sodipodi:sides="6"
       sodipodi:cx="0"
       sodipodi:cy="256"
       sodipodi:r1="256"
       sodipodi:r2="221.70251"
       sodipodi:arg1="0"
       sodipodi:arg2="0.52359878"
       inkscape:rounded="0"
       inkscape:randomized="0"
       d="m 256,256 -128,221.7025 -256,0 L -256,256 -128,34.297497 l 256,0 z"
       transform="scale(0.26458333)" />
  </g>
</svg>
